<?xml version="1.0" encoding="UTF-8"?>
<svg xmlns="http://www.w3.org/2000/svg" version="1.1" viewBox="0 0 280 280">
  <defs>
    <style>
      .cls-1 {
        fill: #ffbf1f;
      }
    </style>
  </defs>
  <!-- Generator: Adobe Illustrator 28.7.2, SVG Export Plug-In . SVG Version: 1.2.0 Build 154)  -->
  <g>
    <g id="day">
      <g>
        <path class="cls-1" d="M135.5,191.29v24.77c0,2.35,2.07,4.61,4.5,4.5s4.5-1.98,4.5-4.5v-24.77c0-2.35-2.07-4.61-4.5-4.5s-4.5,1.98-4.5,4.5h0Z"/>
        <path class="cls-1" d="M135.5,63.94v24.77c0,2.35,2.07,4.61,4.5,4.5s4.5-1.98,4.5-4.5v-24.77c0-2.35-2.07-4.61-4.5-4.5s-4.5,1.98-4.5,4.5h0Z"/>
        <path class="cls-1" d="M100.55,173.08c-5.11,5.11-10.22,10.22-15.33,15.33l-2.18,2.18c-1.67,1.67-1.79,4.72,0,6.36s4.59,1.78,6.36,0c5.11-5.11,10.22-10.22,15.33-15.33l2.18-2.18c1.67-1.67,1.79-4.72,0-6.36s-4.59-1.78-6.36,0h0Z"/>
        <path class="cls-1" d="M190.6,83.04c-5.11,5.11-10.22,10.22-15.33,15.33-.73.73-1.45,1.45-2.18,2.18-1.67,1.67-1.79,4.72,0,6.36s4.59,1.78,6.36,0c5.11-5.11,10.22-10.22,15.33-15.33.73-.73,1.45-1.45,2.18-2.18,1.67-1.67,1.79-4.72,0-6.36s-4.59-1.78-6.36,0h0Z"/>
        <path class="cls-1" d="M88.71,135.5h-24.77c-2.35,0-4.61,2.07-4.5,4.5s1.98,4.5,4.5,4.5h24.77c2.35,0,4.61-2.07,4.5-4.5s-1.98-4.5-4.5-4.5h0Z"/>
        <path class="cls-1" d="M216.06,135.5h-24.77c-2.35,0-4.61,2.07-4.5,4.5s1.98,4.5,4.5,4.5h24.77c2.35,0,4.61-2.07,4.5-4.5s-1.98-4.5-4.5-4.5h0Z"/>
        <path class="cls-1" d="M106.92,100.55c-5.11-5.11-10.22-10.22-15.33-15.33l-2.18-2.18c-1.67-1.67-4.72-1.79-6.36,0s-1.78,4.59,0,6.36c5.11,5.11,10.22,10.22,15.33,15.33l2.18,2.18c1.67,1.67,4.72,1.79,6.36,0s1.78-4.59,0-6.36h0Z"/>
        <path class="cls-1" d="M196.96,190.6c-5.11-5.11-10.22-10.22-15.33-15.33-.73-.73-1.45-1.45-2.18-2.18-1.67-1.67-4.72-1.79-6.36,0s-1.78,4.59,0,6.36c5.11,5.11,10.22,10.22,15.33,15.33.73.73,1.45,1.45,2.18,2.18,1.67,1.67,4.72,1.79,6.36,0s1.78-4.59,0-6.36h0Z"/>
        <path class="cls-1" d="M180.18,140c-.08-16.91-10.82-31.99-26.64-37.82-15.49-5.71-33.91-.7-44.36,12.07-5.39,6.59-8.6,14.46-9.25,22.96s1.42,16.52,5.63,23.49,10.28,12.46,17.52,15.73c7.93,3.57,16.6,4.6,25.14,2.9,15.84-3.16,28.89-16.62,31.37-32.61.35-2.23.57-4.46.58-6.71s-2.08-4.61-4.5-4.5-4.49,1.98-4.5,4.5c0,.93-.04,1.86-.11,2.79-.03.4-.07.8-.11,1.2-.02.16-.12.9-.03.25.1-.72-.06.38-.07.42-.29,1.77-.72,3.52-1.28,5.23-.26.79-.57,1.56-.86,2.34-.18.48.13-.3.13-.31-.06.2-.18.41-.27.6-.21.45-.42.9-.64,1.34-.79,1.56-1.7,3.06-2.71,4.49-.22.31-.45.61-.68.92.7-.96-.16.18-.31.37-.56.67-1.14,1.32-1.74,1.94s-1.23,1.23-1.88,1.81c-.28.25-.57.5-.86.75-.26.22-1.35,1.05-.49.42-1.4,1.04-2.86,2.01-4.39,2.85-.72.4-1.46.77-2.2,1.11-.38.17-1.08.57-.29.14-.42.23-.94.38-1.39.54-1.68.61-3.41,1.09-5.16,1.45-.39.08-.78.15-1.17.21-.2.03-.46.1-.67.1,1-.01.44-.05.18-.03-.92.09-1.84.18-2.76.21-1.86.07-3.71-.03-5.56-.21-.26-.03-.83.01.18.03-.21,0-.47-.07-.67-.1-.39-.06-.78-.14-1.17-.21-.94-.19-1.86-.41-2.78-.67-.8-.23-1.6-.49-2.38-.77-.36-.13-.72-.27-1.09-.41-.77-.3.04.04.16.07-.25-.07-.51-.23-.75-.34-1.59-.74-3.13-1.59-4.59-2.55-.68-.45-1.35-.93-2-1.41.8.6-.09-.08-.37-.31-.33-.28-.66-.56-.99-.85-1.3-1.16-2.51-2.42-3.62-3.75-.19-.23-.98-1.29-.31-.37-.22-.31-.46-.61-.68-.92-.54-.76-1.04-1.53-1.52-2.33-.42-.71-.82-1.42-1.19-2.16-.17-.34-.34-.69-.51-1.04-.09-.2-.18-.4-.27-.6-.45-.98.22.6,0,0-.61-1.68-1.21-3.34-1.63-5.08-.2-.82-.37-1.65-.5-2.49-.02-.1-.07-.66-.1-.67.04.02.13,1.12.03.18-.05-.46-.1-.91-.13-1.37-.14-1.85-.14-3.72,0-5.58.04-.46.08-.92.13-1.37.07-.7.11.11-.03.18.04-.02.07-.45.08-.51.15-.95.34-1.89.57-2.82.41-1.69,1.03-3.28,1.59-4.92.21-.6-.35.73-.07.16.1-.2.18-.4.27-.6.16-.35.33-.7.5-1.04.42-.83.87-1.65,1.35-2.44.42-.7.87-1.39,1.34-2.06.25-.36.51-.71.77-1.06-.59.8.07-.08.31-.37,1.11-1.34,2.32-2.59,3.62-3.75.32-.29.65-.57.99-.85.17-.14,1.03-.82.56-.46-.49.38.07-.05.2-.14.18-.13.35-.26.53-.38.4-.28.81-.56,1.22-.83,1.42-.92,2.91-1.75,4.46-2.46.2-.09.41-.17.6-.27.57-.28-.76.28-.16.07.36-.13.72-.29,1.08-.42.89-.33,1.79-.62,2.7-.87.81-.23,1.63-.43,2.46-.59.44-.09.89-.17,1.34-.25.1-.02.66-.07.67-.1-.04.09-.92.11-.18.03,1.85-.2,3.7-.29,5.56-.21.86.03,1.73.1,2.59.19,1.17.13-.66-.12.5.07.5.08,1,.17,1.5.27,1.75.36,3.48.85,5.15,1.47.36.13.72.29,1.08.42.59.22-.72-.36-.16-.07.15.08.3.13.45.2.85.39,1.68.81,2.5,1.26,1.49.82,2.88,1.77,4.25,2.77-.92-.67.14.12.37.31.33.28.66.56.99.85.65.58,1.27,1.18,1.88,1.81s1.18,1.27,1.74,1.94c.11.13.85,1.07.46.56s.05.07.14.2c.16.22.32.44.48.66,1.01,1.43,1.91,2.94,2.69,4.5.17.34.34.69.5,1.04.19.42.56,1.06.14.29.44.81.69,1.78.97,2.65.55,1.71.97,3.47,1.25,5.24,0,.05.04.49.08.51-.13-.07-.1-.88-.03-.18.05.46.1.91.13,1.37.07.93.1,1.86.11,2.79.01,2.35,2.06,4.61,4.5,4.5s4.51-1.98,4.5-4.5Z"/>
      </g>
    </g>
  </g>
</svg>