<?xml version="1.0" encoding="UTF-8"?>
<svg xmlns="http://www.w3.org/2000/svg" version="1.1" viewBox="0 0 280 280">
  <defs>
    <style>
      .cls-1 {
        fill: #fff;
      }
    </style>
  </defs>
  <!-- Generator: Adobe Illustrator 28.7.2, SVG Export Plug-In . SVG Version: 1.2.0 Build 154)  -->
  <g>
    <g id="night">
      <path class="cls-1" d="M75.37,85.38h107.6c4.93,0,9.89.12,14.82,0,.07,0,.14,0,.22,0,2.35,0,4.61-2.07,4.5-4.5s-1.98-4.5-4.5-4.5h-107.6c-4.93,0-9.89-.12-14.82,0-.07,0-.14,0-.22,0-2.35,0-4.61,2.07-4.5,4.5s1.98,4.5,4.5,4.5h0Z"/>
      <path class="cls-1" d="M91.73,102.23h86.28c3.97,0,7.96.11,11.93,0,.06,0,.12,0,.17,0,2.35,0,4.61-2.07,4.5-4.5s-1.98-4.5-4.5-4.5h-86.28c-3.97,0-7.96-.11-11.93,0-.06,0-.12,0-.17,0-2.35,0-4.61,2.07-4.5,4.5s1.98,4.5,4.5,4.5h0Z"/>
      <path class="cls-1" d="M111.26,118.43h76.33c3.54,0,7.09.11,10.62,0,.05,0,.11,0,.16,0,2.35,0,4.61-2.07,4.5-4.5s-1.98-4.5-4.5-4.5h-76.33c-3.54,0-7.09-.11-10.62,0-.05,0-.11,0-.16,0-2.35,0-4.61,2.07-4.5,4.5s1.98,4.5,4.5,4.5h0Z"/>
      <path class="cls-1" d="M128.94,135.47h75.68c2.35,0,4.61-2.07,4.5-4.5s-1.98-4.5-4.5-4.5h-75.68c-2.35,0-4.61,2.07-4.5,4.5s1.98,4.5,4.5,4.5h0Z"/>
      <path class="cls-1" d="M143.61,152.5h49.8c2.35,0,4.61-2.07,4.5-4.5s-1.98-4.5-4.5-4.5h-49.8c-2.35,0-4.61,2.07-4.5,4.5s1.98,4.5,4.5,4.5h0Z"/>
      <path class="cls-1" d="M135.94,169.54h44.43c2.35,0,4.61-2.07,4.5-4.5s-1.98-4.5-4.5-4.5h-44.43c-2.35,0-4.61,2.07-4.5,4.5s1.98,4.5,4.5,4.5h0Z"/>
      <path class="cls-1" d="M123.19,186.58h29.42c2.35,0,4.61-2.07,4.5-4.5s-1.98-4.5-4.5-4.5h-29.42c-2.35,0-4.61,2.07-4.5,4.5s1.98,4.5,4.5,4.5h0Z"/>
      <path class="cls-1" d="M131.92,203.62h9.54c1.15,0,2.37-.5,3.18-1.32s1.37-2.06,1.32-3.18c-.11-2.44-1.98-4.5-4.5-4.5h-9.54c-1.15,0-2.37.5-3.18,1.32s-1.37,2.06-1.32,3.18c.11,2.44,1.98,4.5,4.5,4.5h0Z"/>
    </g>
  </g>
</svg>