<?xml version="1.0" encoding="UTF-8"?>
<svg xmlns="http://www.w3.org/2000/svg" version="1.1" viewBox="0 0 280 280">
  <defs>
    <style>
      .cls-1 {
        fill: #22d5ff;
      }

      .cls-2 {
        fill: #011116;
      }
    </style>
  </defs>
  <!-- Generator: Adobe Illustrator 28.7.2, SVG Export Plug-In . SVG Version: 1.2.0 Build 154)  -->
  <g>
    <g id="night">
      <path class="cls-2" d="M172.21,186.39c15.79,0,32.35,1.09,47.63-3.56,7.16-2.18,14.2-5.89,18.31-12.37,4-6.3,4.32-14.77,1.87-21.68-2.19-6.18-6.33-11.45-11.89-14.95-5.02-3.16-10.67-4.28-16.53-4.28l4.5,4.5c1.18-16.74-10.03-32.5-26.18-37-5.23-1.46-10.6-1.57-15.94-.74l5.54,3.14c-5.29-21.94-23.62-39.62-45.91-43.64-11.51-2.08-23.24-.79-34,3.8-9.92,4.23-18.38,11.3-24.62,20.06-7.03,9.86-10.99,22.4-10.56,34.54l3.3-4.34c-16.76,4.3-28.91,19.64-29.27,36.94-.34,16.78,10.54,31.99,26.29,37.5,6.3,2.21,12.82,2.08,19.39,2.08,2.35,0,4.61-2.07,4.5-4.5s-1.98-4.5-4.5-4.5h-5.98c-1.04,0-2.07,0-3.11-.07-.4-.03-.8-.06-1.2-.1-.19-.02-.49-.02-.68-.08.91.27.47.07.18.02-.89-.14-1.78-.3-2.66-.51-1.58-.37-3.69-.74-5.08-1.61.97.6-.17-.08-.44-.2-.35-.16-.69-.33-1.04-.5-.83-.42-1.64-.87-2.44-1.36-.7-.43-1.38-.88-2.04-1.35-.36-.26-.96-.72-.27-.17-.38-.3-.76-.61-1.14-.93-1.32-1.13-2.56-2.35-3.7-3.66-.25-.29-.49-.58-.73-.87-.14-.17-.27-.34-.41-.51.63.8.24.31.11.13-.5-.72-1.01-1.42-1.47-2.16-.91-1.46-1.84-3.03-2.43-4.66.35.96-.03-.12-.16-.46-.14-.36-.26-.73-.39-1.1-.3-.9-.56-1.81-.79-2.73-.2-.82-.37-1.65-.51-2.49-.03-.17-.05-.34-.08-.5-.15-.95.05.17.02.18.07-.03-.14-1.38-.15-1.54-.14-1.89-.13-3.79.04-5.68.04-.42.09-.83.13-1.24-.12,1.14.05-.25.11-.56.16-.92.37-1.84.61-2.74s.51-1.78.82-2.65c.13-.38.28-.76.42-1.13.06-.14.35-.83.1-.26-.26.61.13-.29.19-.41.76-1.65,1.65-3.25,2.67-4.76.25-.38.51-.75.78-1.11.13-.18.27-.36.41-.54-.61.83-.11.15.03-.02.64-.79,1.32-1.55,2.03-2.28.67-.69,1.37-1.35,2.09-1.98.43-.37.87-.72,1.31-1.08-.75.61.14-.09.45-.31,1.67-1.18,3.44-2.22,5.3-3.09.35-.16,1.41-.59.5-.24.48-.18.96-.38,1.45-.55,1.04-.37,2.09-.68,3.16-.96,1.85-.48,3.37-2.4,3.3-4.34-.09-2.61.1-5.21.39-7.8.08-.72-.18,1.12,0,0,.05-.34.1-.68.16-1.01.09-.56.2-1.12.31-1.68.27-1.33.58-2.64.95-3.94.3-1.08.64-2.14,1.01-3.2.22-.63.45-1.25.7-1.88.08-.21.17-.41.25-.62.19-.46.17-.41-.07.16.09-.2.18-.41.26-.61.98-2.21,2.11-4.36,3.38-6.42.6-.98,1.24-1.94,1.9-2.87.35-.49.71-.97,1.07-1.45-.63.85-.17.21,0,0,.24-.3.48-.6.72-.89,1.53-1.85,3.18-3.59,4.94-5.22.88-.81,1.79-1.6,2.72-2.35.17-.14.34-.27.51-.41.88-.7-.78.57.13-.09.53-.39,1.06-.78,1.59-1.15,1.98-1.38,4.06-2.62,6.2-3.72,1.07-.55,2.17-1.13,3.3-1.55-1.16.43.49-.19.77-.3.67-.26,1.35-.51,2.04-.74,2.39-.81,4.85-1.45,7.33-1.92.56-.1,1.12-.2,1.68-.29.22-.03,1.37-.26.16-.03.22-.04.46-.06.68-.08,1.38-.16,2.76-.27,4.15-.32,2.63-.1,5.26-.01,7.87.26.3.03.59.07.89.1.73.08-1.11-.18.04,0,.64.1,1.28.2,1.92.32,1.32.24,2.64.54,3.94.88,1.23.32,2.45.69,3.66,1.1.54.19,1.09.38,1.63.58.32.12.64.25.96.37.24.09,1.21.52.2.07,2.3,1.01,4.53,2.14,6.68,3.44,1.06.65,2.11,1.33,3.12,2.05.46.33.91.66,1.37,1,.93.69-.73-.6.16.13.26.21.53.42.79.64,2.17,1.8,4.21,3.76,6.08,5.88.45.51.89,1.02,1.32,1.55.21.26.42.53.64.79.57.71-.47-.64.22.3.84,1.14,1.64,2.3,2.4,3.5s1.41,2.34,2.04,3.54c.35.66.68,1.32.99,1.99.12.26.24.52.36.78.09.2.69,1.61.23.5,1.1,2.67,2,5.42,2.68,8.23.62,2.56,3.19,3.51,5.54,3.14.92-.14.37-.06.17-.03.31-.04.61-.07.92-.09.54-.05,1.08-.08,1.62-.1,1.03-.04,2.06-.03,3.09.04.4.02.81.06,1.21.1.09,0,.68.09.68.08-.01.03-1.13-.18-.18-.02.84.14,1.67.29,2.5.49s1.62.42,2.42.68c.37.12.74.25,1.1.38.21.08.41.16.62.24.53.2.52.13,0-.01,1.5.42,3.05,1.49,4.35,2.32.69.44,1.34.94,2.01,1.4.51.35-.59-.53-.14-.1.12.11.26.21.38.31.38.31.75.63,1.11.96,1.26,1.14,2.35,2.4,3.45,3.69-.57-.66-.08-.1.18.26.22.31.44.62.65.94.49.73.94,1.47,1.37,2.24.4.72.76,1.46,1.11,2.21.07.14.16.3.2.45-.25-.92-.16-.4-.07-.16.16.42.32.83.47,1.25.65,1.87,1.08,3.77,1.41,5.72.09.53-.06-.34-.05-.35-.02,0,.08.76.09.86.05.52.08,1.04.11,1.56.06,1.26.02,2.51-.07,3.77-.17,2.43,2.2,4.5,4.5,4.5.63,0,1.25,0,1.88,0,.58,0,1.16.04,1.73.09l.34.03c.51.06.45.05-.18-.04.09.09.87.14,1,.17,1.21.23,2.4.55,3.55.96.26.09.51.22.78.29.65.18-.97-.47-.01,0,.59.29,1.18.57,1.76.88.52.29,1.04.6,1.54.93.26.17,1.75,1.31.8.54.93.76,1.81,1.55,2.63,2.42.37.4.72.81,1.07,1.22.72.84-.54-.79.09.12.18.27.38.53.56.8.67,1,1.26,2.05,1.77,3.13.13.27.68,1.04.07.13.1.15.17.43.24.62.23.62.44,1.26.61,1.9.15.54.28,1.08.39,1.63.06.28.11.55.15.83.2,1.2-.02-.63.04.33.11,1.66.14,3.27-.01,4.92-.09,1.04.22-1.22.03-.22-.06.3-.1.59-.16.89-.13.61-.29,1.22-.47,1.82-.08.26-.17.52-.26.77-.06.15-.12.3-.18.46-.19.57.28-.65.26-.62-.37.51-.58,1.22-.9,1.78-.28.49-.59.96-.92,1.42-.75,1.04.63-.72-.04.05-.23.27-.46.54-.71.81-.42.45-.86.88-1.32,1.29-.26.24-.54.45-.8.69-.28.25-.72.39.37-.28-.22.14-.43.32-.65.48-1.3.93-2.68,1.72-4.12,2.42-.36.17-.71.34-1.07.5-1.12.51.88-.34-.28.12-.93.37-1.87.71-2.82,1.02-2.04.66-4.13,1.2-6.23,1.63-1.12.23-2.25.44-3.38.62-.57.09-1.14.18-1.71.26-1.19.18,1-.12-.21.03-.36.04-.72.09-1.08.13-5.43.63-10.91.84-16.37.85s-11.44,0-17.16,0c-2.35,0-4.61,2.07-4.5,4.5s1.98,4.5,4.5,4.5h0Z"/>
      <path class="cls-1" d="M124.95,157.5c0,.29-.02.58-.04.88-.03.83.04-.22.04-.22.13.19-.25,1.13-.32,1.37-.05.18-.14.66-.28.79.02-.02.45-.88.07-.21-.27.48-.54.95-.85,1.41-.48.73.47-.39.04-.07-.17.13-.31.35-.46.51-.13.13-.26.26-.39.38l-.2.18c-.34.28-.27.24.18-.12-.2.3-.85.58-1.15.75-.16.09-.33.17-.49.26-.68.39.8-.22-.18.08-.45.14-.89.28-1.35.38-.54.11-.41.35.09.01-.14.09-.55.05-.72.05-.49.02-.97-.02-1.46-.04-.61-.03,1,.21.08,0-.28-.06-.55-.12-.82-.2s-.53-.17-.8-.26c-.56-.18.06.13.2.09-.22.06-.99-.52-1.21-.66-.19-.12-.37-.28-.57-.39-.48-.27.7.66.07.04-.19-.19-1.16-.91-1.14-1.17,0,.13.45.66.13.17-.15-.23-.31-.45-.45-.69-.09-.16-.18-.32-.27-.48l-.13-.25c-.19-.4-.16-.33.07.21-.25-.24-.35-1-.43-1.33-.05-.18-.08-.37-.12-.55-.19-.81.05.87-.02-.2-.03-.44-.03-.88,0-1.32l.02-.29c.05-.46.03-.38-.04.22.06-.11.08-.41.11-.56.1-.46.25-.9.4-1.35.28-.89-.44.76.03-.05.14-.24.25-.49.4-.73.12-.2.25-.38.37-.58l.08-.11c.26-.35.21-.3-.13.17-.01-.19.8-.86.94-.99.07-.07.63-.7.22-.21-.39.46.13-.09.25-.17.25-.17,1.19-.9,1.44-.81,0,0-.96.34-.2.09.27-.09.53-.18.8-.26.18-.05.36-.1.55-.14.07-.02,1-.22.3-.08s.23,0,.32-.01c.24-.01.49-.02.73-.01s.49.03.73.03c.9.03-.74-.19.06.01.55.14,1.08.28,1.62.45.84.27-.51-.35-.07-.03.24.18.58.3.85.46.16.09.31.19.46.29.15.1.3.21.45.32-.46-.36-.52-.4-.18-.12.32.32.64.64.97.97.65.65-.46-.74.05.04.15.23.31.45.45.69s.26.49.4.73c.4.69-.23-.78.03.05.17.54.31,1.07.45,1.62.12.49.19.08-.02-.23.15.22.06.9.06,1.16.03,2.12,1.84,4.15,4.05,4.05s4.08-1.78,4.05-4.05c-.09-6.21-3.93-11.53-9.71-13.71-5.44-2.05-12.17-.26-15.86,4.23-3.91,4.77-4.72,11.51-1.5,16.9s9.39,7.91,15.46,6.82c6.74-1.21,11.51-7.55,11.6-14.24.03-2.12-1.88-4.15-4.05-4.05s-4.02,1.78-4.05,4.05Z"/>
      <path class="cls-1" d="M158.45,190c0,.35-.01.7-.03,1.05-.01.17-.04.34-.04.52-.03.62.14-.66,0-.06-.16.72-.29,1.43-.51,2.13-.1.32-.23.63-.33.94.28-.84-.09.17-.2.39-.32.64-.7,1.23-1.09,1.83-.04.06-.35.51-.07.12.3-.42-.11.13-.19.23-.21.25-.43.49-.65.73-.49.51-1.01.99-1.57,1.43.63-.49-.13.07-.37.22-.28.18-.56.35-.84.51s-.58.31-.88.46c-.15.07-.3.14-.45.21.51-.23.27-.11-.11.02-.64.21-1.28.41-1.93.55-.15.03-1.11.19-.64.13.51-.07-.07,0-.14,0-.29.02-.58.04-.87.05-.7.02-1.39-.04-2.09-.07-.47-.02.17.03.23.04-.17-.03-.34-.06-.5-.09-.44-.08-.88-.19-1.31-.31-.32-.09-.64-.2-.95-.3-.16-.05-.31-.12-.47-.17.06.02.6.31.21.09-.67-.38-1.37-.68-2.02-1.1-.13-.08-.9-.61-.52-.34s-.36-.3-.48-.4c-.57-.51-1.1-1.05-1.6-1.63-.11-.12-.21-.25-.31-.38.04.05.35.55.14.17-.18-.33-.43-.63-.63-.96-.17-.28-.33-.57-.48-.86-.09-.17-.51-1.11-.35-.71.17.43-.16-.46-.2-.6-.12-.37-.23-.75-.33-1.13-.08-.33-.14-.66-.21-.99-.02-.08-.1-.64-.03-.14s-.01-.22-.02-.32c-.06-.75-.06-1.51-.01-2.27.02-.34.14-1.01,0-.29.07-.39.14-.78.23-1.16.17-.71.41-1.38.65-2.07-.22.66-.02.06.13-.24.19-.39.41-.78.63-1.15.17-.28.36-.55.53-.82.42-.64-.34.36.16-.22s1.01-1.13,1.58-1.65c.24-.22.49-.43.75-.63-.55.44-.03.04.24-.13.64-.43,1.31-.79,2-1.13s-.48.14.25-.1c.32-.11.63-.22.95-.31.38-.11.76-.21,1.14-.29.31-.07,1.25-.16.44-.1.7-.05,1.39-.11,2.09-.09.41,0,.81.06,1.21.07.47.02-.17-.03-.23-.04.22.04.45.07.67.12.83.17,1.6.49,2.41.7.43.11-.14-.07-.2-.09.2.09.4.18.6.28.34.17.68.35,1.01.55.37.22.72.51,1.1.71s-.11-.1-.17-.14c.17.14.34.27.5.42.58.5,1.12,1.04,1.61,1.61.14.16.28.33.42.5-.22-.27-.28-.39-.05-.03.21.32.42.64.62.97s.38.67.55,1.01c.1.2.19.4.28.6-.15-.32-.17-.45-.04-.05.25.75.48,1.49.64,2.26.05.22.08.45.12.67-.07-.36-.05-.5-.02-.06s.06.93.06,1.39c.02,2.12,1.85,4.15,4.05,4.05s4.08-1.78,4.05-4.05c-.09-8.35-5.33-15.6-13.13-18.46-7.41-2.72-16.33-.23-21.33,5.85-5.24,6.38-6.18,15.52-1.85,22.67,4.31,7.13,12.64,10.62,20.76,9.08,9.03-1.72,15.46-10.1,15.56-19.13.02-2.12-1.88-4.15-4.05-4.05s-4.02,1.78-4.05,4.05Z"/>
      <path class="cls-1" d="M112.45,208c0,.41-.02.81-.04,1.22-.01.17-.03.34-.04.51.01-.15.15-.83,0-.06s-.31,1.53-.55,2.28c-.06.2-.4,1.17-.25.76.16-.44-.28.59-.34.71-.35.68-.77,1.31-1.17,1.96-.09.14-.46.62.05-.04-.1.13-.2.26-.31.38-.25.29-.5.57-.76.85-.52.55-1.09,1.06-1.68,1.53.72-.56-.19.1-.37.22-.32.21-.64.41-.98.59-.29.16-.58.31-.87.45-.2.1-.4.19-.6.27.32-.14.46-.17.05-.04-.74.24-1.48.48-2.25.64-.17.03-.33.07-.5.1-.13.02-.85.1-.3.05.51-.05-.07,0-.14,0-.23.01-.46.03-.69.04-.82.03-1.61-.04-2.43-.08.8.04-.1-.02-.44-.09-.38-.08-.77-.17-1.14-.27s-.74-.23-1.11-.35c-.12-.04-.79-.28-.29-.09.46.17-.05-.02-.12-.06-.74-.35-1.46-.74-2.15-1.19-.12-.08-.9-.61-.52-.34.43.3-.13-.1-.23-.19-.12-.11-.25-.21-.37-.32-.61-.54-1.17-1.13-1.7-1.75-.11-.12-.21-.25-.31-.38.04.05.35.55.15.17-.18-.33-.43-.63-.63-.95s-.39-.66-.56-1c-.08-.15-.15-.29-.22-.44-.05-.1-.39-.95-.2-.42.17.45-.21-.63-.25-.76-.1-.32-.19-.64-.28-.96-.1-.38-.18-.77-.25-1.15-.03-.17-.06-.33-.08-.5.13.9.03.08.02-.12-.05-.75-.06-1.51-.01-2.26.01-.23.05-.46.06-.69,0,.05-.12.7-.03.23.08-.44.16-.89.26-1.32.17-.71.43-1.37.65-2.06-.27.84.08-.17.19-.39.19-.39.4-.77.63-1.15.2-.33.41-.64.62-.96.42-.64-.34.37.15-.22.53-.62,1.08-1.21,1.68-1.76.28-.25.57-.5.87-.74-.56.43-.03.04.23-.13.68-.46,1.4-.84,2.13-1.21.15-.07.3-.14.45-.2-.77.33-.21.09-.05.04.37-.11.73-.25,1.11-.36.32-.09.65-.17.97-.25.22-.05.44-.09.66-.13.1-.02.82-.1.3-.05s.07,0,.14,0c.23-.01.46-.03.69-.04.41-.02.81-.02,1.22,0,.34.01.69.06,1.04.06.62.01-.66-.13-.06-.02.22.04.45.07.67.12.87.17,1.7.56,2.57.73.42.08-.13-.07-.2-.1.25.11.5.23.74.35.39.19.77.4,1.15.63.33.2.64.41.96.62.62.4.09.04-.04-.05.17.13.34.27.5.41.66.56,1.27,1.18,1.84,1.84.14.16.28.33.41.5-.21-.27-.28-.39-.05-.04s.48.72.7,1.1.43.76.62,1.16c.07.15.13.3.21.45.26.53-.3-.88.03.1.26.8.51,1.59.67,2.41.04.22.08.44.12.67.11.59-.03-.66-.02-.06,0,.52.07,1.04.07,1.56.02,2.12,1.85,4.15,4.05,4.05s4.07-1.78,4.05-4.05c-.09-8.7-5.53-16.33-13.66-19.35s-17.23-.4-22.51,6.03-6.58,16.28-2.04,23.84,13.27,11.23,21.81,9.61c9.5-1.8,16.3-10.6,16.4-20.12.02-2.12-1.88-4.15-4.05-4.05s-4.03,1.78-4.05,4.05Z"/>
      <path class="cls-1" d="M180.45,229c0,.29-.02.58-.04.88-.03.83.04-.22.04-.22.13.19-.25,1.13-.32,1.37-.05.18-.14.66-.28.79.02-.02.45-.88.07-.21-.27.48-.54.95-.85,1.41-.48.73.47-.39.04-.07-.17.13-.31.35-.46.51-.13.13-.26.26-.39.38l-.2.18c-.34.28-.27.24.18-.12-.2.3-.85.58-1.15.75-.16.09-.33.17-.49.26-.68.39.8-.22-.18.08-.45.14-.89.28-1.35.38-.54.11-.41.35.09.01-.14.09-.55.05-.72.05-.49.02-.97-.02-1.46-.04-.61-.03,1,.21.08,0-.28-.06-.55-.12-.82-.2s-.53-.17-.8-.26c-.56-.18.06.13.2.09-.22.06-.99-.52-1.21-.66-.19-.12-.37-.28-.57-.39-.48-.27.7.66.07.04-.19-.19-1.16-.91-1.14-1.17,0,.13.45.66.13.17-.15-.23-.31-.45-.45-.69-.09-.16-.18-.32-.27-.48l-.13-.25c-.19-.4-.16-.33.07.21-.25-.24-.35-1-.43-1.33-.05-.18-.08-.37-.12-.55-.19-.81.05.87-.02-.2-.03-.44-.03-.88,0-1.32l.02-.29c.05-.46.03-.38-.04.22.06-.11.08-.41.11-.56.1-.46.25-.9.4-1.35.28-.89-.44.76.03-.05.14-.24.25-.49.4-.73.12-.2.25-.38.37-.58l.08-.11c.26-.35.21-.3-.13.17-.01-.19.8-.86.94-.99.07-.07.63-.7.22-.21-.39.46.13-.09.25-.17.25-.17,1.19-.9,1.44-.81,0,0-.96.34-.2.09.27-.09.53-.18.8-.26.18-.05.36-.1.55-.14.07-.02,1-.22.3-.08s.23,0,.32-.01c.24-.01.49-.02.73-.01s.49.03.73.03c.9.03-.74-.19.06.01.55.14,1.08.28,1.62.45.84.27-.51-.35-.07-.03.24.18.58.3.85.46.16.09.31.19.46.29.15.1.3.21.45.32-.46-.36-.52-.4-.18-.12.32.32.64.64.97.97.65.65-.46-.74.05.04.15.23.31.45.45.69s.26.49.4.73c.4.69-.23-.78.03.05.17.54.31,1.07.45,1.62.12.49.19.08-.02-.23.15.22.06.9.06,1.16.03,2.12,1.84,4.15,4.05,4.05s4.08-1.78,4.05-4.05c-.09-6.21-3.93-11.53-9.71-13.71-5.44-2.05-12.17-.26-15.86,4.23-3.91,4.77-4.72,11.51-1.5,16.9s9.39,7.91,15.46,6.82c6.74-1.21,11.51-7.55,11.6-14.24.03-2.12-1.88-4.15-4.05-4.05s-4.02,1.78-4.05,4.05Z"/>
    </g>
  </g>
</svg>