<?xml version="1.0" encoding="UTF-8"?>
<svg xmlns="http://www.w3.org/2000/svg" version="1.1" viewBox="0 0 280 280">
  <defs>
    <style>
      .cls-1 {
        fill: #fff;
      }

      .cls-2 {
        fill: #ffbf1f;
      }
    </style>
  </defs>
  <!-- Generator: Adobe Illustrator 28.7.2, SVG Export Plug-In . SVG Version: 1.2.0 Build 154)  -->
  <g>
    <g id="night">
      <path class="cls-1" d="M166.48,181.53h38.59c6.23,0,12.59.42,18.48-2.01,5.99-2.47,11.09-6.71,14.3-12.4,3.33-5.89,4.33-12.69,3.18-19.32-2.24-12.93-13.93-22.53-26.86-23.09-.86-.04-1.72-.02-2.58-.02l4.5,4.5c1.18-16.74-10.03-32.5-26.18-37-5.23-1.46-10.6-1.57-15.94-.74l5.54,3.14c-5.29-21.94-23.62-39.62-45.91-43.64-11.51-2.08-23.24-.79-34,3.8-9.92,4.23-18.38,11.3-24.62,20.06-7.03,9.86-10.99,22.4-10.56,34.54l3.3-4.34c-7.45,1.91-14.41,6.09-19.48,11.9-5.44,6.23-8.69,13.79-9.58,21.99-1.68,15.3,6.65,30.74,20.18,37.98,3.66,1.96,7.66,3.4,11.77,4.06,3.25.52,6.45.6,9.73.6,2.35,0,4.61-2.07,4.5-4.5s-1.98-4.5-4.5-4.5c-2.22,0-4.45.04-6.66-.19-.04,0-.5-.08-.51-.06.04-.08.9.14.18.02-.39-.07-.78-.13-1.17-.2-.83-.15-1.65-.34-2.47-.56s-1.61-.46-2.4-.73c-.37-.13-.73-.26-1.09-.4-.15-.06-.31-.13-.46-.18-.53-.16.78.36,0,0-1.45-.66-2.86-1.38-4.21-2.22-.7-.43-1.38-.88-2.04-1.36-.37-.26-.73-.55-.13-.08-.38-.3-.76-.61-1.14-.93-1.2-1.02-2.33-2.12-3.38-3.3-.51-.57-.99-1.15-1.46-1.75.74.93-.13-.2-.27-.4-.25-.36-.5-.72-.73-1.08-.87-1.33-1.64-2.72-2.31-4.15-.16-.34-.34-.7-.47-1.05.31.86.04.08-.1-.31-.29-.78-.56-1.57-.8-2.37-.47-1.58-.95-3.29-1.07-4.95.07.94.02.09-.02-.34s-.07-.8-.09-1.21c-.05-.88-.07-1.76-.06-2.64s.06-1.8.15-2.7c.03-.36.08-.71.12-1.07-.13,1.19.09-.47.14-.73.3-1.66.73-3.3,1.28-4.89.13-.38.27-.76.41-1.14s.51-1.17.13-.36c.39-.83.76-1.66,1.19-2.47.78-1.45,1.66-2.85,2.63-4.17.09-.12.54-.7.16-.22s.11-.12.17-.21c.32-.39.65-.78.99-1.16.6-.67,1.23-1.33,1.88-1.95s1.33-1.23,2.03-1.8c.17-.14.35-.28.53-.42-.45.36-.38.29.04-.01.37-.27.74-.53,1.11-.78,1.56-1.05,3.2-1.97,4.91-2.75.21-.1.42-.18.63-.28-.31.14-.62.25-.12.06.43-.17.86-.33,1.29-.48.98-.35,1.98-.64,3-.9,1.85-.48,3.37-2.4,3.3-4.34-.09-2.61.1-5.21.39-7.8.08-.72-.18,1.12,0,0,.05-.34.1-.68.16-1.01.09-.56.2-1.12.31-1.68.27-1.33.58-2.64.95-3.94.3-1.08.64-2.14,1.01-3.2.22-.63.45-1.25.7-1.88.08-.21.17-.41.25-.62.19-.46.17-.41-.07.16.09-.2.18-.41.26-.61.98-2.21,2.11-4.36,3.38-6.42.6-.98,1.24-1.94,1.9-2.87.35-.49.71-.97,1.07-1.45-.63.85-.17.21,0,0,.24-.3.48-.6.72-.89,1.53-1.85,3.18-3.59,4.94-5.22.88-.81,1.79-1.6,2.72-2.35.17-.14.34-.27.51-.41.88-.7-.78.57.13-.09.53-.39,1.06-.78,1.59-1.15,1.98-1.38,4.06-2.62,6.2-3.72,1.07-.55,2.17-1.13,3.3-1.55-1.16.43.49-.19.77-.3.67-.26,1.35-.51,2.04-.74,2.39-.81,4.85-1.45,7.33-1.92.56-.1,1.12-.2,1.68-.29.22-.03,1.37-.26.16-.03.22-.04.46-.06.68-.08,1.38-.16,2.76-.27,4.15-.32,2.63-.1,5.26-.01,7.87.26.3.03.59.07.89.1.73.08-1.11-.18.04,0,.64.1,1.28.2,1.92.32,1.32.24,2.64.54,3.94.88,1.23.32,2.45.69,3.66,1.1.54.19,1.09.38,1.63.58.32.12.64.25.96.37.24.09,1.21.52.2.07,2.3,1.01,4.53,2.14,6.68,3.44,1.06.65,2.11,1.33,3.12,2.05.46.33.91.66,1.37,1,.93.69-.73-.6.16.13.26.21.53.42.79.64,2.17,1.8,4.21,3.76,6.08,5.88.45.51.89,1.02,1.32,1.55.21.26.42.53.64.79.57.71-.47-.64.22.3.84,1.14,1.64,2.3,2.4,3.5s1.41,2.34,2.04,3.54c.35.66.68,1.32.99,1.99.12.26.24.52.36.78.09.2.69,1.61.23.5,1.1,2.67,2,5.42,2.68,8.23.62,2.56,3.19,3.51,5.54,3.14.92-.14.37-.06.17-.03.31-.04.61-.07.92-.09.54-.05,1.08-.08,1.62-.1,1.03-.04,2.06-.03,3.09.04.4.02.81.06,1.21.1.09,0,.68.09.68.08-.01.03-1.13-.18-.18-.02.84.14,1.67.29,2.5.49s1.62.42,2.42.68c.37.12.74.25,1.1.38.21.08.41.16.62.24.53.2.52.13,0-.01,1.5.42,3.05,1.49,4.35,2.32.69.44,1.34.94,2.01,1.4.51.35-.59-.53-.14-.1.12.11.26.21.38.31.38.31.75.63,1.11.96,1.26,1.14,2.35,2.4,3.45,3.69-.57-.66-.08-.1.18.26.22.31.44.62.65.94.49.73.94,1.47,1.37,2.24.4.72.76,1.46,1.11,2.21.07.14.16.3.2.45-.25-.92-.16-.4-.07-.16.16.42.32.83.47,1.25.65,1.87,1.08,3.77,1.41,5.72.09.53-.06-.34-.05-.35-.02,0,.08.76.09.86.05.52.08,1.04.11,1.56.06,1.26.02,2.51-.07,3.77-.17,2.43,2.2,4.5,4.5,4.5.74,0,1.49-.01,2.23.01.62.02,1.47-.05,2.07.15-1.07-.36-.15-.02.15.03.44.08.89.17,1.32.27.65.15,1.3.33,1.93.54.32.1.63.21.94.33.22.08,1.28.39.15.04,1.3.4,2.61,1.29,3.73,2.04.27.18.53.38.8.56.87.6-.49-.47,0-.01.43.41.92.76,1.35,1.17.47.44.93.91,1.37,1.39.22.24.43.49.64.73.14.17.28.33.41.5-.37-.48-.41-.53-.11-.13.74,1.08,1.45,2.17,2.04,3.34.15.29.28.59.42.89.49,1.01-.32-.92.06.14.26.73.52,1.46.73,2.21.18.65.33,1.3.46,1.96.06.33.15.67.17,1-.07-1.23-.02-.06,0,.16.12,1.38.12,2.78,0,4.16-.02.23-.06,1.39,0,.16-.02.33-.11.68-.17,1-.12.66-.28,1.32-.46,1.96s-.38,1.28-.61,1.9c-.08.22-.39,1.28-.04.15-.12.41-.37.81-.56,1.19-.59,1.18-1.3,2.26-2.04,3.34-.63.91.63-.72-.09.12-.21.25-.42.5-.63.74-.43.49-.88.96-1.35,1.41s-.97.87-1.46,1.29c-.84.72.79-.54-.12.09-.27.18-.53.38-.8.56-1.12.75-2.43,1.64-3.73,2.04,1.12-.35.07-.04-.15.04-.31.12-.63.22-.94.33-.64.21-1.28.38-1.93.54s-1.33.34-2,.37c1.23-.07.06-.02-.16,0-.46.04-.92.07-1.38.08-.51.01-1.01.01-1.52.01h-45.83c-2.35,0-4.61,2.07-4.5,4.5s1.98,4.5,4.5,4.5h0Z"/>
      <path class="cls-2" d="M108.78,140.49c-4.87,10.03-9.75,20.06-14.62,30.09-.68,1.4-1.36,2.79-2.04,4.19-1.46,3,.28,6.77,3.89,6.77h25.69l-3.89-6.77c-2.66,5.47-5.32,10.95-7.98,16.42-4.24,8.71-8.47,17.43-12.71,26.14-.97,1.99-1.93,3.98-2.9,5.97-1.03,2.11-.65,4.96,1.61,6.16,2.02,1.07,5.06.65,6.16-1.61,2.66-5.47,5.32-10.95,7.98-16.42,4.24-8.71,8.47-17.43,12.71-26.14.97-1.99,1.93-3.98,2.9-5.97,1.46-3-.28-6.77-3.89-6.77h-25.69l3.89,6.77c4.87-10.03,9.75-20.06,14.62-30.09.68-1.4,1.36-2.79,2.04-4.19,1.03-2.11.65-4.96-1.61-6.16-2.02-1.07-5.06-.65-6.16,1.61h0Z"/>
      <path class="cls-2" d="M143.33,137.1c-3.82,7.85-7.63,15.7-11.45,23.56-.55,1.13-1.1,2.27-1.65,3.4-1.46,3,.28,6.77,3.89,6.77h20.21l-3.89-6.77c-5.42,11.15-10.84,22.3-16.26,33.46l-2.29,4.71c-1.03,2.11-.65,4.96,1.61,6.16,2.02,1.07,5.06.65,6.16-1.61,5.42-11.15,10.84-22.3,16.26-33.46l2.29-4.71c1.46-3-.28-6.77-3.89-6.77h-20.21l3.89,6.77c3.82-7.85,7.63-15.7,11.45-23.56.55-1.13,1.1-2.27,1.65-3.4,1.03-2.11.65-4.96-1.61-6.16-2.02-1.07-5.06-.65-6.16,1.61h0Z"/>
    </g>
  </g>
</svg>