<?xml version="1.0" encoding="UTF-8"?>
<svg xmlns="http://www.w3.org/2000/svg" version="1.1" viewBox="0 0 280 280">
  <defs>
    <style>
      .cls-1 {
        fill: #fff;
      }

      .cls-2 {
        fill: #22d5ff;
      }

      .cls-3 {
        fill: #ffbf1f;
      }
    </style>
  </defs>
  <!-- Generator: Adobe Illustrator 28.7.2, SVG Export Plug-In . SVG Version: 1.2.0 Build 154)  -->
  <g>
    <g id="night">
      <path class="cls-1" d="M194.79,181.29h12.72c1.71,0,3.43,0,5.14,0,4.15-.02,8.1-.93,11.88-2.59,7.7-3.39,13.64-10.58,15.71-18.71,2.26-8.85.07-18.07-5.58-25.16-2.88-3.61-6.73-6.36-10.97-8.15-4.01-1.69-8.17-2.24-12.5-2.24l4.5,4.5c1.18-16.74-10.03-32.5-26.18-37-5.23-1.46-10.6-1.57-15.94-.74l5.54,3.14c-5.29-21.94-23.62-39.62-45.91-43.64-11.51-2.08-23.24-.79-34,3.8-9.92,4.23-18.38,11.3-24.62,20.06-7.03,9.86-10.99,22.4-10.56,34.54l3.3-4.34c-7.51,1.93-14.51,6.15-19.59,12.02-5.41,6.25-8.63,13.83-9.49,22.04-1.6,15.3,6.79,30.7,20.35,37.88,3.73,1.97,7.78,3.41,11.96,4.04,3.22.49,6.39.55,9.64.55,2.35,0,4.61-2.07,4.5-4.5s-1.98-4.5-4.5-4.5c-2.19,0-4.39.05-6.57-.16-.23-.02-.46-.05-.68-.07-.53-.04.33.03.35.05-.16-.15-1.11-.17-1.34-.22-.83-.15-1.66-.33-2.47-.54-.76-.2-1.5-.42-2.24-.66-.37-.12-.73-.25-1.1-.39-.21-.08-.41-.16-.62-.24-.52-.19-.13-.03.16.08-1.52-.55-3-1.42-4.38-2.26-.65-.4-1.29-.82-1.91-1.26-.18-.12-1.07-.76-.6-.42.51.36-.07-.05-.19-.15-.17-.14-.34-.27-.5-.41-1.25-1.04-2.43-2.18-3.52-3.39-.51-.57-.98-1.16-1.47-1.74-.4-.48.45.65.11.13-.09-.14-.19-.26-.29-.39-.25-.35-.5-.71-.74-1.07-.91-1.37-1.72-2.8-2.42-4.28-.17-.35-.31-.7-.48-1.05-.27-.57.27.76.07.16-.05-.16-.12-.31-.18-.46-.32-.83-.6-1.67-.86-2.52-.47-1.57-.79-3.16-1.05-4.78-.09-.53.06.34.05.35.01,0-.07-.59-.08-.68-.04-.4-.07-.8-.1-1.2-.06-.88-.08-1.75-.07-2.63s.05-1.81.13-2.71c.04-.42.09-.83.13-1.24-.11,1.01.04-.16.11-.56.31-1.72.75-3.42,1.31-5.07.13-.38.27-.76.41-1.14.14-.36.51-1.19.13-.36.35-.78.71-1.56,1.11-2.31.8-1.51,1.7-2.95,2.71-4.32.1-.14.2-.27.3-.41-.61.83-.11.15.03-.02.29-.35.58-.7.88-1.03.63-.72,1.3-1.41,1.99-2.08.65-.63,1.33-1.23,2.03-1.8.17-.14.35-.28.53-.42-.26.21-.53.39-.1.09s.83-.6,1.25-.88c1.56-1.05,3.2-1.97,4.91-2.75.21-.1.42-.18.63-.28-.31.14-.62.25-.12.06.43-.16.86-.33,1.29-.48.98-.35,1.98-.64,3-.9,1.85-.48,3.37-2.4,3.3-4.34-.09-2.61.1-5.21.39-7.8.08-.72-.18,1.12,0,0,.05-.34.1-.68.16-1.01.09-.56.2-1.12.31-1.68.27-1.33.58-2.64.95-3.94.3-1.08.64-2.14,1.01-3.2.22-.63.45-1.25.7-1.88.08-.21.17-.41.25-.62.19-.46.17-.41-.07.16.09-.2.18-.41.26-.61.98-2.21,2.11-4.36,3.38-6.42.6-.98,1.24-1.94,1.9-2.87.35-.49.71-.97,1.07-1.45-.63.85-.17.21,0,0,.24-.3.48-.6.72-.89,1.53-1.85,3.18-3.59,4.94-5.22.88-.81,1.79-1.6,2.72-2.35.17-.14.34-.27.51-.41.88-.7-.78.57.13-.09.53-.39,1.06-.78,1.59-1.15,1.98-1.38,4.06-2.62,6.2-3.72,1.07-.55,2.17-1.13,3.3-1.55-1.16.43.49-.19.77-.3.67-.26,1.35-.51,2.04-.74,2.39-.81,4.85-1.45,7.33-1.92.56-.1,1.12-.2,1.68-.29.22-.03,1.37-.26.16-.03.22-.04.46-.06.68-.08,1.38-.16,2.76-.27,4.15-.32,2.63-.1,5.26-.01,7.87.26.3.03.59.07.89.1.73.08-1.11-.18.04,0,.64.1,1.28.2,1.92.32,1.32.24,2.64.54,3.94.88,1.23.32,2.45.69,3.66,1.1.54.19,1.09.38,1.63.58.32.12.64.25.96.37.24.09,1.21.52.2.07,2.3,1.01,4.53,2.14,6.68,3.44,1.06.65,2.11,1.33,3.12,2.05.46.33.91.66,1.37,1,.93.69-.73-.6.16.13.26.21.53.42.79.64,2.17,1.8,4.21,3.76,6.08,5.88.45.51.89,1.02,1.32,1.55.21.26.42.53.64.79.57.71-.47-.64.22.3.84,1.14,1.64,2.3,2.4,3.5s1.41,2.34,2.04,3.54c.35.66.68,1.32.99,1.99.12.26.24.52.36.78.09.2.69,1.61.23.5,1.1,2.67,2,5.42,2.68,8.23.62,2.56,3.19,3.51,5.54,3.14.92-.14.37-.06.17-.03.31-.04.61-.07.92-.09.54-.05,1.08-.08,1.62-.1,1.03-.04,2.06-.03,3.09.04.4.02.81.06,1.21.1.09,0,.68.09.68.08-.01.03-1.13-.18-.18-.02.84.14,1.67.29,2.5.49s1.62.42,2.42.68c.37.12.74.25,1.1.38.21.08.41.16.62.24.53.2.52.13,0-.01,1.5.42,3.05,1.49,4.35,2.32.69.44,1.34.94,2.01,1.4.51.35-.59-.53-.14-.1.12.11.26.21.38.31.38.31.75.63,1.11.96,1.26,1.14,2.35,2.4,3.45,3.69-.57-.66-.08-.1.18.26.22.31.44.62.65.94.49.73.94,1.47,1.37,2.24.4.72.76,1.46,1.11,2.21.07.14.16.3.2.45-.25-.92-.16-.4-.07-.16.16.42.32.83.47,1.25.65,1.87,1.08,3.77,1.41,5.72.09.53-.06-.34-.05-.35-.02,0,.08.76.09.86.05.52.08,1.04.11,1.56.06,1.26.02,2.51-.07,3.77-.17,2.43,2.2,4.5,4.5,4.5,1.26,0,2.52-.01,3.78.11.04,0,.5.07.51.05-.04.08-.9-.15-.18-.02.44.08.89.15,1.33.25.93.2,1.84.46,2.73.77.21.07.42.15.62.23.15.05.82.31.23.08s.5.24.66.31c.88.43,1.74.91,2.56,1.45.32.21.63.43.94.64.91.64-.47-.43.38.29.7.6,1.38,1.21,2.02,1.88.3.31.59.63.88.96.14.16.82,1.02.47.55-.38-.5.42.6.51.73.27.41.54.82.79,1.24.45.76.83,1.54,1.21,2.33.13.27.42.58-.06-.16.1.16.18.46.24.62.15.42.3.84.43,1.26.26.86.48,1.73.64,2.61.04.22.08.45.12.67.06.33.27.63-.02-.18.16.43.1,1.09.13,1.55.04.87.04,1.74,0,2.61-.02.41.02.99-.12,1.37.3-.81.08-.51.02-.18-.05.28-.09.56-.15.83-.17.88-.39,1.75-.66,2.6-.12.37-.24.74-.38,1.1-.06.16-.14.46-.24.62.58-.88.05-.14-.07.13-.35.74-.73,1.47-1.16,2.17-.22.37-.46.74-.7,1.1-.15.22-1.12,1.44-.36.53-1.13,1.34-2.31,2.56-3.65,3.7-.61.52.03-.02.14-.1-.18.13-.35.26-.53.38-.35.25-.72.49-1.08.72-.74.47-1.5.89-2.29,1.27-.2.1-.4.19-.6.28-.75.36.07,0,.16-.06-.33.23-.87.33-1.24.46-.9.3-1.81.55-2.74.75-.44.09-.89.16-1.33.24-.53.09.34-.06.35-.05,0-.01-.6.06-.68.07-.7.06-1.41.08-2.11.09-1.47,0-2.93,0-4.4,0h-13.5c-2.35,0-4.61,2.07-4.5,4.5s1.98,4.5,4.5,4.5h0Z"/>
      <path class="cls-2" d="M153.37,201.27c-.44-2.25-1.27-4.44-2.07-6.59-1.15-3.08-2.42-6.11-3.7-9.14-1.47-3.48-2.99-6.94-4.57-10.38-1.36-2.94-6.41-2.94-7.77,0-3.25,7.06-6.45,14.23-9.02,21.58-.58,1.67-1.16,3.36-1.42,5.11-.53,3.54-.07,6.92,1.44,10.17,2.95,6.33,10.55,9.58,17.19,7.45,7.73-2.48,11.26-10.59,9.92-18.21-.41-2.32-3.38-3.84-5.54-3.14-2.5.81-3.58,3.05-3.14,5.54.18,1.04-.04-1.07,0-.02.01.3.04.6.04.9,0,.13-.1,1.48-.07,1.49-.11-.04.2-1.09-.03-.02-.06.29-.13.58-.22.87s-.19.57-.28.85c-.27.84.45-.81-.01.02-.09.16-.74,1.56-.9,1.52.04,0,.69-.76.06-.1-.17.18-.33.36-.5.54-.07.07-.56.61-.66.59l.44-.34c-.16.12-.33.23-.5.33-.21.13-.44.24-.66.37-.96.57.64-.13-.2.09-.31.08-.61.19-.92.26l-.32.07c-.5.09-.43.08.21-.02-.38.24-1.31.02-1.74.03-1.11,0,.91.26-.13,0-.31-.08-.63-.14-.94-.23-.1-.03-.57-.14-.59-.2.6.26.67.29.23.09-.18-.09-.36-.18-.53-.29-.08-.05-.75-.39-.75-.49,0,.12.72.67.1.05-.19-.19-1.14-.9-1.11-1.18l.35.44c-.11-.16-.22-.32-.33-.49-.11-.17-.21-.34-.3-.51-.04-.06-.44-.75-.4-.79.25.62.29.71.11.25-.07-.19-.13-.37-.19-.56-.15-.48-.25-.96-.36-1.45-.24-1.01.04,1.05,0,.01-.01-.3-.04-.6-.04-.9,0-.08.11-1.47.07-1.49.17.08-.22,1.08,0,.17.05-.21.09-.42.14-.63.4-1.64.96-3.24,1.54-4.82.7-1.92,1.45-3.82,2.22-5.72.22-.54.44-1.07.66-1.61.11-.27.22-.53.33-.8.3-.72-.08.2-.12.28.46-1,.87-2.04,1.31-3.05,1.08-2.5,2.18-4.98,3.32-7.46h-7.77c1.54,3.35,3.02,6.72,4.46,10.12.45,1.05-.31-.73.05.11.15.36.3.71.45,1.07.3.71.59,1.43.88,2.15.54,1.34,1.07,2.69,1.58,4.05.78,2.1,1.6,4.25,2.03,6.46s3.34,3.85,5.54,3.14c2.46-.8,3.63-3.06,3.14-5.54Z"/>
      <path class="cls-2" d="M185,179.52c-.44-2.25-1.27-4.44-2.07-6.59-1.15-3.08-2.42-6.11-3.7-9.14-1.47-3.48-2.99-6.94-4.57-10.38-1.36-2.94-6.41-2.94-7.77,0-3.25,7.06-6.45,14.23-9.02,21.58-.58,1.67-1.16,3.36-1.42,5.11-.53,3.54-.07,6.92,1.44,10.17,2.95,6.33,10.55,9.58,17.19,7.45,7.73-2.48,11.26-10.59,9.92-18.21-.41-2.32-3.38-3.84-5.54-3.14-2.5.81-3.58,3.05-3.14,5.54.18,1.04-.04-1.07,0-.02.01.3.04.6.04.9,0,.13-.1,1.48-.07,1.49-.11-.04.2-1.09-.03-.02-.06.29-.13.58-.22.87s-.19.57-.28.85c-.27.84.45-.81-.01.02-.09.16-.74,1.56-.9,1.52.04,0,.69-.76.06-.1-.17.18-.33.36-.5.54-.07.07-.56.61-.66.59l.44-.34c-.16.12-.33.23-.5.33-.21.13-.44.24-.66.37-.96.57.64-.13-.2.09-.31.08-.61.19-.92.26l-.32.07c-.5.09-.43.08.21-.02-.38.24-1.31.02-1.74.03-1.11,0,.91.26-.13,0-.31-.08-.63-.14-.94-.23-.1-.03-.57-.14-.59-.2.6.26.67.29.23.09-.18-.09-.36-.18-.53-.29-.08-.05-.75-.39-.75-.49,0,.12.72.67.1.05-.19-.19-1.14-.9-1.11-1.18l.35.44c-.11-.16-.22-.32-.33-.49-.11-.17-.21-.34-.3-.51-.04-.06-.44-.75-.4-.79.25.62.29.71.11.25-.07-.19-.13-.37-.19-.56-.15-.48-.25-.96-.36-1.45-.24-1.01.04,1.05,0,.01-.01-.3-.04-.6-.04-.9,0-.08.11-1.47.07-1.49.17.08-.22,1.08,0,.17.05-.21.09-.42.14-.63.4-1.64.96-3.24,1.54-4.82.7-1.92,1.45-3.82,2.22-5.72.22-.54.44-1.07.66-1.61.11-.27.22-.53.33-.8.3-.72-.08.2-.12.28.46-1,.87-2.04,1.31-3.05,1.08-2.5,2.18-4.98,3.32-7.46h-7.77c1.54,3.35,3.02,6.72,4.46,10.12.45,1.05-.31-.73.05.11.15.36.3.71.45,1.07.3.71.59,1.43.88,2.15.54,1.34,1.07,2.69,1.58,4.05.78,2.1,1.6,4.25,2.03,6.46s3.34,3.85,5.54,3.14c2.46-.8,3.63-3.06,3.14-5.54Z"/>
      <path class="cls-3" d="M106.17,140.24c-4.87,10.03-9.75,20.06-14.62,30.09-.68,1.4-1.36,2.79-2.04,4.19-1.46,3,.28,6.77,3.89,6.77h25.69l-3.89-6.77c-2.66,5.47-5.32,10.95-7.98,16.42l-12.71,26.14c-.97,1.99-1.93,3.98-2.9,5.97-1.03,2.11-.65,4.96,1.61,6.16,2.02,1.07,5.06.65,6.16-1.61,2.66-5.47,5.32-10.95,7.98-16.42l12.71-26.14c.97-1.99,1.93-3.98,2.9-5.97,1.46-3-.28-6.77-3.89-6.77h-25.69l3.89,6.77c4.87-10.03,9.75-20.06,14.62-30.09.68-1.4,1.36-2.79,2.04-4.19,1.03-2.11.65-4.96-1.61-6.16-2.02-1.07-5.06-.65-6.16,1.61h0Z"/>
    </g>
  </g>
</svg>