<?xml version="1.0" encoding="UTF-8"?>
<svg xmlns="http://www.w3.org/2000/svg" version="1.1" viewBox="0 0 280 280">
  <defs>
    <style>
      .cls-1 {
        fill: #fff;
      }

      .cls-2 {
        fill: #ffbf1f;
      }
    </style>
  </defs>
  <!-- Generator: Adobe Illustrator 28.7.2, SVG Export Plug-In . SVG Version: 1.2.0 Build 154)  -->
  <g>
    <g id="night">
      <path class="cls-2" d="M215.54,140c-.04-15.47-4.8-30.9-13.8-43.51-9-12.61-21.52-22.2-36.07-27.54s-31.2-5.91-46.24-1.66-27.85,12.71-37.47,24.38c-10.02,12.17-16.05,27-17.28,42.72-1.21,15.47,2.58,31.3,10.6,44.58,7.78,12.87,19.48,23.46,33.2,29.67,14.67,6.64,31.02,8.52,46.83,5.33,14.87-3,28.78-10.77,39.25-21.73,10.51-11.01,17.72-25.23,20.01-40.3.6-3.96.96-7.94.97-11.94,0-2.35-2.07-4.61-4.5-4.5s-4.49,1.98-4.5,4.5c0,1.87-.07,3.74-.22,5.6-.07.92-.16,1.84-.27,2.76-.02.17-.04.34-.06.51-.07.66.12-.83.03-.17-.07.51-.15,1.02-.23,1.53-.58,3.57-1.43,7.09-2.54,10.52-.55,1.7-1.18,3.36-1.84,5.02-.08.21-.29.8.07-.15-.08.21-.18.41-.26.61-.16.35-.31.71-.48,1.06-.39.85-.8,1.7-1.22,2.54-1.59,3.13-3.41,6.15-5.45,9.02-.48.67-.97,1.32-1.46,1.98-.37.5.51-.61.1-.13-.11.12-.2.26-.31.39-.34.43-.69.85-1.04,1.27-1.12,1.34-2.29,2.64-3.51,3.9s-2.48,2.47-3.78,3.63c-.61.55-1.23,1.08-1.86,1.6-.29.24-.59.49-.89.73-.17.14-.34.27-.51.41-.84.68.51-.38,0,0-2.83,2.09-5.72,4.05-8.81,5.75-1.55.85-3.12,1.65-4.73,2.38-.4.18-.81.36-1.21.54-.15.07-.3.14-.46.2.96-.35.37-.15.15-.07-.88.35-1.75.7-2.64,1.02-3.38,1.23-6.85,2.2-10.38,2.9-.84.17-1.68.32-2.52.45-.45.07-.9.14-1.36.21-.25.04-.83.2.17-.02-.28.06-.57.07-.86.1-1.78.2-3.58.34-5.37.41-3.73.15-7.47,0-11.17-.43-.22-.03-.47-.04-.68-.08,1.01.22.42.06.17.02-.45-.07-.9-.13-1.36-.21-.9-.15-1.79-.31-2.69-.49-1.77-.36-3.53-.78-5.26-1.27s-3.42-1.04-5.1-1.66c-.83-.31-1.66-.64-2.49-.97-.21-.08-.8-.28.15.07-.15-.06-.31-.13-.46-.2-.46-.2-.91-.4-1.36-.61-3.2-1.47-6.29-3.19-9.23-5.12-1.46-.96-2.89-1.98-4.28-3.04.8.61-.1-.08-.38-.31-.3-.24-.59-.48-.89-.73-.71-.59-1.42-1.2-2.11-1.82-2.6-2.34-5.02-4.87-7.25-7.56-.24-.29-.49-.59-.72-.89-.14-.17-.27-.35-.41-.51-.4-.48.48.64.1.13-.55-.75-1.11-1.49-1.65-2.25-1.01-1.43-1.97-2.91-2.87-4.41s-1.75-3.06-2.54-4.63c-.37-.74-.73-1.49-1.07-2.24-.16-.35-.32-.71-.48-1.06-.09-.2-.19-.4-.26-.61.38,1.01.09.22,0,0-1.33-3.33-2.45-6.73-3.28-10.21-.42-1.77-.78-3.55-1.06-5.34-.07-.45-.14-.9-.2-1.36-.08-.54.05.34.05.34,0,0-.07-.6-.08-.68-.11-.97-.21-1.95-.28-2.93-.28-3.73-.27-7.48.03-11.2.07-.86.15-1.72.25-2.58.03-.22.04-.47.08-.68-.03.13-.15,1.01-.02.17.07-.51.15-1.02.23-1.53.29-1.79.66-3.57,1.09-5.33.84-3.43,1.95-6.77,3.27-10.04.31-.76-.02.03-.07.15.08-.21.18-.41.26-.61.18-.41.36-.81.54-1.21.37-.8.75-1.6,1.15-2.39.8-1.57,1.65-3.11,2.56-4.62s1.87-2.97,2.89-4.4c.51-.71,1.03-1.42,1.56-2.11-.55.72-.04.06.21-.25.31-.38.62-.76.93-1.14,2.24-2.68,4.68-5.2,7.29-7.52.61-.55,1.23-1.08,1.86-1.6.34-.28.67-.56,1.02-.83.17-.14.35-.27.51-.41.43-.35-.68.51,0,0,1.4-1.05,2.83-2.07,4.3-3.02,2.95-1.92,6.05-3.62,9.26-5.08.35-.16.71-.32,1.06-.47.14-.06.81-.34.23-.1s.09-.03.23-.09c.88-.35,1.76-.7,2.65-1.02,1.68-.61,3.39-1.15,5.11-1.63s3.5-.9,5.27-1.25c.84-.16,1.68-.31,2.52-.45.4-.06.79-.12,1.19-.18.96-.14-.17.04-.17.02,0,.01.76-.09.86-.1,3.71-.43,7.45-.56,11.18-.4,1.85.08,3.7.22,5.54.45,1.17.14-.66-.1.51.06.4.06.79.12,1.19.18.95.15,1.91.33,2.85.52,3.52.72,6.99,1.71,10.36,2.95.78.29,1.56.6,2.33.91s-.03-.02-.15-.07c.21.08.41.18.61.26.46.2.91.4,1.36.61,1.6.74,3.17,1.54,4.71,2.4,3.02,1.68,5.9,3.6,8.65,5.69-.91-.69.15.12.38.31.34.27.68.55,1.01.83.67.56,1.33,1.13,1.98,1.72,1.3,1.17,2.55,2.38,3.76,3.65s2.37,2.57,3.49,3.91c.28.34.55.68.83,1.02.14.17.27.34.41.51-.08-.1-.59-.78-.1-.13.53.7,1.05,1.4,1.55,2.12,2.02,2.87,3.83,5.9,5.41,9.04.4.79.78,1.59,1.14,2.39.16.35.32.71.47,1.06.06.14.34.81.1.23-.26-.63.1.26.16.38.67,1.65,1.28,3.33,1.82,5.03,1.1,3.44,1.93,6.97,2.49,10.54.04.25.03,1.19.2,1.36-.02-.01-.11-.87-.05-.34.02.23.06.46.08.68.1.86.18,1.72.25,2.59.15,1.86.21,3.73.22,5.6,0,2.35,2.07,4.61,4.5,4.5s4.51-1.98,4.5-4.5Z"/>
      <path class="cls-2" d="M110.95,140c0-56.89,61.69-59.1,29.05-59.1s-59.1,26.46-59.1,59.1,26.46,59.1,59.1,59.1-29.05-2.21-29.05-59.1Z"/>
      <circle class="cls-2" cx="167.97" cy="100.8" r="5.58"/>
      <circle class="cls-2" cx="180.67" cy="126.2" r="11.93" transform="translate(-5.06 244.83) rotate(-67.5)"/>
      <circle class="cls-2" cx="133.92" cy="132.36" r="6.73"/>
      <circle class="cls-2" cx="154.89" cy="174.69" r="9.04"/>
      <circle class="cls-1" cx="113.14" cy="157.37" r="7.7" transform="translate(-78.14 126.09) rotate(-45)"/>
      <circle class="cls-1" cx="99.93" cy="130.33" r="4.13"/>
      <circle class="cls-1" cx="104.72" cy="176.88" r="4.13"/>
      <circle class="cls-1" cx="126.75" cy="97.53" r="7.76" transform="translate(-19.02 31.73) rotate(-13.28)"/>
      <circle class="cls-2" cx="177.02" cy="158.14" r="4.04"/>
    </g>
  </g>
</svg>