<?xml version="1.0" encoding="UTF-8"?>
<svg xmlns="http://www.w3.org/2000/svg" version="1.1" viewBox="0 0 280 280">
  <defs>
    <style>
      .cls-1 {
        fill: #fff;
      }

      .cls-2 {
        fill: #ffbf1f;
      }

      .cls-3 {
        display: none;
      }
    </style>
  </defs>
  <!-- Generator: Adobe Illustrator 28.7.2, SVG Export Plug-In . SVG Version: 1.2.0 Build 154)  -->
  <g>
    <g id="Livello_1">
      <g id="Livello_1-2" data-name="Livello_1">
        <g id="cloudy" class="cls-3">
          <path class="cls-1" d="M212.7,205.52c12.41-.09,23.54-8.29,27.2-20.17,3.67-11.91-1.23-24.87-11.39-31.85-5.16-3.55-11.17-4.81-17.34-4.81l4.5,4.5c1.18-16.74-10.03-32.5-26.18-37-5.23-1.46-10.6-1.57-15.94-.74l5.54,3.14c-5.29-21.94-23.62-39.62-45.91-43.64-11.51-2.08-23.24-.79-34,3.8-9.92,4.23-18.38,11.3-24.62,20.06-7.03,9.86-10.99,22.4-10.56,34.54l3.3-4.34c-13.3,3.42-24.11,13.92-27.83,27.16s-.03,27.55,9.37,37.41c7.37,7.72,17.73,11.95,28.37,11.96h125.41c3.21,0,6.43.04,9.65,0h.44c2.35,0,4.61-2.07,4.5-4.5s-1.98-4.5-4.5-4.5H76.19c-.75-.02-1.5-.05-2.25-.12-.05,0-1.18-.16-1.2-.12,0,0,.88.13.35.05-.22-.04-.45-.07-.67-.1-1.5-.25-2.97-.6-4.42-1.04-.69-.21-1.37-.45-2.05-.7-.15-.06-1.12-.42-.54-.2s-.08-.03-.22-.1c-.2-.09-.4-.18-.6-.27-1.34-.63-2.63-1.34-3.88-2.14-.55-.35-1.09-.72-1.62-1.1-.18-.13-.35-.26-.53-.39.02,0,.65.53.26.21-.29-.24-.59-.48-.88-.72-1.12-.94-2.18-1.96-3.17-3.04-.48-.52-.94-1.05-1.38-1.6-.29-.35-.53-.74-.1-.12-.25-.36-.52-.7-.76-1.06-.84-1.21-1.6-2.48-2.28-3.79-.33-.63-.63-1.28-.92-1.93-.36-.79.25.67-.06-.15-.15-.41-.32-.83-.46-1.24-.48-1.37-.87-2.77-1.17-4.19-.15-.72-.27-1.45-.39-2.17-.09-.53.06.34.05.35,0,0-.07-.59-.08-.68-.04-.4-.07-.8-.1-1.2-.1-1.6-.1-3.2.02-4.8.03-.36.06-.71.09-1.07.02-.24.06-.47.08-.71,0,.03-.13.84-.04.32.15-.81.28-1.62.46-2.42.35-1.53.8-3.03,1.35-4.49.12-.32.25-.64.38-.96-.29.73-.08.2.1-.18.33-.73.69-1.44,1.08-2.14.73-1.34,1.56-2.64,2.47-3.87.1-.14.2-.27.3-.41-.09.12-.59.74-.08.11.22-.26.43-.52.65-.78.51-.6,1.05-1.18,1.6-1.75.51-.52,1.05-1.03,1.59-1.52.25-.23.51-.45.77-.67.13-.11.26-.22.39-.33.02-.02.87-.68.34-.28-.46.35.37-.26.5-.36.32-.23.65-.46.98-.68.66-.44,1.34-.86,2.03-1.25.59-.34,1.2-.66,1.81-.96.36-.18.72-.35,1.09-.51.16-.07.31-.14.47-.21-.03,0-.76.3-.28.12,1.47-.55,2.93-1.06,4.45-1.45,1.85-.48,3.37-2.4,3.3-4.34-.09-2.61.1-5.21.39-7.8.08-.72-.18,1.12,0,0,.05-.34.1-.68.16-1.01.09-.56.2-1.12.31-1.68.27-1.33.58-2.64.95-3.94.3-1.08.64-2.14,1.01-3.2.22-.63.45-1.25.7-1.88.08-.21.17-.41.25-.62.19-.46.17-.41-.07.16.09-.2.18-.41.26-.61.98-2.21,2.11-4.36,3.38-6.42.6-.98,1.24-1.94,1.9-2.87.35-.49.71-.97,1.07-1.45-.63.85-.17.21,0,0,.24-.3.48-.6.72-.89,1.53-1.85,3.18-3.59,4.94-5.22.88-.81,1.79-1.6,2.72-2.35.17-.14.34-.27.51-.41.88-.7-.78.57.13-.09.53-.39,1.06-.78,1.59-1.15,1.98-1.38,4.06-2.62,6.2-3.72,1.07-.55,2.17-1.13,3.3-1.55-1.16.43.49-.19.77-.3.67-.26,1.35-.51,2.04-.74,2.39-.81,4.85-1.45,7.33-1.92.56-.1,1.12-.2,1.68-.29.22-.03,1.37-.26.16-.03.22-.04.46-.06.68-.08,1.38-.16,2.76-.27,4.15-.32,2.63-.1,5.26-.01,7.87.26.3.03.59.07.89.1.73.08-1.11-.18.04,0,.64.1,1.28.2,1.92.32,1.32.24,2.64.54,3.94.88,1.23.32,2.45.69,3.66,1.1.54.19,1.09.38,1.63.58.32.12.64.25.96.37.24.09,1.21.52.2.07,2.3,1.01,4.53,2.14,6.68,3.44,1.06.65,2.11,1.33,3.12,2.05.46.33.91.66,1.37,1,.93.69-.73-.6.16.13.26.21.53.42.79.64,2.17,1.8,4.21,3.76,6.08,5.88.45.51.89,1.02,1.32,1.55.21.26.42.53.64.79.57.71-.47-.64.22.3.84,1.14,1.64,2.3,2.4,3.5s1.41,2.34,2.04,3.54c.35.66.68,1.32.99,1.99.12.26.24.52.36.78.09.2.69,1.61.23.5,1.1,2.67,2,5.42,2.68,8.23.62,2.56,3.19,3.51,5.54,3.14.92-.14.37-.06.17-.03.31-.04.61-.07.92-.09.54-.05,1.08-.08,1.62-.1,1.03-.04,2.06-.03,3.09.04.4.02.81.06,1.21.1.09,0,.68.09.68.08,0,.03-1.13-.18-.18-.02.84.14,1.67.29,2.5.49s1.62.42,2.42.68c.37.12.74.25,1.1.38.21.08.41.16.62.24.53.2.52.13,0-.01,1.5.42,3.05,1.49,4.35,2.32.69.44,1.34.94,2.01,1.4.51.35-.59-.53-.14-.1.12.11.26.21.38.31.38.31.75.63,1.11.96,1.26,1.14,2.35,2.4,3.45,3.69-.57-.66-.08-.1.18.26.22.31.44.62.65.94.49.73.94,1.47,1.37,2.24.4.72.76,1.46,1.11,2.21.07.14.16.3.2.45-.25-.92-.16-.4-.07-.16.16.42.32.83.47,1.25.65,1.87,1.08,3.77,1.41,5.72.09.53-.06-.34-.05-.35-.02,0,.08.76.09.86.05.52.08,1.04.11,1.56.06,1.26.02,2.51-.07,3.77-.17,2.43,2.2,4.5,4.5,4.5h1.88c.58,0,1.16.04,1.73.09.23.02,1.39.05.16,0,.33,0,.68.11,1,.17,1.21.23,2.4.55,3.55.96.21.07.41.16.62.23,1.06.37-.87-.43.14.06.59.29,1.18.56,1.76.88.95.53,1.85,1.13,2.74,1.77-.95-.69-.06-.04.11.11.25.21.49.42.73.64.48.44.94.89,1.39,1.37.37.4.72.81,1.07,1.22.72.84-.54-.79.09.12.12.18.25.35.38.53.71,1.03,1.34,2.12,1.88,3.26.12.24.26.49.34.75-.35-1.12-.04-.07.04.15.19.52.37,1.05.52,1.58s.29,1.08.41,1.62c.07.33.14.66.19,1,.04.22.07.45.11.67l-.07-.52c.37,1.04.18,2.72.14,3.81-.02.53.03,1.22-.14,1.72.36-1.07.02-.15-.03.15-.06.33-.12.66-.19,1-.26,1.2-.65,2.35-1.05,3.51-.08.23-.22.8.08-.16-.09.3-.27.61-.41.9-.29.59-.6,1.17-.93,1.73-.28.47-.57.93-.88,1.38-.18.27-.38.53-.57.79.57-.82.26-.32.1-.14-.85.99-1.72,1.94-2.7,2.81-.16.14-.33.29-.49.42-.17.14-.33.28-.5.41.48-.37.53-.41.13-.11-.54.37-1.07.75-1.63,1.09s-1.13.66-1.72.95c-.29.15-.59.28-.89.42-.84.4.81-.28-.14.06-1.27.45-2.52.86-3.84,1.12-.33.07-.67.12-1,.18-1.02.19.8-.05-.16,0-.81.05-1.61.12-2.42.12-2.35.02-4.61,2.06-4.5,4.5s1.98,4.52,4.5,4.5l-.02-.05Z"/>
        </g>
        <path class="cls-2" d="M25.46,84.38c5.75,4.36,11.49,8.73,17.24,13.09l2.49,1.89c.87.66,2.47.73,3.47.45,1.04-.29,2.18-1.09,2.69-2.07.55-1.04.83-2.31.45-3.47s-1.08-1.94-2.07-2.69c-5.75-4.36-11.49-8.73-17.24-13.09l-2.49-1.89c-.87-.66-2.47-.73-3.47-.45-1.04.29-2.18,1.09-2.69,2.07-.55,1.04-.83,2.31-.45,3.47s1.08,1.94,2.07,2.69h0Z"/>
        <path class="cls-2" d="M73.66,52.34c.98,7.16,1.96,14.33,2.94,21.49l.42,3.05c.32,2.34,3.44,3.82,5.54,3.14,2.57-.83,3.49-3.03,3.14-5.54-.98-7.16-1.96-14.33-2.94-21.49l-.42-3.05c-.32-2.34-3.44-3.82-5.54-3.14-2.57.83-3.49,3.03-3.14,5.54h0Z"/>
        <path class="cls-2" d="M53.39,165.07c-4.36,5.75-8.73,11.49-13.09,17.24l-1.89,2.49c-.66.87-.73,2.47-.45,3.47.29,1.04,1.09,2.18,2.07,2.69,1.04.55,2.31.83,3.47.45s1.94-1.08,2.69-2.07c4.36-5.75,8.73-11.49,13.09-17.24l1.89-2.49c.66-.87.73-2.47.45-3.47-.29-1.04-1.09-2.18-2.07-2.69-1.04-.55-2.31-.83-3.47-.45s-1.94,1.08-2.69,2.07h0Z"/>
        <path class="cls-2" d="M130.41,63.66c-4.36,5.75-8.73,11.49-13.09,17.24l-1.89,2.49c-.66.87-.73,2.47-.45,3.47.29,1.04,1.09,2.18,2.07,2.69,1.04.55,2.31.83,3.47.45s1.94-1.08,2.69-2.07l13.09-17.24c.63-.83,1.26-1.66,1.89-2.49s.73-2.47.45-3.47c-.29-1.04-1.09-2.18-2.07-2.69-1.04-.55-2.31-.83-3.47-.45s-1.94,1.08-2.69,2.07h0Z"/>
        <path class="cls-2" d="M36.28,129.1c-7.16.98-14.33,1.96-21.49,2.94l-3.05.42c-2.34.32-3.82,3.44-3.14,5.54.83,2.57,3.03,3.49,5.54,3.14,7.16-.98,14.33-1.96,21.49-2.94l3.05-.42c2.34-.32,3.82-3.44,3.14-5.54-.83-2.57-3.03-3.49-5.54-3.14h0Z"/>
        <path class="cls-2" d="M112.15,94.2c-13.05-9.81-31.69-10.44-45.42-1.61-7.31,4.7-12.78,11.56-15.97,19.61-2.92,7.38-3.34,15.71-1.59,23.42,1.75,7.71,6.14,15.28,12.17,20.66,6.45,5.76,14.37,9.21,22.94,10.17,16.37,1.84,32.96-7.44,40.08-22.27s4.51-33.52-7.2-45.63c-1.55-1.6-3.25-2.99-5.02-4.35-1.88-1.44-5.12-.35-6.16,1.61-1.26,2.38-.39,4.62,1.61,6.16-.84-.65.33.28.49.42.32.27.63.54.94.82.7.63,1.37,1.28,2.01,1.96.6.63,1.17,1.28,1.72,1.95.15.18.29.36.43.54-.09-.11-.56-.75-.08-.09.27.37.54.74.79,1.12.99,1.45,1.87,2.97,2.63,4.55.17.35.33.71.5,1.07.34.75,0-.02-.06-.15.08.21.17.42.25.62.32.83.61,1.68.87,2.54.5,1.66.84,3.34,1.14,5.05.09.51-.05-.35-.05-.37-.02.18.06.47.08.66.05.44.09.89.12,1.33.06.89.09,1.78.09,2.67,0,.84-.04,1.68-.1,2.51-.03.39-.06.78-.11,1.17-.02.17-.11.52-.08.67-.09-.45.1-.72,0-.03-.28,1.73-.68,3.44-1.21,5.1-.24.76-.51,1.51-.8,2.26-.08.21-.17.43-.26.64.38-.92.13-.32.04-.13-.2.42-.39.84-.59,1.25-.84,1.68-1.81,3.3-2.9,4.83-.1.15-.21.29-.32.44-.08.11-.55.72-.19.26s-.12.14-.21.25c-.11.14-.23.28-.34.41-.61.72-1.24,1.42-1.9,2.09-.61.62-1.25,1.22-1.9,1.79-.35.3-.7.6-1.06.89-.13.11-.27.21-.4.32.79-.64.13-.11-.05.02-1.42,1.04-2.91,1.97-4.47,2.79-.75.39-1.51.74-2.28,1.09-.58.27.74-.29.14-.06-.16.06-.31.12-.47.19-.47.18-.94.35-1.42.51-1.64.56-3.31.99-5.01,1.31-.33.06-1.04.04-1.32.22.01,0,.89-.11.37-.05-.22.02-.44.05-.66.08-.89.09-1.78.15-2.67.18-1.74.05-3.46-.05-5.18-.23-.29-.03-.79.04.2.03-.2,0-.48-.07-.67-.1-.39-.06-.78-.14-1.16-.21-.89-.18-1.76-.39-2.63-.63-.82-.23-1.63-.49-2.44-.78-.38-.14-.75-.28-1.12-.43-.14-.06-.82-.36-.26-.1.61.28-.39-.18-.41-.19-1.64-.76-3.23-1.65-4.74-2.65-.35-.23-.69-.47-1.03-.71-.18-.13-1.35-1.05-.52-.37-.73-.6-1.46-1.2-2.15-1.84-1.32-1.22-2.5-2.55-3.65-3.93-.32-.39.16.21.18.24-.13-.18-.27-.36-.41-.55-.27-.37-.53-.74-.78-1.11-.5-.75-.97-1.52-1.42-2.3-.39-.68-.75-1.38-1.09-2.08-.19-.4-.37-.81-.56-1.22.42.91-.04-.12-.18-.47-.63-1.66-1.14-3.37-1.52-5.1-.17-.76-.3-1.52-.42-2.29-.14-.84,0,.1.03.21-.06-.18-.06-.48-.07-.66-.05-.44-.08-.88-.11-1.32-.11-1.72-.1-3.44.03-5.15.03-.44.09-.89.13-1.33.04-.52-.05.35-.06.37.06-.2.07-.45.1-.66.14-.88.31-1.76.52-2.63.41-1.71.98-3.35,1.59-5,.22-.61-.32.72-.06.13.07-.16.14-.31.21-.47.19-.42.39-.83.59-1.24.41-.83.86-1.64,1.34-2.44s.94-1.49,1.45-2.21c.24-.34.49-.67.74-1.01-.63.85.37-.44.52-.62,1.17-1.38,2.44-2.66,3.8-3.85.3-.26.61-.52.92-.77.87-.7-.46.32.44-.34.73-.54,1.48-1.04,2.25-1.52,1.48-.92,3.02-1.7,4.61-2.42-.83.38-.06.03.32-.12s.73-.27,1.1-.4c.89-.31,1.79-.58,2.71-.82.8-.21,1.61-.39,2.43-.55.38-.07.76-.13,1.15-.2.16-.03.89-.11.22-.04-.74.08.34-.03.39-.04,1.65-.17,3.32-.23,4.98-.17.83.03,1.66.09,2.49.18,1.17.12-.7-.12.46.05.5.08.99.16,1.49.26,1.66.33,3.29.77,4.88,1.33.43.15.85.32,1.28.48.2.08.79.34-.13-.06.16.07.31.14.47.21.84.38,1.67.78,2.48,1.22,1.6.87,3.13,1.87,4.58,2.96,1.89,1.42,5.11.36,6.16-1.61,1.25-2.36.4-4.64-1.61-6.16v-.03Z"/>
        <path d="M101.12,219.51h125.2c13.21,0,23.92-10.71,23.92-23.92s-17.1-31.99-17.1-32.79c0-17.37-28.5-36.78-30.16-36.51-5.64-23.72-28.97-38.08-54.42-38.08-29.76,0-66.48,32.82-66.48,62.58,0,.34.02.69.03,1.03-14.92,3.75-20.06,23.25-20.06,39.33,0,18.98,16.27,37.72,35.25,37.72l8.19-9.35"/>
        <path d="M202.63,222.92h40.51c13.21,0,23.92-10.71,23.92-23.92s-10.71-23.92-23.92-23.92h-1.53c.06-.79.1-1.57.1-2.37,0-17.37-14.08-31.44-31.44-31.44-1.73,0-3.42.14-5.08.41-5.64-23.72-26.95-41.36-52.4-41.36-29.76,0-53.88,24.12-53.88,53.88,0,.34.02.69.03,1.03-14.92,3.75-25.97,17.25-25.97,33.33,0,18.98,15.38,34.36,34.36,34.36h16.86"/>
        <path d="M243.14,222.92c13.21,0,23.92-10.71,23.92-23.92s-10.71-23.92-23.92-23.92h-1.53c.06-.79.1-1.57.1-2.37,0-17.37-14.08-31.44-31.44-31.44-1.73,0-3.42.14-5.08.41-5.64-23.72-26.95-41.36-52.4-41.36-29.76,0-53.88,24.12-53.88,53.88,0,.34.02.69.03,1.03-14.92,3.75-25.97,17.25-25.97,33.33,0,18.98,15.38,34.36,34.36,34.36h135.81Z"/>
        <path class="cls-1" d="M243.14,227.42c12.41-.09,23.54-8.29,27.2-20.17,3.67-11.91-1.23-24.87-11.39-31.85-5.16-3.55-11.17-4.81-17.34-4.81l4.5,4.5c1.18-16.74-10.03-32.5-26.18-37-5.23-1.46-10.6-1.57-15.94-.74l5.54,3.14c-5.29-21.94-23.62-39.62-45.91-43.64-11.51-2.08-23.24-.79-34,3.8-9.92,4.23-18.38,11.3-24.62,20.06-7.03,9.86-10.99,22.4-10.56,34.54l3.3-4.34c-13.3,3.42-24.11,13.92-27.83,27.16s-.03,27.55,9.37,37.41c7.37,7.72,17.73,11.95,28.37,11.96h125.41c3.21,0,6.43.04,9.65,0h.44c2.35,0,4.61-2.07,4.5-4.5s-1.98-4.5-4.5-4.5H106.64c-.75-.02-1.5-.05-2.25-.12-.05,0-1.18-.16-1.2-.12,0,0,.88.13.35.05-.22-.04-.45-.07-.67-.1-1.5-.25-2.97-.6-4.42-1.04-.69-.21-1.37-.45-2.05-.7-.15-.06-1.12-.42-.54-.2s-.08-.03-.22-.1c-.2-.09-.4-.18-.6-.27-1.34-.63-2.63-1.34-3.88-2.14-.55-.35-1.09-.72-1.62-1.1-.18-.13-.35-.26-.53-.39.02,0,.65.53.26.21-.29-.24-.59-.48-.88-.72-1.12-.94-2.18-1.96-3.17-3.04-.48-.52-.94-1.05-1.38-1.6-.29-.35-.53-.74-.1-.12-.25-.36-.52-.7-.76-1.06-.84-1.21-1.6-2.48-2.28-3.79-.33-.63-.63-1.28-.92-1.93-.36-.79.25.67-.06-.15-.15-.41-.32-.83-.46-1.24-.48-1.37-.87-2.77-1.17-4.19-.15-.72-.27-1.45-.39-2.17-.09-.53.06.34.05.35.01,0-.07-.59-.08-.68-.04-.4-.07-.8-.1-1.2-.1-1.6-.1-3.2.02-4.8.03-.36.06-.71.09-1.07.02-.24.06-.47.08-.71,0,.03-.13.84-.04.32.15-.81.28-1.62.46-2.42.35-1.53.8-3.03,1.35-4.49.12-.32.25-.64.38-.96-.29.73-.08.2.1-.18.33-.73.69-1.44,1.08-2.14.73-1.34,1.56-2.64,2.47-3.87.1-.14.2-.27.3-.41-.09.12-.59.74-.08.11.22-.26.43-.52.65-.78.51-.6,1.05-1.18,1.6-1.75.51-.52,1.05-1.03,1.59-1.52.25-.23.51-.45.77-.67.13-.11.26-.22.39-.33.02-.02.87-.68.34-.28-.46.35.37-.26.5-.36.32-.23.65-.46.98-.68.66-.44,1.34-.86,2.03-1.25.59-.34,1.2-.66,1.81-.96.36-.18.72-.35,1.09-.51.16-.07.31-.14.47-.21-.03,0-.76.3-.28.12,1.47-.55,2.93-1.06,4.45-1.45,1.85-.48,3.37-2.4,3.3-4.34-.09-2.61.1-5.21.39-7.8.08-.72-.18,1.12,0,0,.05-.34.1-.68.16-1.01.09-.56.2-1.12.31-1.68.27-1.33.58-2.64.95-3.94.3-1.08.64-2.14,1.01-3.2.22-.63.45-1.25.7-1.88.08-.21.17-.41.25-.62.19-.46.17-.41-.07.16.09-.2.18-.41.26-.61.98-2.21,2.11-4.36,3.38-6.42.6-.98,1.24-1.94,1.9-2.87.35-.49.71-.97,1.07-1.45-.63.85-.17.21,0,0,.24-.3.48-.6.72-.89,1.53-1.85,3.18-3.59,4.94-5.22.88-.81,1.79-1.6,2.72-2.35.17-.14.34-.27.51-.41.88-.7-.78.57.13-.09.53-.39,1.06-.78,1.59-1.15,1.98-1.38,4.06-2.62,6.2-3.72,1.07-.55,2.17-1.13,3.3-1.55-1.16.43.49-.19.77-.3.67-.26,1.35-.51,2.04-.74,2.39-.81,4.85-1.45,7.33-1.92.56-.1,1.12-.2,1.68-.29.22-.03,1.37-.26.16-.03.22-.04.46-.06.68-.08,1.38-.16,2.76-.27,4.15-.32,2.63-.1,5.26-.01,7.87.26.3.03.59.07.89.1.73.08-1.11-.18.04,0,.64.1,1.28.2,1.92.32,1.32.24,2.64.54,3.94.88,1.23.32,2.45.69,3.66,1.1.54.19,1.09.38,1.63.58.32.12.64.25.96.37.24.09,1.21.52.2.07,2.3,1.01,4.53,2.14,6.68,3.44,1.06.65,2.11,1.33,3.12,2.05.46.33.91.66,1.37,1,.93.69-.73-.6.16.13.26.21.53.42.79.64,2.17,1.8,4.21,3.76,6.08,5.88.45.51.89,1.02,1.32,1.55.21.26.42.53.64.79.57.71-.47-.64.22.3.84,1.14,1.64,2.3,2.4,3.5s1.41,2.34,2.04,3.54c.35.66.68,1.32.99,1.99.12.26.24.52.36.78.09.2.69,1.61.23.5,1.1,2.67,2,5.42,2.68,8.23.62,2.56,3.19,3.51,5.54,3.14.92-.14.37-.06.17-.03.31-.04.61-.07.92-.09.54-.05,1.08-.08,1.62-.1,1.03-.04,2.06-.03,3.09.04.4.02.81.06,1.21.1.09,0,.68.09.68.08,0,.03-1.13-.18-.18-.02.84.14,1.67.29,2.5.49s1.62.42,2.42.68c.37.12.74.25,1.1.38.21.08.41.16.62.24.53.2.52.13,0,0,1.5.42,3.05,1.49,4.35,2.32.69.44,1.34.94,2.01,1.4.51.35-.59-.53-.14-.1.12.11.26.21.38.31.38.31.75.63,1.11.96,1.26,1.14,2.35,2.4,3.45,3.69-.57-.66-.08-.1.18.26.22.31.44.62.65.94.49.73.94,1.47,1.37,2.24.4.72.76,1.46,1.11,2.21.07.14.16.3.2.45-.25-.92-.16-.4-.07-.16.16.42.32.83.47,1.25.65,1.87,1.08,3.77,1.41,5.72.09.53-.06-.34-.05-.35-.02,0,.08.76.09.86.05.52.08,1.04.11,1.56.06,1.26.02,2.51-.07,3.77-.17,2.43,2.2,4.5,4.5,4.5h1.88c.58,0,1.16.04,1.73.09.23.02,1.39.05.16,0,.33,0,.68.11,1,.17,1.21.23,2.4.55,3.55.96.21.07.41.16.62.23,1.06.37-.87-.43.14.06.59.29,1.18.56,1.76.88.95.53,1.85,1.13,2.74,1.77-.95-.69-.06-.04.11.11.25.21.49.42.73.64.48.44.94.89,1.39,1.37.37.4.72.81,1.07,1.22.72.84-.54-.79.09.12.12.18.25.35.38.53.71,1.03,1.34,2.12,1.88,3.26.12.24.26.49.34.75-.35-1.12-.04-.07.04.15.19.52.37,1.05.52,1.58s.29,1.08.41,1.62c.07.33.14.66.19,1,.04.22.07.45.11.67l-.07-.52c.37,1.04.18,2.72.14,3.81-.02.53.03,1.22-.14,1.72.36-1.07.02-.15-.03.15-.06.33-.12.66-.19,1-.26,1.2-.65,2.35-1.05,3.51-.08.23-.22.8.08-.16-.09.3-.27.61-.41.9-.29.59-.6,1.17-.93,1.73-.28.47-.57.93-.88,1.38-.18.27-.38.53-.57.79.57-.82.26-.32.1-.14-.85.99-1.72,1.94-2.7,2.81-.16.14-.33.29-.49.42-.17.14-.33.28-.5.41.48-.37.53-.41.13-.11-.54.37-1.07.75-1.63,1.09s-1.13.66-1.72.95c-.29.15-.59.28-.89.42-.84.4.81-.28-.14.06-1.27.45-2.52.86-3.84,1.12-.33.07-.67.12-1,.18-1.02.19.8-.05-.16,0-.81.05-1.61.12-2.42.12-2.35.02-4.61,2.06-4.5,4.5s1.98,4.52,4.5,4.5l-.03-.05Z"/>
      </g>
    </g>
  </g>
</svg>