<?xml version="1.0" encoding="UTF-8"?>
<svg xmlns="http://www.w3.org/2000/svg" version="1.1" viewBox="0 0 280 280">
  <defs>
    <style>
      .cls-1 {
        fill: #fff;
      }

      .cls-2 {
        fill: #22d5ff;
      }
    </style>
  </defs>
  <!-- Generator: Adobe Illustrator 28.7.2, SVG Export Plug-In . SVG Version: 1.2.0 Build 154)  -->
  <g>
    <g id="night">
      <path class="cls-1" d="M171.78,186.11c15.79,0,32.35,1.09,47.63-3.56,7.16-2.18,14.2-5.89,18.31-12.37s4.32-14.77,1.87-21.68c-2.19-6.18-6.33-11.45-11.89-14.95-5.02-3.16-10.67-4.28-16.53-4.28l4.5,4.5c1.18-16.74-10.03-32.5-26.18-37-5.23-1.46-10.6-1.57-15.94-.74l5.54,3.14c-5.29-21.94-23.62-39.62-45.91-43.64-11.51-2.08-23.24-.79-34,3.8-9.92,4.23-18.38,11.3-24.62,20.06-7.03,9.86-10.99,22.4-10.56,34.54l3.3-4.34c-16.76,4.3-28.91,19.64-29.27,36.94-.34,16.78,10.54,31.99,26.29,37.5,6.3,2.21,12.82,2.08,19.39,2.08,2.35,0,4.61-2.07,4.5-4.5s-1.98-4.5-4.5-4.5h-5.98c-1.04,0-2.07,0-3.11-.07-.4-.03-.8-.06-1.2-.1-.19-.02-.49-.02-.68-.08.91.27.47.07.18.02-.89-.14-1.78-.3-2.66-.51-1.58-.37-3.69-.74-5.08-1.61.97.6-.17-.08-.44-.2-.35-.16-.69-.33-1.04-.5-.83-.42-1.64-.87-2.44-1.36-.7-.43-1.38-.88-2.04-1.35-.36-.26-.96-.72-.27-.17-.38-.3-.76-.61-1.14-.93-1.32-1.13-2.56-2.35-3.7-3.66-.25-.29-.49-.58-.73-.87-.14-.17-.27-.34-.41-.51.63.8.24.31.11.13-.5-.72-1.01-1.42-1.47-2.16-.91-1.46-1.84-3.03-2.43-4.66.35.96-.03-.12-.16-.46-.14-.36-.26-.73-.39-1.1-.3-.9-.56-1.81-.79-2.73-.2-.82-.37-1.65-.51-2.49-.03-.17-.05-.34-.08-.5-.15-.95.05.17.02.18.07-.03-.14-1.38-.15-1.54-.14-1.89-.13-3.79.04-5.68.04-.42.09-.83.13-1.24-.12,1.14.05-.25.11-.56.16-.92.37-1.84.61-2.74s.51-1.78.82-2.65c.13-.38.28-.76.42-1.13.06-.14.35-.83.1-.26-.26.61.13-.29.19-.41.76-1.65,1.65-3.25,2.67-4.76.25-.38.51-.75.78-1.11.13-.18.27-.36.41-.54-.61.83-.11.15.03-.02.64-.79,1.32-1.55,2.03-2.28.67-.69,1.37-1.35,2.09-1.98.43-.37.87-.72,1.31-1.08-.75.61.14-.09.45-.31,1.67-1.18,3.44-2.22,5.3-3.09.35-.16,1.41-.59.5-.24.48-.18.96-.38,1.45-.55,1.04-.37,2.09-.68,3.16-.96,1.85-.48,3.37-2.4,3.3-4.34-.09-2.61.1-5.21.39-7.8.08-.72-.18,1.12,0,0,.05-.34.1-.68.16-1.01.09-.56.2-1.12.31-1.68.27-1.33.58-2.64.95-3.94.3-1.08.64-2.14,1.01-3.2.22-.63.45-1.25.7-1.88.08-.21.17-.41.25-.62.19-.46.17-.41-.07.16.09-.2.18-.41.26-.61.98-2.21,2.11-4.36,3.38-6.42.6-.98,1.24-1.94,1.9-2.87.35-.49.71-.97,1.07-1.45-.63.85-.17.21,0,0,.24-.3.48-.6.72-.89,1.53-1.85,3.18-3.59,4.94-5.22.88-.81,1.79-1.6,2.72-2.35.17-.14.34-.27.51-.41.88-.7-.78.57.13-.09.53-.39,1.06-.78,1.59-1.15,1.98-1.38,4.06-2.62,6.2-3.72,1.07-.55,2.17-1.13,3.3-1.55-1.16.43.49-.19.77-.3.67-.26,1.35-.51,2.04-.74,2.39-.81,4.85-1.45,7.33-1.92.56-.1,1.12-.2,1.68-.29.22-.03,1.37-.26.16-.03.22-.04.46-.06.68-.08,1.38-.16,2.76-.27,4.15-.32,2.63-.1,5.26-.01,7.87.26.3.03.59.07.89.1.73.08-1.11-.18.04,0,.64.1,1.28.2,1.92.32,1.32.24,2.64.54,3.94.88,1.23.32,2.45.69,3.66,1.1.54.19,1.09.38,1.63.58.32.12.64.25.96.37.24.09,1.21.52.2.07,2.3,1.01,4.53,2.14,6.68,3.44,1.06.65,2.11,1.33,3.12,2.05.46.33.91.66,1.37,1,.93.69-.73-.6.16.13.26.21.53.42.79.64,2.17,1.8,4.21,3.76,6.08,5.88.45.51.89,1.02,1.32,1.55.21.26.42.53.64.79.57.71-.47-.64.22.3.84,1.14,1.64,2.3,2.4,3.5s1.41,2.34,2.04,3.54c.35.66.68,1.32.99,1.99.12.26.24.52.36.78.09.2.69,1.61.23.5,1.1,2.67,2,5.42,2.68,8.23.62,2.56,3.19,3.51,5.54,3.14.92-.14.37-.06.17-.03.31-.04.61-.07.92-.09.54-.05,1.08-.08,1.62-.1,1.03-.04,2.06-.03,3.09.04.4.02.81.06,1.21.1.09,0,.68.09.68.08-.01.03-1.13-.18-.18-.02.84.14,1.67.29,2.5.49s1.62.42,2.42.68c.37.12.74.25,1.1.38.21.08.41.16.62.24.53.2.52.13,0-.01,1.5.42,3.05,1.49,4.35,2.32.69.44,1.34.94,2.01,1.4.51.35-.59-.53-.14-.1.12.11.26.21.38.31.38.31.75.63,1.11.96,1.26,1.14,2.35,2.4,3.45,3.69-.57-.66-.08-.1.18.26.22.31.44.62.65.94.49.73.94,1.47,1.37,2.24.4.72.76,1.46,1.11,2.21.07.14.16.3.2.45-.25-.92-.16-.4-.07-.16.16.42.32.83.47,1.25.65,1.87,1.08,3.77,1.41,5.72.09.53-.06-.34-.05-.35-.02,0,.08.76.09.86.05.52.08,1.04.11,1.56.06,1.26.02,2.51-.07,3.77-.17,2.43,2.2,4.5,4.5,4.5.63,0,1.25,0,1.88,0,.58,0,1.16.04,1.73.09l.34.03c.51.06.45.05-.18-.04.09.09.87.14,1,.17,1.21.23,2.4.55,3.55.96.26.09.51.22.78.29.65.18-.97-.47-.01,0,.59.29,1.18.57,1.76.88.52.29,1.04.6,1.54.93.26.17,1.75,1.31.8.54.93.76,1.81,1.55,2.63,2.42.37.4.72.81,1.07,1.22.72.84-.54-.79.09.12.18.27.38.53.56.8.67,1,1.26,2.05,1.77,3.13.13.27.68,1.04.07.13.1.15.17.43.24.62.23.62.44,1.26.61,1.9.15.54.28,1.08.39,1.63.06.28.11.55.15.83.2,1.2-.02-.63.04.33.11,1.66.14,3.27-.01,4.92-.09,1.04.22-1.22.03-.22-.06.3-.1.59-.16.89-.13.61-.29,1.22-.47,1.82-.08.26-.17.52-.26.77-.06.15-.12.3-.18.46-.19.57.28-.65.26-.62-.37.51-.58,1.22-.9,1.78-.28.49-.59.96-.92,1.42-.75,1.04.63-.72-.04.05-.23.27-.46.54-.71.81-.42.45-.86.88-1.32,1.29-.26.24-.54.45-.8.69-.28.25-.72.39.37-.28-.22.14-.43.32-.65.48-1.3.93-2.68,1.72-4.12,2.42-.36.17-.71.34-1.07.5-1.12.51.88-.34-.28.12-.93.37-1.87.71-2.82,1.02-2.04.66-4.13,1.2-6.23,1.63-1.12.23-2.25.44-3.38.62-.57.09-1.14.18-1.71.26-1.19.18,1-.12-.21.03-.36.04-.72.09-1.08.13-5.43.63-10.91.84-16.37.85s-11.44,0-17.16,0c-2.35,0-4.61,2.07-4.5,4.5s1.98,4.5,4.5,4.5h0Z"/>
      <path class="cls-2" d="M119.59,206.09c-.44-2.25-1.27-4.44-2.07-6.59-1.15-3.08-2.42-6.11-3.7-9.14-1.47-3.48-2.99-6.94-4.57-10.38-1.36-2.94-6.41-2.94-7.77,0-3.25,7.06-6.45,14.23-9.02,21.58-.58,1.67-1.16,3.36-1.42,5.11-.53,3.54-.07,6.92,1.44,10.17,2.95,6.33,10.55,9.58,17.19,7.45,7.73-2.48,11.26-10.59,9.92-18.21-.41-2.32-3.38-3.84-5.54-3.14-2.5.81-3.58,3.05-3.14,5.54.18,1.04-.04-1.07,0-.02.01.3.04.6.04.9,0,.13-.1,1.48-.07,1.49-.11-.04.2-1.09-.03-.02-.06.29-.13.58-.22.87s-.19.57-.28.85c-.27.84.45-.81-.01.02-.09.16-.74,1.56-.9,1.52.04,0,.69-.76.06-.1-.17.18-.33.36-.5.54-.07.07-.56.61-.66.59l.44-.34c-.16.12-.33.23-.5.33-.21.13-.44.24-.66.37-.96.57.64-.13-.2.09-.31.08-.61.19-.92.26l-.32.07c-.5.09-.43.08.21-.02-.38.24-1.31.02-1.74.03-1.11,0,.91.26-.13,0-.31-.08-.63-.14-.94-.23-.1-.03-.57-.14-.59-.2.6.26.67.29.23.09-.18-.09-.36-.18-.53-.29-.08-.05-.75-.39-.75-.49,0,.12.72.67.1.05-.19-.19-1.14-.9-1.11-1.18l.35.44c-.11-.16-.22-.32-.33-.49-.11-.17-.21-.34-.3-.51-.04-.06-.44-.75-.4-.79.25.62.29.71.11.25-.07-.19-.13-.37-.19-.56-.15-.48-.25-.96-.36-1.45-.24-1.01.04,1.05,0,.01-.01-.3-.04-.6-.04-.9,0-.08.11-1.47.07-1.49.17.08-.22,1.08,0,.17.05-.21.09-.42.14-.63.4-1.64.96-3.24,1.54-4.82.7-1.92,1.45-3.82,2.22-5.72.22-.54.44-1.07.66-1.61.11-.27.22-.53.33-.8.3-.72-.08.2-.12.28.46-1,.87-2.04,1.31-3.05,1.08-2.5,2.18-4.98,3.32-7.46h-7.77c1.54,3.35,3.02,6.72,4.46,10.12.45,1.05-.31-.73.05.11.15.36.3.71.45,1.07.3.71.59,1.43.88,2.15.54,1.34,1.07,2.69,1.58,4.05.78,2.1,1.6,4.25,2.03,6.46s3.34,3.85,5.54,3.14c2.46-.8,3.63-3.06,3.14-5.54Z"/>
      <path class="cls-2" d="M157.54,184.46c-.44-2.25-1.27-4.44-2.07-6.59-1.14-3.04-2.39-6.04-3.65-9.03-1.47-3.48-2.99-6.94-4.57-10.38-1.22-2.65-5.77-2.65-6.99,0-3.24,7.03-6.42,14.16-8.97,21.47-.58,1.67-1.16,3.36-1.42,5.11-.5,3.42-.06,6.69,1.4,9.83,2.86,6.16,10.22,9.31,16.69,7.24,7.48-2.4,10.9-10.28,9.6-17.66-.37-2.09-3.04-3.46-4.98-2.83-2.25.73-3.22,2.74-2.83,4.98.18,1-.02-.91.02.1.01.3.04.6.04.9,0,.5-.03,1-.07,1.49.09-1.1,0-.13-.04.1-.06.29-.13.58-.22.87s-.19.57-.28.85c-.25.78.38-.65-.06.12-.29.52-.58,1.02-.9,1.52.55-.86-.3.32-.51.52s-.43.4-.66.59c.77-.67.04-.06-.15.06-.21.13-.44.24-.66.37-.87.51.45-.06-.31.13-.31.08-.61.19-.92.26-.2.05-1.22.13-.23.07-.58.04-1.16.02-1.74.03-1.06,0,.75.23-.25-.03-.31-.08-.63-.14-.94-.23-.2-.06-.4-.14-.59-.2.98.32-.19-.12-.41-.25-.26-.15-.5-.32-.75-.49.76.5.2.17.01-.02-.38-.39-.76-.76-1.11-1.18.67.82-.2-.38-.35-.65s-.27-.53-.4-.79c.49.97-.05-.18-.13-.42-.15-.48-.25-.96-.36-1.45-.23-.98.02.89-.02-.11-.01-.3-.04-.6-.04-.9,0-.5.03-.99.07-1.49-.09,1.12.09-.29.16-.59.4-1.64.96-3.24,1.54-4.82.7-1.92,1.45-3.82,2.22-5.72.22-.54.44-1.07.66-1.61.13-.32.67-1.59.26-.63.43-1.02.87-2.04,1.31-3.05,1.08-2.5,2.18-4.98,3.32-7.46h-6.99c1.54,3.35,3.02,6.72,4.46,10.12.42.98-.23-.55.09.22.15.36.3.71.45,1.07.3.71.59,1.43.88,2.15.54,1.34,1.07,2.69,1.58,4.05.78,2.1,1.6,4.25,2.03,6.46.41,2.08,3.01,3.47,4.98,2.83,2.22-.72,3.27-2.75,2.83-4.98Z"/>
      <path class="cls-2" d="M129.26,156.6c-.83-4.19-2.81-8.26-4.46-12.16-1.15-2.71-2.33-5.41-3.56-8.08-1.04-2.26-4.92-2.26-5.96,0-2.57,5.57-5.11,11.22-7.1,17.03-1.35,3.94-1.68,7.85.2,11.71,2.35,4.84,8.32,7.3,13.41,5.53,5.87-2.04,8.48-8.16,7.48-14.02-.32-1.84-2.57-2.87-4.24-2.41-1.94.53-2.73,2.4-2.41,4.24.12.67,0,.1,0-.03.01.25.03.5.03.75,0,.2,0,.4-.01.6,0,.11-.07.74-.01.29s-.04.18-.06.28c-.06.24-.11.49-.18.73-.06.19-.12.38-.19.57.16-.46.07-.14-.07.13-.21.39-.43.78-.69,1.14.41-.57-.31.28-.43.41-.38.43-.13.14.02.03-.16.12-.33.23-.5.33s-.35.2-.53.29c-.67.38.45-.04-.33.11-.15.03-1.33.22-.7.18-.23.02-.47.03-.7.03.06,0-1.07-.07-.57,0,.4.05-.27-.05-.36-.08-.21-.05-.41-.12-.61-.17-.52-.13.43.23-.04,0-.27-.13-.53-.28-.79-.44-.09-.05-.57-.44-.25-.17s-.14-.15-.21-.22c-.17-.18-.34-.35-.5-.54.1.11.33.53,0,0-.2-.34-.4-.68-.59-1.03-.31-.57-.05-.13,0,0-.1-.28-.19-.56-.27-.85-.06-.23-.21-1.3-.14-.56-.03-.4-.06-.8-.05-1.2,0-.2.02-.4.03-.6-.04.67-.04.18.01-.04.05-.24.1-.48.17-.72.33-1.31.79-2.58,1.26-3.85.55-1.49,1.14-2.97,1.74-4.44.15-.36.29-.71.44-1.07.09-.22.19-.44.28-.66.2-.48-.22.51-.02.04.32-.76.65-1.51.97-2.26.81-1.86,1.63-3.72,2.48-5.56h-5.96c1.19,2.59,2.34,5.2,3.45,7.82.1.23.07.17-.07-.17.06.13.11.26.17.4.11.27.22.53.33.8.22.53.44,1.07.66,1.61.42,1.04.83,2.08,1.22,3.13.61,1.63,1.24,3.3,1.57,5.01.36,1.83,2.54,2.88,4.24,2.41,1.91-.52,2.77-2.41,2.41-4.24Z"/>
    </g>
  </g>
</svg>