<?xml version="1.0" encoding="UTF-8"?>
<svg xmlns="http://www.w3.org/2000/svg" version="1.1" viewBox="0 0 280 280">
  <defs>
    <style>
      .cls-1 {
        fill: #fff;
      }

      .cls-2 {
        fill: #22d5ff;
      }

      .cls-3 {
        display: none;
      }
    </style>
  </defs>
  <!-- Generator: Adobe Illustrator 28.7.2, SVG Export Plug-In . SVG Version: 1.2.0 Build 154)  -->
  <g>
    <g id="Livello_1">
      <g id="cloudy" class="cls-3">
        <path class="cls-1" d="M212.7,205.52c12.41-.09,23.54-8.29,27.2-20.17,3.67-11.91-1.23-24.87-11.39-31.85-5.16-3.55-11.17-4.81-17.34-4.81l4.5,4.5c1.18-16.74-10.03-32.5-26.18-37-5.23-1.46-10.6-1.57-15.94-.74l5.54,3.14c-5.29-21.94-23.62-39.62-45.91-43.64-11.51-2.08-23.24-.79-34,3.8-9.92,4.23-18.38,11.3-24.62,20.06-7.03,9.86-10.99,22.4-10.56,34.54l3.3-4.34c-13.3,3.42-24.11,13.92-27.83,27.16s-.03,27.55,9.37,37.41c7.37,7.72,17.73,11.95,28.37,11.96,3.09,0,6.19,0,9.28,0h116.13c3.21,0,6.43.04,9.65,0,.15,0,.29,0,.44,0,2.35,0,4.61-2.07,4.5-4.5s-1.98-4.5-4.5-4.5H79.34c-.79,0-1.59,0-2.38,0-.26,0-.52,0-.77,0-.75-.02-1.5-.05-2.25-.12-.05,0-1.18-.16-1.2-.12,0-.01.88.13.35.05-.22-.04-.45-.07-.67-.1-1.5-.25-2.97-.6-4.42-1.04-.69-.21-1.37-.45-2.05-.7-.15-.06-1.12-.42-.54-.2s-.08-.03-.22-.1c-.2-.09-.4-.18-.6-.27-1.34-.63-2.63-1.34-3.88-2.14-.55-.35-1.09-.72-1.62-1.1-.18-.13-.35-.26-.53-.39.02.01.65.53.26.21-.29-.24-.59-.48-.88-.72-1.12-.94-2.18-1.96-3.17-3.04-.48-.52-.94-1.05-1.38-1.6-.29-.35-.53-.74-.1-.12-.25-.36-.52-.7-.76-1.06-.84-1.21-1.6-2.48-2.28-3.79-.33-.63-.63-1.28-.92-1.93-.36-.79.25.67-.06-.15-.15-.41-.32-.83-.46-1.24-.48-1.37-.87-2.77-1.17-4.19-.15-.72-.27-1.45-.39-2.17-.09-.53.06.34.05.35.01,0-.07-.59-.08-.68-.04-.4-.07-.8-.1-1.2-.1-1.6-.1-3.2.02-4.8.03-.36.06-.71.09-1.07.02-.24.06-.47.08-.71,0,.03-.13.84-.04.32.15-.81.28-1.62.46-2.42.35-1.53.8-3.03,1.35-4.49.12-.32.25-.64.38-.96-.29.73-.08.2.1-.18.33-.73.69-1.44,1.08-2.14.73-1.34,1.56-2.64,2.47-3.87.1-.14.2-.27.3-.41-.09.12-.59.74-.08.11.22-.26.43-.52.65-.78.51-.6,1.05-1.18,1.6-1.75.51-.52,1.05-1.03,1.59-1.52.25-.23.51-.45.77-.67.13-.11.26-.22.39-.33.02-.02.87-.68.34-.28-.46.35.37-.26.5-.36.32-.23.65-.46.98-.68.66-.44,1.34-.86,2.03-1.25.59-.34,1.2-.66,1.81-.96.36-.18.72-.35,1.09-.51.16-.07.31-.14.47-.21-.03.01-.76.3-.28.12,1.47-.55,2.93-1.06,4.45-1.45,1.85-.48,3.37-2.4,3.3-4.34-.09-2.61.1-5.21.39-7.8.08-.72-.18,1.12,0,0,.05-.34.1-.68.16-1.01.09-.56.2-1.12.31-1.68.27-1.33.58-2.64.95-3.94.3-1.08.64-2.14,1.01-3.2.22-.63.45-1.25.7-1.88.08-.21.17-.41.25-.62.19-.46.17-.41-.07.16.09-.2.18-.41.26-.61.98-2.21,2.11-4.36,3.38-6.42.6-.98,1.24-1.94,1.9-2.87.35-.49.71-.97,1.07-1.45-.63.85-.17.21,0,0,.24-.3.48-.6.72-.89,1.53-1.85,3.18-3.59,4.94-5.22.88-.81,1.79-1.6,2.72-2.35.17-.14.34-.27.51-.41.88-.7-.78.57.13-.09.53-.39,1.06-.78,1.59-1.15,1.98-1.38,4.06-2.62,6.2-3.72,1.07-.55,2.17-1.13,3.3-1.55-1.16.43.49-.19.77-.3.67-.26,1.35-.51,2.04-.74,2.39-.81,4.85-1.45,7.33-1.92.56-.1,1.12-.2,1.68-.29.22-.03,1.37-.26.16-.03.22-.04.46-.06.68-.08,1.38-.16,2.76-.27,4.15-.32,2.63-.1,5.26-.01,7.87.26.3.03.59.07.89.1.73.08-1.11-.18.04,0,.64.1,1.28.2,1.92.32,1.32.24,2.64.54,3.94.88,1.23.32,2.45.69,3.66,1.1.54.19,1.09.38,1.63.58.32.12.64.25.96.37.24.09,1.21.52.2.07,2.3,1.01,4.53,2.14,6.68,3.44,1.06.65,2.11,1.33,3.12,2.05.46.33.91.66,1.37,1,.93.69-.73-.6.16.13.26.21.53.42.79.64,2.17,1.8,4.21,3.76,6.08,5.88.45.51.89,1.02,1.32,1.55.21.26.42.53.64.79.57.71-.47-.64.22.3.84,1.14,1.64,2.3,2.4,3.5s1.41,2.34,2.04,3.54c.35.66.68,1.32.99,1.99.12.26.24.52.36.78.09.2.69,1.61.23.5,1.1,2.67,2,5.42,2.68,8.23.62,2.56,3.19,3.51,5.54,3.14.92-.14.37-.06.17-.03.31-.04.61-.07.92-.09.54-.05,1.08-.08,1.62-.1,1.03-.04,2.06-.03,3.09.04.4.02.81.06,1.21.1.09,0,.68.09.68.08-.01.03-1.13-.18-.18-.02.84.14,1.67.29,2.5.49s1.62.42,2.42.68c.37.12.74.25,1.1.38.21.08.41.16.62.24.53.2.52.13,0-.01,1.5.42,3.05,1.49,4.35,2.32.69.44,1.34.94,2.01,1.4.51.35-.59-.53-.14-.1.12.11.26.21.38.31.38.31.75.63,1.11.96,1.26,1.14,2.35,2.4,3.45,3.69-.57-.66-.08-.1.18.26.22.31.44.62.65.94.49.73.94,1.47,1.37,2.24.4.72.76,1.46,1.11,2.21.07.14.16.3.2.45-.25-.92-.16-.4-.07-.16.16.42.32.83.47,1.25.65,1.87,1.08,3.77,1.41,5.72.09.53-.06-.34-.05-.35-.02,0,.08.76.09.86.05.52.08,1.04.11,1.56.06,1.26.02,2.51-.07,3.77-.17,2.43,2.2,4.5,4.5,4.5.63,0,1.25,0,1.88,0,.58,0,1.16.04,1.73.09.23.02,1.39.05.16,0,.33.01.68.11,1,.17,1.21.23,2.4.55,3.55.96.21.07.41.16.62.23,1.06.37-.87-.43.14.06.59.29,1.18.56,1.76.88.95.53,1.85,1.13,2.74,1.77-.95-.69-.06-.04.11.11.25.21.49.42.73.64.48.44.94.89,1.39,1.37.37.4.72.81,1.07,1.22.72.84-.54-.79.09.12.12.18.25.35.38.53.71,1.03,1.34,2.12,1.88,3.26.12.24.26.49.34.75-.35-1.12-.04-.07.04.15.19.52.37,1.05.52,1.58s.29,1.08.41,1.62c.07.33.14.66.19,1,.04.22.07.45.11.67l-.07-.52c.37,1.04.18,2.72.14,3.81-.02.53.03,1.22-.14,1.72.36-1.07.02-.15-.03.15-.06.33-.12.66-.19,1-.26,1.2-.65,2.35-1.05,3.51-.08.23-.22.8.08-.16-.09.3-.27.61-.41.9-.29.59-.6,1.17-.93,1.73-.28.47-.57.93-.88,1.38-.18.27-.38.53-.57.79.57-.82.26-.32.1-.14-.85.99-1.72,1.94-2.7,2.81-.16.14-.33.29-.49.42-.17.14-.33.28-.5.41.48-.37.53-.41.13-.11-.54.37-1.07.75-1.63,1.09s-1.13.66-1.72.95c-.29.15-.59.28-.89.42-.84.4.81-.28-.14.06-1.27.45-2.52.86-3.84,1.12-.33.07-.67.12-1,.18-1.02.19.8-.05-.16.01-.81.05-1.61.12-2.42.12-2.35.02-4.61,2.06-4.5,4.5s1.98,4.52,4.5,4.5Z"/>
      </g>
      <path class="cls-1" d="M134.18,179.81h42.66c5.12,0,10.29.23,15.41-.03,7.22-.36,14.19-3.41,19.22-8.64s7.93-12.3,7.98-19.57c.05-7.28-2.8-14.38-7.76-19.69s-11.89-8.39-19.09-8.86c-1.03-.07-2.06-.05-3.1-.05l4.5,4.5c1.18-16.74-10.03-32.5-26.18-37-5.23-1.46-10.6-1.57-15.94-.74l5.54,3.14c-5.29-21.94-23.62-39.62-45.91-43.64-11.51-2.08-23.24-.79-34,3.8-9.92,4.23-18.38,11.3-24.62,20.06-7.03,9.86-10.99,22.4-10.56,34.54l3.3-4.34c-16.99,4.36-29.28,20.1-29.27,37.67s11.39,32.22,27.56,37.19c6.17,1.9,12.53,1.67,18.89,1.67,2.35,0,4.61-2.07,4.5-4.5s-1.98-4.5-4.5-4.5h-5.91c-.79,0-1.59,0-2.38,0-.92-.02-1.85-.07-2.77-.17-.09,0-.68-.09-.68-.08.01-.03,1.13.18.18.02-.45-.07-.89-.14-1.34-.23-1.76-.34-3.49-.81-5.17-1.42-.39-.14-.89-.25-1.24-.47.94.59-.13-.06-.44-.2-.85-.39-1.67-.82-2.48-1.28-.71-.4-1.41-.83-2.09-1.29-.36-.24-.72-.49-1.07-.74-.18-.13-.35-.26-.53-.39.44.32.44.35,0,0-1.35-1.1-2.62-2.28-3.8-3.56-.55-.6-1.07-1.22-1.59-1.86s.03.03.11.14c-.13-.18-.26-.35-.39-.53-.29-.4-.56-.8-.83-1.21-.96-1.46-1.81-3-2.54-4.59-.09-.2-.18-.4-.27-.6-.27-.57.26.76.07.16-.11-.37-.28-.72-.41-1.08-.32-.89-.61-1.79-.85-2.71-.22-.81-.41-1.64-.57-2.46-.09-.45-.16-.89-.23-1.34-.14-.84-.01.06.02.18-.08-.26-.07-.58-.09-.85-.18-1.88-.2-3.77-.08-5.66.03-.48.07-.95.13-1.43.02-.16.12-.92.03-.29-.09.59,0,0,.02-.1.17-.98.35-1.96.59-2.93.21-.84.45-1.68.72-2.51.14-.44.3-.87.46-1.3.08-.22.17-.43.25-.64.4-1.04-.26.55.01-.03.78-1.65,1.6-3.26,2.6-4.8.28-.43.56-.85.86-1.26.13-.18.27-.37.4-.55.65-.89-.39.46.02-.03.66-.78,1.3-1.56,2.01-2.3s1.44-1.44,2.2-2.11c.38-.34.78-.66,1.17-.98.63-.52,0,0-.11.08.23-.17.45-.34.68-.5,1.66-1.19,3.43-2.24,5.28-3.12.29-.14,1.64-.7.65-.31.48-.19.96-.38,1.45-.55,1.04-.37,2.09-.68,3.16-.96,1.85-.48,3.37-2.4,3.3-4.34-.09-2.61.1-5.21.39-7.8.08-.72-.18,1.12,0,0,.05-.34.1-.68.16-1.01.09-.56.2-1.12.31-1.68.27-1.33.58-2.64.95-3.94.3-1.08.64-2.14,1.01-3.2.22-.63.45-1.25.7-1.88.08-.21.17-.41.25-.62.19-.46.17-.41-.07.16.09-.2.18-.41.26-.61.98-2.21,2.11-4.36,3.38-6.42.6-.98,1.24-1.94,1.9-2.87.35-.49.71-.97,1.07-1.45-.63.85-.17.21,0,0,.24-.3.48-.6.72-.89,1.53-1.85,3.18-3.59,4.94-5.22.88-.81,1.79-1.6,2.72-2.35.17-.14.34-.27.51-.41.88-.7-.78.57.13-.09.53-.39,1.06-.78,1.59-1.15,1.98-1.38,4.06-2.62,6.2-3.72,1.07-.55,2.17-1.13,3.3-1.55-1.16.43.49-.19.77-.3.67-.26,1.35-.51,2.04-.74,2.39-.81,4.85-1.45,7.33-1.92.56-.1,1.12-.2,1.68-.29.22-.03,1.37-.26.16-.03.22-.04.46-.06.68-.08,1.38-.16,2.76-.27,4.15-.32,2.63-.1,5.26-.01,7.87.26.3.03.59.07.89.1.73.08-1.11-.18.04,0,.64.1,1.28.2,1.92.32,1.32.24,2.64.54,3.94.88,1.23.32,2.45.69,3.66,1.1.54.19,1.09.38,1.63.58.32.12.64.25.96.37.24.09,1.21.52.2.07,2.3,1.01,4.53,2.14,6.68,3.44,1.06.65,2.11,1.33,3.12,2.05.46.33.91.66,1.37,1,.93.69-.73-.6.16.13.26.21.53.42.79.64,2.17,1.8,4.21,3.76,6.08,5.88.45.51.89,1.02,1.32,1.55.21.26.42.53.64.79.57.71-.47-.64.22.3.84,1.14,1.64,2.3,2.4,3.5s1.41,2.34,2.04,3.54c.35.66.68,1.32.99,1.99.12.26.24.52.36.78.09.2.69,1.61.23.5,1.1,2.67,2,5.42,2.68,8.23.62,2.56,3.19,3.51,5.54,3.14.92-.14.37-.06.17-.03.31-.04.61-.07.92-.09.54-.05,1.08-.08,1.62-.1,1.03-.04,2.06-.03,3.09.04.4.02.81.06,1.21.1.09,0,.68.09.68.08-.01.03-1.13-.18-.18-.02.84.14,1.67.29,2.5.49s1.62.42,2.42.68c.37.12.74.25,1.1.38.21.08.41.16.62.24.53.2.52.13,0-.01,1.5.42,3.05,1.49,4.35,2.32.69.44,1.34.94,2.01,1.4.51.35-.59-.53-.14-.1.12.11.26.21.38.31.38.31.75.63,1.11.96,1.26,1.14,2.35,2.4,3.45,3.69-.57-.66-.08-.1.18.26.22.31.44.62.65.94.49.73.94,1.47,1.37,2.24.4.72.76,1.46,1.11,2.21.07.14.16.3.2.45-.25-.92-.16-.4-.07-.16.16.42.32.83.47,1.25.65,1.87,1.08,3.77,1.41,5.72.09.53-.06-.34-.05-.35-.02,0,.08.76.09.86.05.52.08,1.04.11,1.56.06,1.26.02,2.51-.07,3.77-.17,2.43,2.2,4.5,4.5,4.5.97,0,1.95-.02,2.92.04.34.02.69.05,1.03.08.64.05.02.18-.18-.04.05.06.42.07.5.08.78.13,1.54.3,2.3.5s1.48.45,2.22.72c.14.05.34.1.46.18,0,0-.77-.37-.32-.13.39.21.8.37,1.19.57.63.32,1.25.67,1.85,1.05.32.2.64.41.95.63.34.24.95.75.27.17,1.17.98,2.28,1.99,3.28,3.15.14.16.82,1.02.47.55s.23.33.32.46c.47.67.9,1.36,1.3,2.08.35.62.63,1.27.95,1.91.23.46-.13-.31-.13-.32.1.15.18.46.24.62.13.36.26.73.38,1.1.24.75.43,1.5.59,2.27.07.33.13.66.19,1,.03.16.1.89.04.24s0,.13.02.25c.15,1.63.07,3.22-.03,4.85-.03.53.03-.33.05-.35-.05.04-.07.43-.08.5-.06.39-.14.78-.22,1.16-.17.76-.37,1.52-.61,2.26-.12.37-.25.73-.39,1.1-.05.14-.1.34-.18.46.06-.09.42-.92.06-.16-.33.69-.66,1.38-1.05,2.04-.35.61-.73,1.21-1.14,1.79-.23.34-.74.96-.17.27-.24.29-.48.59-.73.87-.5.57-1.02,1.12-1.58,1.64-.24.22-.48.44-.72.66-.16.14-.33.28-.5.42-.09.08-.67.53-.18.15s-.42.3-.6.42c-.27.18-.54.36-.82.54-.69.44-1.41.84-2.14,1.2-.29.15-.6.27-.89.42-.56.28.76-.26.16-.07-.16.05-.31.12-.46.18-.73.27-1.47.5-2.22.7s-1.53.35-2.31.49c-.88.15.74-.06-.16.01-.46.04-.92.08-1.38.1-4.77.2-9.59.02-14.37.02h-26.53c-5.57,0-11.15-.13-16.72,0-.09,0-.19,0-.28,0-2.35,0-4.61,2.07-4.5,4.5s1.98,4.5,4.5,4.5h0Z"/>
      <path class="cls-2" d="M60.27,229.27c4.01-7.13,8.02-14.26,12.03-21.39,6.36-11.32,12.73-22.63,19.09-33.95,1.46-2.6,2.92-5.19,4.38-7.79,1.04-1.85.5-4.51-1.45-5.54s-4.43-.52-5.54,1.45c-4.01,7.13-8.02,14.26-12.03,21.39-6.36,11.32-12.73,22.63-19.09,33.95-1.46,2.6-2.92,5.19-4.38,7.79-1.04,1.85-.5,4.51,1.45,5.54s4.43.52,5.54-1.45h0Z"/>
      <path class="cls-2" d="M95.77,207.43c3.88-6.9,7.76-13.8,11.64-20.7,6.16-10.95,12.32-21.9,18.48-32.85,1.42-2.52,2.83-5.04,4.25-7.55,1.04-1.85.5-4.51-1.45-5.54s-4.43-.52-5.54,1.45c-3.88,6.9-7.76,13.8-11.64,20.7l-18.48,32.85c-1.42,2.52-2.83,5.04-4.25,7.55-1.04,1.85-.5,4.51,1.45,5.54s4.43.52,5.54-1.45h0Z"/>
      <path class="cls-2" d="M136.79,205.94c2.7-4.81,5.41-9.62,8.11-14.43l1.14-2.03c1.04-1.85.5-4.51-1.45-5.54s-4.43-.52-5.54,1.45c-2.7,4.81-5.41,9.62-8.11,14.43l-1.14,2.03c-1.04,1.85-.5,4.51,1.45,5.54s4.43.52,5.54-1.45h0Z"/>
    </g>
  </g>
</svg>