<?xml version="1.0" encoding="UTF-8"?>
<svg xmlns="http://www.w3.org/2000/svg" version="1.1" viewBox="0 0 280 280">
  <defs>
    <style>
      .cls-1 {
        fill: #fff;
      }

      .cls-2 {
        fill: #22d5ff;
      }
    </style>
  </defs>
  <!-- Generator: Adobe Illustrator 28.7.2, SVG Export Plug-In . SVG Version: 1.2.0 Build 154)  -->
  <g>
    <g id="night">
      <path class="cls-2" d="M164.05,205.51c-.05-9.82-.11-19.65-.16-29.47,0-1.39-.02-2.79-.02-4.18-.01-1.86-1.58-3.45-3.45-3.45s-3.46,1.58-3.45,3.45c.05,9.82.11,19.65.16,29.47,0,1.39.02,2.79.02,4.18.01,1.86,1.58,3.45,3.45,3.45s3.46-1.58,3.45-3.45h0Z"/>
      <path class="cls-2" d="M151.12,203.09c6.91-6.98,13.81-13.97,20.72-20.95l2.94-2.97c3.13-3.16-1.75-8.04-4.88-4.88-6.91,6.98-13.81,13.97-20.72,20.95l-2.94,2.97c-3.13,3.16,1.75,8.04,4.88,4.88h0Z"/>
      <path class="cls-2" d="M143.69,192.23c9.82-.05,19.65-.11,29.47-.16,1.39,0,2.79-.02,4.18-.02,1.86-.01,3.45-1.58,3.45-3.45s-1.58-3.46-3.45-3.45c-9.82.05-19.65.11-29.47.16-1.39,0-2.79.02-4.18.02-1.86.01-3.45,1.58-3.45,3.45s1.58,3.46,3.45,3.45h0Z"/>
      <path class="cls-2" d="M146.11,179.29c6.98,6.91,13.97,13.81,20.95,20.72.99.98,1.98,1.96,2.97,2.94,3.16,3.13,8.04-1.75,4.88-4.88-6.98-6.91-13.97-13.81-20.95-20.72-.99-.98-1.98-1.96-2.97-2.94-3.16-3.13-8.04,1.75-4.88,4.88h0Z"/>
      <path class="cls-2" d="M143.61,232.43c-.03-5.91-.07-11.83-.1-17.74v-2.55c-.03-2.89-4.53-2.9-4.51,0,.03,5.91.07,11.83.1,17.74v2.55c.03,2.89,4.53,2.9,4.51,0h0Z"/>
      <path class="cls-2" d="M135.76,231.09c4.17-4.21,8.33-8.43,12.5-12.64.59-.6,1.18-1.2,1.77-1.79.85-.86.86-2.32,0-3.18s-2.32-.87-3.18,0c-4.17,4.21-8.33,8.43-12.5,12.64l-1.77,1.79c-.85.86-.86,2.32,0,3.18s2.32.87,3.18,0h0Z"/>
      <path class="cls-2" d="M131.16,224.59c5.91-.03,11.83-.07,17.74-.1.85,0,1.7,0,2.55-.01,2.89-.02,2.9-4.52,0-4.5-5.91.03-11.83.07-17.74.1-.85,0-1.7,0-2.55.01-2.89.02-2.9,4.52,0,4.5h0Z"/>
      <path class="cls-2" d="M132.5,216.74c4.21,4.17,8.43,8.33,12.64,12.5l1.79,1.77c.86.85,2.32.86,3.18,0s.87-2.32,0-3.18c-4.21-4.17-8.43-8.33-12.64-12.5-.6-.59-1.2-1.18-1.79-1.77-.86-.85-2.32-.86-3.18,0s-.87,2.32,0,3.18h0Z"/>
      <path class="cls-1" d="M191.77,186.59h12.94c5.18,0,10.56.37,15.61-1.03,8.92-2.48,15.97-9.26,19.17-17.88s1.75-18.59-3.55-25.85c-2.96-4.06-6.8-7.44-11.42-9.48-4.29-1.9-8.66-2.59-13.34-2.59l4.5,4.5c1.18-16.74-10.03-32.5-26.18-37-5.23-1.46-10.6-1.57-15.94-.74l5.54,3.14c-5.29-21.94-23.62-39.62-45.91-43.64-11.51-2.08-23.24-.79-34,3.8-9.92,4.23-18.38,11.3-24.62,20.06-7.03,9.86-10.99,22.4-10.56,34.54l3.3-4.34c-16.43,4.22-28.34,18.96-29.23,35.85-.42,7.95,1.77,16.15,6.12,22.82,4.44,6.81,10.78,11.97,18.27,15.06,4.07,1.68,8.45,2.56,12.85,2.76,2.32.1,4.65.04,6.96.04s4.61-2.07,4.5-4.5-1.98-4.5-4.5-4.5c-1.78,0-3.56,0-5.33,0-.6,0-1.2-.01-1.8-.04-.46-.02-.92-.06-1.38-.1-.23-.02-.46-.05-.68-.07-.88-.08.58.1,0,0-1.73-.28-3.43-.63-5.1-1.15-.74-.23-1.48-.48-2.2-.76-.17-.06-.45-.14-.62-.24.1.06.92.41.16.07-.4-.18-.8-.36-1.2-.55-1.52-.74-2.99-1.6-4.39-2.55-.31-.22-.62-.44-.93-.66-.65-.46.03.03.13.11-.17-.13-.34-.27-.51-.41-.67-.55-1.33-1.12-1.96-1.72-1.23-1.16-2.33-2.42-3.4-3.72-.32-.39.19.25.21.26-.12-.18-.26-.35-.39-.53-.25-.35-.5-.71-.74-1.07-.48-.73-.94-1.47-1.37-2.23-.37-.67-.73-1.35-1.06-2.04-.19-.39-.39-.79-.54-1.2,0,.02.3.79.14.31-.09-.26-.2-.51-.3-.77-.6-1.62-1.08-3.29-1.43-4.98-.08-.39-.15-.78-.22-1.17-.05-.3-.42-1.63-.09-.49-.25-.83-.19-1.89-.22-2.75-.08-1.86.04-3.69.22-5.54.05-.53-.04.28-.04.31.04-.23.07-.47.11-.7.08-.46.17-.93.26-1.39.19-.91.42-1.82.69-2.71.23-.77.49-1.54.77-2.3.08-.22.68-1.56.19-.52.19-.42.37-.83.57-1.25.77-1.59,1.66-3.11,2.66-4.56.29-.42.59-.83.9-1.24-.57.78.11-.12.35-.41.65-.78,1.34-1.53,2.06-2.25.68-.68,1.39-1.33,2.12-1.95.25-.21,1.43-1.1.55-.46.37-.27.73-.54,1.1-.8,1.59-1.1,3.27-2.07,5.02-2.89.21-.1.42-.19.62-.29,1.02-.47-.58.21.03-.02.49-.18.96-.38,1.45-.55.98-.35,1.98-.64,3-.9,1.85-.48,3.37-2.4,3.3-4.34-.09-2.61.1-5.21.39-7.8.08-.72-.18,1.12,0,0,.05-.34.1-.68.16-1.01.09-.56.2-1.12.31-1.68.27-1.33.58-2.64.95-3.94.3-1.08.64-2.14,1.01-3.2.22-.63.45-1.25.7-1.88.08-.21.17-.41.25-.62.19-.46.17-.41-.07.16.09-.2.18-.41.26-.61.98-2.21,2.11-4.36,3.38-6.42.6-.98,1.24-1.94,1.9-2.87.35-.49.71-.97,1.07-1.45-.63.85-.17.21,0,0,.24-.3.48-.6.72-.89,1.53-1.85,3.18-3.59,4.94-5.22.88-.81,1.79-1.6,2.72-2.35.17-.14.34-.27.51-.41.88-.7-.78.57.13-.09.53-.39,1.06-.78,1.59-1.15,1.98-1.38,4.06-2.62,6.2-3.72,1.07-.55,2.17-1.13,3.3-1.55-1.16.43.49-.19.77-.3.67-.26,1.35-.51,2.04-.74,2.39-.81,4.85-1.45,7.33-1.92.56-.1,1.12-.2,1.68-.29.22-.03,1.37-.26.16-.03.22-.04.46-.06.68-.08,1.38-.16,2.76-.27,4.15-.32,2.63-.1,5.26-.01,7.87.26.3.03.59.07.89.1.73.08-1.11-.18.04,0,.64.1,1.28.2,1.92.32,1.32.24,2.64.54,3.94.88,1.23.32,2.45.69,3.66,1.1.54.19,1.09.38,1.63.58.32.12.64.25.96.37.24.09,1.21.52.2.07,2.3,1.01,4.53,2.14,6.68,3.44,1.06.65,2.11,1.33,3.12,2.05.46.33.91.66,1.37,1,.93.69-.73-.6.16.13.26.21.53.42.79.64,2.17,1.8,4.21,3.76,6.08,5.88.45.51.89,1.02,1.32,1.55.21.26.42.53.64.79.57.71-.47-.64.22.3.84,1.14,1.64,2.3,2.4,3.5s1.41,2.34,2.04,3.54c.35.66.68,1.32.99,1.99.12.26.24.52.36.78.09.2.69,1.61.23.5,1.1,2.67,2,5.42,2.68,8.23.62,2.56,3.19,3.51,5.54,3.14.92-.14.37-.06.17-.03.31-.04.61-.07.92-.09.54-.05,1.08-.08,1.62-.1,1.03-.04,2.06-.03,3.09.04.4.02.81.06,1.21.1.09,0,.68.09.68.08-.01.03-1.13-.18-.18-.02.84.14,1.67.29,2.5.49s1.62.42,2.42.68c.37.12.74.25,1.1.38.21.08.41.16.62.24.53.2.52.13,0-.01,1.5.42,3.05,1.49,4.35,2.32.69.44,1.34.94,2.01,1.4.51.35-.59-.53-.14-.1.12.11.26.21.38.31.38.31.75.63,1.11.96,1.26,1.14,2.35,2.4,3.45,3.69-.57-.66-.08-.1.18.26.22.31.44.62.65.94.49.73.94,1.47,1.37,2.24.4.72.76,1.46,1.11,2.21.07.14.16.3.2.45-.25-.92-.16-.4-.07-.16.16.42.32.83.47,1.25.65,1.87,1.08,3.77,1.41,5.72.09.53-.06-.34-.05-.35-.02,0,.08.76.09.86.05.52.08,1.04.11,1.56.06,1.26.02,2.51-.07,3.77-.17,2.43,2.2,4.5,4.5,4.5,1.32,0,2.63.02,3.95.12.91.07-.12.03-.18-.04.04.05.56.09.67.11.5.09.99.19,1.49.31.92.22,1.82.5,2.71.82.05.02,1.07.41.38.14-.59-.23.08.04.22.1.4.19.79.38,1.18.58.87.46,1.71.97,2.51,1.53.18.12.35.26.53.38.52.34-.6-.52-.14-.11.32.29.67.55.99.84.73.65,1.41,1.35,2.05,2.08.14.16.28.33.42.5.1.12.53.68.15.18s.42.6.51.73c.55.81,1.05,1.66,1.5,2.53.2.39.37.8.57,1.19.28.56-.26-.76-.07-.16.07.21.16.41.23.62.34.94.62,1.9.84,2.88.1.44.19.88.26,1.33.06.36.34.92,0-.01.06.17.05.52.07.68.09.98.11,1.97.07,2.95-.02.52-.07,1.03-.11,1.55-.02.24-.01.88.04-.18,0,.22-.07.46-.11.67-.16.94-.38,1.87-.66,2.78-.14.48-.3.95-.47,1.42-.07.18-.14.47-.24.62.06-.09.42-.92.06-.16-.42.89-.86,1.77-1.38,2.61-.23.37-.46.74-.71,1.1-.18.25-.99,1.27-.26.4-.63.75-1.26,1.49-1.95,2.18-.62.61-1.27,1.17-1.95,1.72.76-.62-.06.03-.4.26-.45.31-.91.6-1.38.88-.75.45-1.54.84-2.33,1.21s.07,0,.16-.06c-.15.1-.44.17-.62.24-.52.19-1.05.37-1.58.52-.86.25-1.74.46-2.62.61-.21.04-.46.1-.67.11,1.05-.05.42-.06.18-.04-.58.05-1.15.09-1.73.11-.51.01-1.01.01-1.52.01h-20.12c-2.35,0-4.61,2.07-4.5,4.5s1.98,4.5,4.5,4.5h0Z"/>
      <path class="cls-2" d="M81.96,236.27c4.01-7.13,8.02-14.26,12.03-21.39,6.36-11.32,12.73-22.63,19.09-33.95,1.46-2.6,2.92-5.19,4.38-7.79,1.04-1.85.5-4.51-1.45-5.54s-4.43-.52-5.54,1.45c-4.01,7.13-8.02,14.26-12.03,21.39-6.36,11.32-12.73,22.63-19.09,33.95-1.46,2.6-2.92,5.19-4.38,7.79-1.04,1.85-.5,4.51,1.45,5.54s4.43.52,5.54-1.45h0Z"/>
      <path class="cls-2" d="M117.46,214.43c3.88-6.9,7.76-13.8,11.64-20.7,6.16-10.95,12.32-21.9,18.48-32.85,1.42-2.52,2.83-5.04,4.25-7.55,1.04-1.85.5-4.51-1.45-5.54s-4.43-.52-5.54,1.45c-3.88,6.9-7.76,13.8-11.64,20.7-6.16,10.95-12.32,21.9-18.48,32.85-1.42,2.52-2.83,5.04-4.25,7.55-1.04,1.85-.5,4.51,1.45,5.54s4.43.52,5.54-1.45h0Z"/>
    </g>
  </g>
</svg>