<?xml version="1.0" encoding="UTF-8"?>
<svg xmlns="http://www.w3.org/2000/svg" version="1.1" viewBox="0 0 280 280">
  <defs>
    <style>
      .cls-1 {
        fill: #fff;
      }
    </style>
  </defs>
  <!-- Generator: Adobe Illustrator 28.7.2, SVG Export Plug-In . SVG Version: 1.2.0 Build 154)  -->
  <g>
    <g id="night">
      <path class="cls-1" d="M72.6,169.88h110.13c.16,0,.33,0,.49,0,.03,0,.05,0,.08,0,.23,0,.46,0,.7.02.08,0,.58-.01.69.05-.63-.1-.69-.1-.19-.02l.33.06c.49.1.98.22,1.45.37.21.07.41.17.63.21.63.14-.94-.49-.01-.01.39.2.78.39,1.16.61.28.17,1.69,1.02.7.4.7.44,1.33,1.17,1.87,1.79.06.06.63.9.26.3-.33-.53.04.07.12.2.29.46.57.92.82,1.4.12.24.27.49.35.74-.04-.12-.33-.93-.09-.16.13.42.28.84.38,1.27s.25.89.26,1.32c-.02-1.1-.06-.3-.04,0s.02.58.03.87c.03,2.35,2.05,4.61,4.5,4.5s4.53-1.98,4.5-4.5c-.12-10.09-8.3-18.3-18.41-18.41-1.2-.01-2.41,0-3.61,0h-90.68c-5.39,0-10.79-.13-16.18,0-.08,0-.16,0-.24,0-2.35,0-4.61,2.07-4.5,4.5s1.98,4.5,4.5,4.5h0Z"/>
      <path class="cls-1" d="M98.56,155.75h43.32c2.35,0,4.61-2.07,4.5-4.5s-1.98-4.5-4.5-4.5h-43.32c-2.35,0-4.61,2.07-4.5,4.5s1.98,4.5,4.5,4.5h0Z"/>
      <path class="cls-1" d="M72.6,124.1h41.97c2.35,0,4.61-2.07,4.5-4.5s-1.98-4.5-4.5-4.5h-41.97c-2.35,0-4.61,2.07-4.5,4.5s1.98,4.5,4.5,4.5h0Z"/>
      <path class="cls-1" d="M158.26,155.75h13.95c2.35,0,4.61-2.07,4.5-4.5s-1.98-4.5-4.5-4.5h-13.95c-2.35,0-4.61,2.07-4.5,4.5s1.98,4.5,4.5,4.5h0Z"/>
      <path class="cls-1" d="M128.03,184.39h26.13c2.35,0,4.61-2.07,4.5-4.5s-1.98-4.5-4.5-4.5h-26.13c-2.35,0-4.61,2.07-4.5,4.5s1.98,4.5,4.5,4.5h0Z"/>
      <path class="cls-1" d="M86.34,139.92h89.82c4.15,0,8.32.12,12.46,0,.06,0,.12,0,.18,0,2.35,0,4.61-2.07,4.5-4.5s-1.98-4.5-4.5-4.5h-89.82c-4.15,0-8.32-.12-12.46,0-.06,0-.12,0-.18,0-2.35,0-4.61,2.07-4.5,4.5s1.98,4.5,4.5,4.5h0Z"/>
      <path class="cls-1" d="M188.81,139.92c5.43-.04,10.52-1.68,14.73-5.14,3.49-2.86,5.91-7.16,6.92-11.53,1.22-5.32.67-10.69-1.85-15.55s-6.61-8.65-11.42-10.72c-8.54-3.68-20.2-2.07-25.45,6.27-2.57,4.09-3.38,9.57-2.6,14.29.68,4.14,3.41,7.6,6.79,9.92,3.68,2.53,8.43,3.42,12.78,2.52,4.9-1.02,8.43-4.9,9.88-9.55.7-2.25-.83-5.01-3.14-5.54-2.45-.56-4.78.74-5.54,3.14-.06.18-.12.36-.18.54-.21.72.08-.23.15-.31-.22.25-.36.74-.53,1.04-.09.15-.78,1.11-.27.46s-.28.28-.43.43c-.13.13-.3.25-.43.39-.36.4.84-.55.37-.28-.26.15-.5.34-.76.48-.16.09-1.17.55-.36.21s-.4.11-.62.17c-.29.08-.59.11-.88.19-.53.15,1.08-.08.53-.07-.15,0-.3.03-.45.04-.34.02-.69.03-1.03.02-.23,0-1.41-.15-.55-.01.9.14-.26-.06-.44-.1-.34-.07-.69-.16-1.02-.26-.3-.09-.59-.21-.89-.31-.47-.15-.02-.28.42.18-.11-.12-.39-.18-.54-.25-.61-.31-1.15-.69-1.73-1.04s.79.74-.02-.03c-.29-.27-.58-.53-.86-.82-.08-.09-.65-.6-.62-.72.01-.05.67,1,.28.34-.08-.14-.18-.26-.26-.4-.17-.27-.31-.55-.47-.83-.57-1.01.23.86-.11-.26-.09-.31-.19-.62-.27-.94-.04-.16-.06-.33-.1-.49-.18-.7.08.36.06.45.07-.29-.05-.74-.05-1.03,0-.62.02-1.24.06-1.86.02-.24.04-.47.06-.71.08-.88-.04.07-.03.18-.05-.37.16-.92.24-1.28.09-.4.2-.8.32-1.2.06-.19.12-.38.19-.57.34-.97.21-.07-.03,0,.24-.08.87-1.63,1.06-1.91.68-1.01-.52.51.18-.23.27-.28.52-.56.81-.83.13-.12.26-.22.38-.34.53-.49-.23.21-.31.23.31-.1.68-.47.96-.64.3-.18.6-.33.91-.49.18-.09.72-.26.06-.05-.73.24.04-.01.2-.07.73-.27,1.48-.48,2.24-.64.37-.08.75-.13,1.12-.21.59-.12-.94.07-.33.04.3-.01.59-.06.89-.08.84-.06,1.68-.09,2.51-.06.23,0,.46.02.69.04.44.04.86-.17,0-.01.4-.08,1.14.23,1.53.33.45.12.9.26,1.33.42.14.05.84.33.28.1-.66-.27.4.2.43.21.91.45,1.78.97,2.6,1.55.11.08.72.54.27.18-.54-.43.37.32.38.33.36.31.72.64,1.06.98s.67.69.99,1.06c.16.18.31.37.46.55-.5-.58-.06-.07.16.24.55.79,1.04,1.61,1.46,2.47.11.21.2.43.3.65-.07-.15-.32-.87-.05-.08.2.56.39,1.12.54,1.7.12.46.19.93.29,1.39-.22-1,.01.2.03.57.05.96-.02,1.91-.09,2.87-.05.72.05-.28.05-.29.06.04-.14.84-.16.9-.09.45-.19.89-.31,1.33s-.25.87-.4,1.29c-.07.19-.14.37-.21.56-.32.91.39-.77-.01.02-.43.84-.86,1.67-1.39,2.45-.09.13-.3.56-.43.6.25-.08.59-.7.05-.1-.3.33-.59.67-.91.98-.19.19-.86,1.01-1.12,1.01.19,0,.71-.5.19-.15-.25.17-.5.35-.76.52-.39.25-.8.49-1.21.7-.19.1-.38.19-.57.28-.9.46.25-.05-.11.05-1.03.29-2.01.67-3.08.88-.23.04-.47.08-.7.12,1.12-.22-.03,0-.24.01-.63.05-1.26.07-1.89.08-2.35.02-4.61,2.06-4.5,4.5s1.98,4.52,4.5,4.5h0Z"/>
    </g>
  </g>
</svg>