<?xml version="1.0" encoding="UTF-8"?>
<svg xmlns="http://www.w3.org/2000/svg" version="1.1" viewBox="0 0 280 280">
  <defs>
    <style>
      .cls-1 {
        fill: #fff;
      }
    </style>
  </defs>
  <!-- Generator: Adobe Illustrator 28.7.2, SVG Export Plug-In . SVG Version: 1.2.0 Build 154)  -->
  <g>
    <g id="night">
      <path class="cls-1" d="M248.16,196.76h-97.7c-1.49,0-2.99-.01-4.48,0-7.8.06-14.6,4.84-17.38,12.1-.77,2-1.1,4.17-1.13,6.3-.03,2.35,2.09,4.61,4.5,4.5s4.47-1.98,4.5-4.5c0-.34-.1-1.09.07-1.38-.28.48-.12.67-.02.19.04-.22.08-.44.13-.66.1-.43.21-.86.35-1.28.04-.14.14-.55.22-.62-.3.28-.31.64,0,.02.2-.39.39-.77.62-1.15.11-.19.23-.37.35-.55.08-.13.45-.73.12-.2s.04-.05.15-.18c.14-.16.28-.33.43-.48.33-.35.68-.69,1.05-1.01.15-.13.33-.31.5-.41-.11.07-.81.55-.13.13.37-.23.73-.47,1.11-.68s.77-.46,1.17-.58c-1.04.3.29-.06.63-.16.43-.12.86-.23,1.3-.31,1.14-.21-.68.02.49-.05.3-.02.6-.02.9-.03,1.27-.01,2.54,0,3.81,0h83.49c4.91,0,9.85.13,14.76,0,.07,0,.14,0,.2,0,2.35,0,4.61-2.07,4.5-4.5s-1.98-4.5-4.5-4.5h0Z"/>
      <path class="cls-1" d="M231.9,166.02h-52.87c-2.35,0-4.61,2.07-4.5,4.5s1.98,4.5,4.5,4.5h52.87c2.35,0,4.61-2.07,4.5-4.5s-1.98-4.5-4.5-4.5h0Z"/>
      <path class="cls-1" d="M240.7,132.17h-41.06c-2.35,0-4.61,2.07-4.5,4.5s1.98,4.5,4.5,4.5h41.06c2.35,0,4.61-2.07,4.5-4.5s-1.98-4.5-4.5-4.5h0Z"/>
      <path class="cls-1" d="M162.65,166.02h-6.97c-1.15,0-2.37.5-3.18,1.32s-1.37,2.06-1.32,3.18.43,2.37,1.32,3.18,1.96,1.32,3.18,1.32h6.97c1.15,0,2.37-.5,3.18-1.32s1.37-2.06,1.32-3.18-.43-2.37-1.32-3.18-1.96-1.32-3.18-1.32h0Z"/>
      <path class="cls-1" d="M204.24,136.67c-.09-16.09-11.12-30.67-26.77-34.76-5.09-1.33-10.27-1.42-15.45-.61l5.54,3.14c-5.29-21.94-23.62-39.62-45.91-43.64-11.51-2.08-23.24-.79-34,3.8-9.92,4.23-18.38,11.3-24.62,20.06-7.03,9.86-10.99,22.4-10.56,34.54l3.3-4.34c-12.32,3.16-22.21,12.24-26.79,24.04s-2.85,24.81,3.86,34.91c6.78,10.19,17.87,16.64,30.08,17.49,2.61.18,5.26.09,7.87.09h85.32c9.07,0,18.16.14,27.24,0,.13,0,.26,0,.4,0,2.35,0,4.61-2.07,4.5-4.5s-1.98-4.5-4.5-4.5h-117.68c-.22,0-.44,0-.66,0-.48,0-.96,0-1.43-.03-.69-.03-1.38-.08-2.07-.15-.22-.02-1.4-.11-.17,0-.45-.04-.9-.14-1.34-.22-1.22-.22-2.42-.51-3.6-.86-.64-.19-1.27-.4-1.9-.62-.31-.11-.62-.24-.93-.35-.46-.19-.41-.16.16.08-.2-.09-.4-.18-.6-.27-1.2-.54-2.37-1.15-3.49-1.83-.51-.31-1.02-.63-1.52-.96-.23-.15-.45-.31-.67-.46-.19-.14-1.37-1.03-.4-.27-2.15-1.69-4.05-3.61-5.77-5.72-.15-.18-.46-.68.11.14-.19-.27-.39-.53-.58-.79-.38-.53-.74-1.08-1.09-1.63-.75-1.21-1.43-2.46-2.03-3.75-.14-.3-.29-.6-.4-.9.42,1.12.03.05-.04-.15-.2-.52-.38-1.04-.56-1.57-.45-1.38-.82-2.8-1.09-4.22-.06-.33-.12-.67-.18-1-.04-.27-.35-1.29-.03-.16-.18-.63-.15-1.41-.19-2.06-.09-1.42-.08-2.85,0-4.27.04-.72.12-1.43.2-2.14-.14,1.19.01,0,.04-.21.06-.35.12-.7.19-1.04.28-1.43.66-2.83,1.13-4.21.2-.6.43-1.19.66-1.78.41-1.09-.41.86.08-.19.15-.31.28-.62.43-.93.64-1.33,1.38-2.62,2.19-3.86.37-.57.77-1.12,1.17-1.67.48-.66,0,0-.08.1.21-.26.42-.53.64-.79.94-1.12,1.96-2.19,3.04-3.18.5-.46,1.01-.9,1.53-1.33.15-.13,1.07-.81.16-.14.27-.2.54-.41.82-.6,1.11-.79,2.27-1.51,3.46-2.16.6-.33,1.21-.64,1.83-.93.31-.15.62-.28.94-.42-1.06.47.01,0,.2-.07,1.3-.5,2.62-.91,3.97-1.26,1.85-.48,3.37-2.4,3.3-4.34-.09-2.61.1-5.21.39-7.8.08-.72-.18,1.12,0,0,.05-.34.1-.68.16-1.01.09-.56.2-1.12.31-1.68.27-1.33.58-2.64.95-3.94.3-1.08.64-2.14,1.01-3.2.22-.63.45-1.25.7-1.88.08-.21.17-.41.25-.62.19-.46.17-.41-.07.16.09-.2.18-.41.26-.61.98-2.21,2.11-4.36,3.38-6.42.6-.98,1.24-1.94,1.9-2.87.35-.49.71-.97,1.07-1.45-.63.85-.17.21,0,0,.24-.3.48-.6.72-.89,1.53-1.85,3.18-3.59,4.94-5.22.88-.81,1.79-1.6,2.72-2.35.17-.14.34-.27.51-.41.88-.7-.78.57.13-.09.53-.39,1.06-.78,1.59-1.15,1.98-1.38,4.06-2.62,6.2-3.72,1.07-.55,2.17-1.13,3.3-1.55-1.16.43.49-.19.77-.3.67-.26,1.35-.51,2.04-.74,2.39-.81,4.85-1.45,7.33-1.92.56-.1,1.12-.2,1.68-.29.22-.03,1.37-.26.16-.03.22-.04.46-.06.68-.08,1.38-.16,2.76-.27,4.15-.32,2.63-.1,5.26-.01,7.87.26.3.03.59.07.89.1.73.08-1.11-.18.04,0,.64.1,1.28.2,1.92.32,1.32.24,2.64.54,3.94.88,1.23.32,2.45.69,3.66,1.1.54.19,1.09.38,1.63.58.32.12.64.25.96.37.24.09,1.21.52.2.07,2.3,1.01,4.53,2.14,6.68,3.44,1.06.65,2.11,1.33,3.12,2.05.46.33.91.66,1.37,1,.93.69-.73-.6.16.13.26.21.53.42.79.64,2.17,1.8,4.21,3.76,6.08,5.88.45.51.89,1.02,1.32,1.55.21.26.42.53.64.79.57.71-.47-.64.22.3.84,1.14,1.64,2.3,2.4,3.5s1.41,2.34,2.04,3.54c.35.66.68,1.32.99,1.99.12.26.24.52.36.78.09.2.69,1.61.23.5,1.1,2.67,2,5.42,2.68,8.23.62,2.56,3.19,3.51,5.54,3.14.11-.02.88-.11.17-.03.23-.03.46-.05.69-.07.54-.05,1.08-.09,1.62-.11,1.05-.05,2.1-.04,3.15.02.4.02.81.05,1.21.09.43.04,1.28.06.34.02.83.04,1.7.28,2.5.46,1.64.37,3.2.94,4.78,1.5.48.17-.3-.13-.31-.13.19.05.42.18.6.27.35.16.7.33,1.04.5.73.37,1.45.77,2.15,1.2s1.38.88,2.04,1.36c.22.16,1.11.91.26.18.33.28.68.55,1.01.83,1.23,1.07,2.38,2.23,3.44,3.47.11.13.88,1.05.47.56-.37-.45.3.41.43.59.48.67.93,1.35,1.35,2.05.4.66.77,1.33,1.11,2.01.17.34.34.69.5,1.04.08.18.22.41.27.6-.14-.52-.21-.54-.01,0,.65,1.73,1.19,3.49,1.55,5.3.09.45.16.89.24,1.34.12.72-.09-.15-.02-.18-.02.01.07.62.08.68.1,1.04.15,2.08.15,3.13.01,2.35,2.06,4.61,4.5,4.5s4.51-1.98,4.5-4.5h0Z"/>
      <path class="cls-1" d="M220.17,150.44h-81.1c-2.35,0-4.61,2.07-4.5,4.5s1.98,4.5,4.5,4.5h81.1c2.35,0,4.61-2.07,4.5-4.5s-1.98-4.5-4.5-4.5h0Z"/>
      <path class="cls-1" d="M147.38,150.44h-7.28c-.34,0-.68,0-1.02,0s-.65-.03-.97-.04c-1.08-.02.99.23-.07,0-.31-.07-.63-.12-.94-.2-.47-.12-.93-.28-1.39-.42-.28-.09-1-.22.01.03-.19-.05-.44-.2-.6-.28-1.01-.49-1.95-1.1-2.87-1.74s.48.43-.04-.03c-.21-.19-.44-.37-.66-.56-.39-.35-.77-.71-1.14-1.08s-.73-.76-1.07-1.16c-.23-.27-.45-.54-.68-.81.49.59.09.13-.15-.21-.61-.86-1.17-1.75-1.68-2.67-.28-.51-.52-1.03-.77-1.55-.1-.2-.3-.79.05.13-.12-.32-.25-.63-.36-.95-.35-.99-.59-2-.82-3.02-.11-.49-.4-.65-.01.09-.06-.12-.05-.47-.06-.63-.05-.64-.07-1.28-.03-1.93,0-.09.05-.68.05-.68.06.02-.17.96.01,0,.1-.51.22-1.01.37-1.5.07-.25.75-1.91.27-.87.24-.53.5-1.05.79-1.56s.61-1.01.95-1.5c.14-.19.28-.39.42-.58-.58.78-.08.12.08-.07.82-.97,1.74-1.81,2.69-2.65.15-.13.68-.5-.06.03.24-.18.48-.35.73-.52.44-.3.9-.59,1.36-.86.51-.3,1.05-.55,1.57-.83.18-.1.79-.34-.11.03.32-.13.65-.26.98-.37.54-.19,1.1-.35,1.66-.49.22-.05.45-.1.67-.15.06-.01,1.17-.2.41-.09s.34-.02.41-.03c.22-.02.45-.03.67-.03.63-.02,1.25,0,1.88.06.07,0,.6.06.6.06-.02.08-1.01-.17-.31-.04.48.09.95.18,1.43.3s.91.26,1.36.41c.1.04.45.21.53.2-.64-.28-.75-.32-.31-.12l.25.12c.41.2.81.43,1.2.67.18.11,1.3.85.66.43-.6-.39.4.37.58.54.15.15,1,1.23,1.13,1.22-.06,0-.64-.91-.19-.24.11.16.22.31.32.47.27.41.51.82.73,1.25.09.18.17.36.26.53.49.92-.32-.96.02.04.17.5.35.99.5,1.49s.28,1.06.38,1.6c.04.22.08.45.12.67.21,1.11-.04-.7,0,.02.08,1.2.15,2.37.12,3.58-.02.73.22-1.04-.02.06-.08.4-.23.77-.33,1.16-.19.72.11-.45.19-.43,0,0-.29.57-.31.61-.07.13-.16.26-.23.39-.39.7-.15.04.18-.18-.32.22-.62.71-.91.98-.11.1-.23.19-.33.29-.58.57.9-.58.2-.16-.35.21-.69.45-1.05.64-.17.09-.34.16-.5.25-.73.4,1.04-.35.24-.1s-1.6.47-2.43.65c-.69.15.47-.07.51-.06-.21-.03-.47.05-.68.06-.46.03-.91.04-1.37.02-.31-.01-.84-.18-1.13-.09.71-.22,1.02.19.31.02-.21-.05-.43-.09-.65-.14-.35-.09-.69-.21-1.04-.32-.15-.05-.85-.33-.06-.01s-.06-.05-.22-.14c-.3-.16-.58-.37-.88-.54-.67-.39.71.65.35.27-.14-.15-.3-.27-.45-.41-.12-.12-.22-.25-.34-.37-.52-.51.54.92.21.27-.19-.38-.82-1.68-.21-.18-.89-2.17-3.03-3.95-5.54-3.14-2.09.68-4.1,3.2-3.14,5.54,1.74,4.22,5.26,7.07,9.79,7.9,4.25.78,8.96.2,12.62-2.23,4.19-2.78,6.37-7.19,6.23-12.2-.15-5.56-1.85-11.23-5.86-15.25-3.7-3.7-8.92-5.48-14.1-5.46-6,.02-11.77,2.84-16.08,6.91s-7.44,10.04-7.19,16.12,2.9,11.39,6.59,15.93c4.02,4.95,10.02,8.65,16.51,8.79,2.82.06,5.65,0,8.47,0,2.35,0,4.61-2.07,4.5-4.5s-1.98-4.5-4.5-4.5h0Z"/>
    </g>
  </g>
</svg>