<?xml version="1.0" encoding="UTF-8"?>
<svg xmlns="http://www.w3.org/2000/svg" version="1.1" viewBox="0 0 416.4 308">
  <defs>
    <style>
      .cls-1 {
        fill: #ffbf1f;
      }
    </style>
  </defs>
  <!-- Generator: Adobe Illustrator 28.7.3, SVG Export Plug-In . SVG Version: 1.2.0 Build 164)  -->
  <g>
    <g id="Livello_1">
      <g id="clear-night">
        <g id="Livello_2">
          <g id="night">
            <path class="cls-1" d="M412,144.8c0-27.9-8.6-55.7-24.9-78.4-16.2-22.7-38.8-40-65-49.6s-56.2-10.6-83.3-3c-27.1,7.7-50.2,22.9-67.5,43.9-18.1,21.9-28.9,48.6-31.1,77-2.2,27.9,4.6,56.4,19.1,80.3,14,23.2,35.1,42.3,59.8,53.4,26.4,12,55.9,15.4,84.4,9.6,26.8-5.4,51.8-19.4,70.7-39.1,18.9-19.8,31.9-45.4,36-72.6,1.1-7.1,1.7-14.3,1.8-21.5,0-4.2-3.7-8.3-8.1-8.1-4.4.2-8.1,3.6-8.1,8.1,0,3.4-.1,6.7-.4,10.1-.1,1.7-.3,3.3-.5,5,0,.3,0,.6-.1.9-.1,1.2.2-1.5,0-.3-.1.9-.3,1.8-.4,2.8-1,6.4-2.6,12.8-4.6,18.9-1,3.1-2.1,6.1-3.3,9-.1.4-.5,1.4.1-.3-.1.4-.3.7-.5,1.1-.3.6-.6,1.3-.9,1.9-.7,1.5-1.4,3.1-2.2,4.6-2.9,5.6-6.1,11.1-9.8,16.2-.9,1.2-1.8,2.4-2.6,3.6-.7.9.9-1.1.2-.2-.2.2-.4.5-.6.7-.6.8-1.2,1.5-1.9,2.3-2,2.4-4.1,4.8-6.3,7s-4.5,4.4-6.8,6.5c-1.1,1-2.2,2-3.4,2.9-.5.4-1.1.9-1.6,1.3-.3.2-.6.5-.9.7-1.5,1.2.9-.7,0,0-5.1,3.8-10.3,7.3-15.9,10.4-2.8,1.5-5.6,3-8.5,4.3-.7.3-1.5.6-2.2,1-.3.1-.5.2-.8.4,1.7-.6.7-.3.3-.1-1.6.6-3.1,1.3-4.8,1.8-6.1,2.2-12.3,4-18.7,5.2-1.5.3-3,.6-4.5.8-.8.1-1.6.2-2.5.4-.5,0-1.5.4.3,0-.5.1-1,.1-1.5.2-3.2.4-6.5.6-9.7.7-6.7.3-13.5,0-20.1-.8-.4,0-.9,0-1.2-.1,1.8.4.8.1.3,0-.8-.1-1.6-.2-2.5-.4-1.6-.3-3.2-.6-4.9-.9-3.2-.6-6.4-1.4-9.5-2.3s-6.2-1.9-9.2-3c-1.5-.6-3-1.1-4.5-1.8-.4-.1-1.4-.5.3.1-.3-.1-.6-.2-.8-.4-.8-.4-1.6-.7-2.5-1.1-5.8-2.6-11.3-5.8-16.6-9.2-2.6-1.7-5.2-3.6-7.7-5.5,1.4,1.1-.2-.1-.7-.6-.5-.4-1.1-.9-1.6-1.3-1.3-1.1-2.6-2.2-3.8-3.3-4.7-4.2-9-8.8-13.1-13.6-.4-.5-.9-1.1-1.3-1.6-.2-.3-.5-.6-.7-.9-.7-.9.9,1.1.2.2-1-1.4-2-2.7-3-4.1-1.8-2.6-3.6-5.2-5.2-7.9s-3.1-5.5-4.6-8.3c-.7-1.3-1.3-2.7-1.9-4-.3-.6-.6-1.3-.9-1.9-.2-.4-.3-.7-.5-1.1.7,1.8.2.4,0,0-2.4-6-4.4-12.1-5.9-18.4-.8-3.2-1.4-6.4-1.9-9.6-.1-.8-.2-1.6-.4-2.4-.1-1,0,.6,0,.6,0,0-.1-1.1-.1-1.2-.2-1.8-.4-3.5-.5-5.3-.5-6.7-.5-13.5,0-20.2.1-1.6.3-3.1.4-4.6,0-.4,0-.9.1-1.2,0,.2-.3,1.8,0,.3.1-.9.3-1.8.4-2.8.5-3.2,1.2-6.4,2-9.6,1.5-6.2,3.5-12.2,5.9-18.1.6-1.4,0,0-.1.3.1-.4.3-.7.5-1.1.3-.7.6-1.5,1-2.2.7-1.4,1.4-2.9,2.1-4.3,1.4-2.8,3-5.6,4.6-8.3s3.4-5.3,5.2-7.9c.9-1.3,1.9-2.6,2.8-3.8-1,1.3,0,.1.4-.4.6-.7,1.1-1.4,1.7-2.1,4-4.8,8.4-9.4,13.1-13.6,1.1-1,2.2-1.9,3.4-2.9.6-.5,1.2-1,1.8-1.5.3-.2.6-.5.9-.7.8-.6-1.2.9,0,0,2.5-1.9,5.1-3.7,7.8-5.4,5.3-3.5,10.9-6.5,16.7-9.2.6-.3,1.3-.6,1.9-.8.2-.1,1.5-.6.4-.2s.2,0,.4-.2c1.6-.6,3.2-1.3,4.8-1.8,3-1.1,6.1-2.1,9.2-2.9s6.3-1.6,9.5-2.2c1.5-.3,3-.6,4.5-.8.7-.1,1.4-.2,2.1-.3,1.7-.2-.3,0-.3,0,0,0,1.4-.2,1.5-.2,6.7-.8,13.4-1,20.1-.7,3.3.1,6.7.4,10,.8,2.1.2-1.2-.2.9.1.7.1,1.4.2,2.1.3,1.7.3,3.4.6,5.1.9,6.3,1.3,12.6,3.1,18.7,5.3,1.4.5,2.8,1.1,4.2,1.6s0,0-.3-.1c.4.1.7.3,1.1.5.8.4,1.6.7,2.5,1.1,2.9,1.3,5.7,2.8,8.5,4.3,5.4,3,10.6,6.5,15.6,10.2-1.6-1.2.3.2.7.6.6.5,1.2,1,1.8,1.5,1.2,1,2.4,2,3.6,3.1,2.3,2.1,4.6,4.3,6.8,6.6s4.3,4.6,6.3,7c.5.6,1,1.2,1.5,1.8.2.3.5.6.7.9-.1-.2-1.1-1.4-.2-.2,1,1.3,1.9,2.5,2.8,3.8,3.6,5.2,6.9,10.6,9.7,16.3.7,1.4,1.4,2.9,2,4.3.3.6.6,1.3.9,1.9.1.2.6,1.5.2.4-.5-1.1.2.5.3.7,1.2,3,2.3,6,3.3,9.1,2,6.2,3.5,12.6,4.5,19,0,.4,0,2.1.4,2.4,0,0-.2-1.6,0-.6,0,.4.1.8.1,1.2.2,1.6.3,3.1.5,4.7.3,3.4.4,6.7.4,10.1,0,4.2,3.7,8.3,8.1,8.1s8.1-3.6,8.1-8.1h0Z"/>
            <path class="cls-1" d="M223.6,144.8c0-102.5,111.1-106.4,52.3-106.4s-106.4,47.7-106.4,106.4,47.7,106.4,106.4,106.4-52.3-4-52.3-106.4h0Z"/>
            <circle class="cls-1" cx="326.3" cy="74.2" r="10"/>
            <circle class="cls-1" cx="349.2" cy="120" r="21.5"/>
            <circle class="cls-1" cx="265" cy="131.1" r="12.1"/>
            <circle class="cls-1" cx="302.8" cy="207.3" r="16.3"/>
            <circle cx="227.6" cy="176.1" r="13.9"/>
            <circle cx="203.8" cy="127.4" r="7.4"/>
            <circle cx="212.4" cy="211.3" r="7.4"/>
            <circle cx="252.1" cy="68.4" r="14" transform="translate(-4.2 18) rotate(-4.1)"/>
            <circle class="cls-1" cx="342.6" cy="177.5" r="7.3"/>
          </g>
        </g>
      </g>
    </g>
  </g>
</svg>