<?xml version="1.0" encoding="UTF-8"?>
<svg xmlns="http://www.w3.org/2000/svg" version="1.1" viewBox="0 0 416.4 308">
  <defs>
    <style>
      .cls-1 {
        fill: #fff;
      }
    </style>
  </defs>
  <!-- Generator: Adobe Illustrator 28.7.3, SVG Export Plug-In . SVG Version: 1.2.0 Build 164)  -->
  <g>
    <g id="Livello_1">
      <g id="cloudy">
        <g id="Livello_1-2" data-name="Livello_1">
          <g id="partialy-cloud">
            <path d="M146.9,241.1h197.8c20.9,0,37.8-16.9,37.8-37.8s-27-50.5-27-51.8c0-27.4-45-58.1-47.6-57.7-8.9-37.5-45.8-60.2-86-60.2s-105,51.9-105,98.9,0,1.1,0,1.6c-23.6,5.9-31.7,36.7-31.7,62.1s25.7,59.6,55.7,59.6l12.9-14.8"/>
            <path d="M307.2,246.5h64c20.9,0,37.8-16.9,37.8-37.8s-16.9-37.8-37.8-37.8h-2.4c0-1.2.2-2.5.2-3.7,0-27.4-22.2-49.7-49.7-49.7s-5.4.2-8,.6c-8.9-37.5-42.6-65.3-82.8-65.3s-85.1,38.1-85.1,85.1,0,1.1,0,1.6c-23.6,5.9-41,27.2-41,52.7s24.3,54.3,54.3,54.3h26.6"/>
            <path d="M371.2,246.5c20.9,0,37.8-16.9,37.8-37.8s-16.9-37.8-37.8-37.8h-2.4c0-1.2.2-2.5.2-3.7,0-27.4-22.2-49.7-49.7-49.7s-5.4.2-8,.6c-8.9-37.5-42.6-65.3-82.8-65.3s-85.1,38.1-85.1,85.1,0,1.1,0,1.6c-23.6,5.9-41,27.2-41,52.7s24.3,54.3,54.3,54.3h214.6Z"/>
            <path class="cls-1" d="M371.2,249.5c17.7-.1,33.6-11.7,39-28.6,5.4-17-1.4-35.9-16.1-45.9-7.6-5.2-16.2-7-25.3-7l3,3c.9-12.2-2.6-24.7-9.8-34.6-7-9.6-17.1-16.7-28.5-19.9-7.5-2.1-15.3-2.4-23-1.2l3.7,2.1c-4-16.4-12.7-31.6-25-43.3s-27.9-19.8-44.6-22.8-34.4-1.3-50.2,5.4c-15.1,6.3-28.1,16.8-37.6,30.1s-15.2,29.5-16.2,46c-.1,2.3-.2,4.5-.1,6.8l2.2-2.9c-19.8,5.1-35.9,20.7-41.2,40.5s.3,40.9,14.5,55.3c10.9,11.1,25.9,17.1,41.4,17.1h214c3.9,0,3.9-6,0-6h-214.5c-7.7,0-15.4-1.7-22.3-5-16.6-8.1-28-24.8-29-43.2-1.1-19.3,9-37.9,25.8-47.6,4.1-2.3,8.4-4.1,13-5.2,1.2-.3,2.2-1.6,2.2-2.9-.6-15.6,4-31.5,12.2-44.8s19.4-23.4,32.9-30.2c14.1-7.2,30.3-9.9,46-8.3,15.7,1.7,30.9,8.1,43.1,18.2,12.2,10.1,21.4,23.6,26.2,38.7.6,1.9,1.1,3.8,1.6,5.8.4,1.7,2.1,2.3,3.7,2.1,11.4-1.8,23.1.8,32.7,7,8.6,5.6,15.3,14.1,18.6,23.8,2.1,6.1,2.9,12.6,2.4,19-.1,1.6,1.5,3,3,3,3,0,6,0,9,.6,3.6.7,7.1,2,10.4,3.8,6.4,3.6,11.5,9.1,14.7,15.8,6.5,13.8,2.7,30.6-8.6,40.7-6.3,5.6-14.6,8.6-23,8.7-3.9,0-3.9,6,0,6h0Z"/>
          </g>
        </g>
      </g>
    </g>
  </g>
</svg>