<?xml version="1.0" encoding="UTF-8"?>
<svg xmlns="http://www.w3.org/2000/svg" version="1.1" viewBox="0 0 416.4 308">
  <defs>
    <style>
      .cls-1 {
        fill: #fff;
      }
    </style>
  </defs>
  <!-- Generator: Adobe Illustrator 28.7.3, SVG Export Plug-In . SVG Version: 1.2.0 Build 164)  -->
  <g>
    <g id="Livello_1">
      <g id="fog">
        <g id="Livello_2">
          <g id="night">
            <path class="cls-1" d="M152.7,39h208.6c9.6,0,19.2.2,28.7,0h.4c4.6,0,8.9-4,8.7-8.7s-3.8-8.7-8.7-8.7h-208.6c-9.6,0-19.2-.2-28.7,0h-.4c-4.6,0-8.9,4-8.7,8.7s3.8,8.7,8.7,8.7h0Z"/>
            <path class="cls-1" d="M184.4,71.6h167.2c7.7,0,15.4.2,23.1,0h.3c4.6,0,8.9-4,8.7-8.7-.2-4.7-3.8-8.7-8.7-8.7h-167.2c-7.7,0-15.4-.2-23.1,0h-.3c-4.6,0-8.9,4-8.7,8.7s3.8,8.7,8.7,8.7h0Z"/>
            <path class="cls-1" d="M222.3,103h148c6.9,0,13.7.2,20.6,0h.3c4.6,0,8.9-4,8.7-8.7s-3.8-8.7-8.7-8.7h-148c-6.9,0-13.7-.2-20.6,0h-.3c-4.6,0-8.9,4-8.7,8.7s3.8,8.7,8.7,8.7h0Z"/>
            <path class="cls-1" d="M256.6,136.1h146.7c4.6,0,8.9-4,8.7-8.7s-3.8-8.7-8.7-8.7h-146.7c-4.6,0-8.9,4-8.7,8.7s3.8,8.7,8.7,8.7h0Z"/>
            <path class="cls-1" d="M285,169.1h96.5c4.6,0,8.9-4,8.7-8.7s-3.8-8.7-8.7-8.7h-96.5c-4.6,0-8.9,4-8.7,8.7s3.8,8.7,8.7,8.7h0Z"/>
            <path class="cls-1" d="M270.1,202.1h86.1c4.6,0,8.9-4,8.7-8.7s-3.8-8.7-8.7-8.7h-86.1c-4.6,0-8.9,4-8.7,8.7s3.8,8.7,8.7,8.7h0Z"/>
            <path class="cls-1" d="M245.4,235.1h57c4.6,0,8.9-4,8.7-8.7s-3.8-8.7-8.7-8.7h-57c-4.6,0-8.9,4-8.7,8.7.2,4.7,3.8,8.7,8.7,8.7h0Z"/>
            <path class="cls-1" d="M262.4,268.2h18.5c2.2,0,4.6-1,6.2-2.6s2.7-4,2.6-6.2c-.2-4.7-3.8-8.7-8.7-8.7h-18.5c-2.2,0-4.6,1-6.2,2.6s-2.7,4-2.6,6.2c.2,4.7,3.8,8.7,8.7,8.7h0Z"/>
          </g>
        </g>
      </g>
    </g>
  </g>
</svg>