<?xml version="1.0" encoding="UTF-8"?>
<svg xmlns="http://www.w3.org/2000/svg" version="1.1" viewBox="0 0 416.4 308">
  <defs>
    <style>
      .cls-1 {
        fill: #fff;
      }

      .cls-2 {
        fill: #ffbf1f;
      }
    </style>
  </defs>
  <!-- Generator: Adobe Illustrator 28.7.3, SVG Export Plug-In . SVG Version: 1.2.0 Build 164)  -->
  <g>
    <g id="Livello_1">
      <g id="partlycloud">
        <g id="Livello_1-2" data-name="Livello_1">
          <g id="partialy-cloud">
            <path class="cls-2" d="M29.4,54.9c9.1,6.9,18.2,13.8,27.3,20.7,1.3,1,2.6,2,3.9,3,1.3,1,3.4.2,4.1-1.1.9-1.5.2-3.1-1.1-4.1-9.1-6.9-18.2-13.8-27.3-20.7-1.3-1-2.6-2-3.9-3s-3.4-.2-4.1,1.1c-.9,1.5-.2,3.1,1.1,4.1h0Z"/>
            <path class="cls-2" d="M107.4,6.7c1.6,11.3,3.1,22.6,4.6,33.9.2,1.6.4,3.2.7,4.9s2.3,2.5,3.7,2.1c1.7-.5,2.3-2.1,2.1-3.7-1.6-11.3-3.1-22.6-4.6-33.9-.2-1.6-.4-3.2-.7-4.9s-2.3-2.5-3.7-2.1c-1.7.5-2.3,2.1-2.1,3.7h0Z"/>
            <path class="cls-2" d="M75,188c-6.9,9.1-13.8,18.2-20.7,27.3-1,1.3-2,2.6-3,3.9s-.2,3.4,1.1,4.1c1.5.9,3.1.2,4.1-1.1,6.9-9.1,13.8-18.2,20.7-27.3,1-1.3,2-2.6,3-3.9s.2-3.4-1.1-4.1c-1.5-.9-3.1-.2-4.1,1.1h0Z"/>
            <path class="cls-2" d="M196.7,27.8c-6.9,9.1-13.8,18.2-20.7,27.3-1,1.3-2,2.6-3,3.9s-.2,3.4,1.1,4.1c1.5.9,3.1.2,4.1-1.1,6.9-9.1,13.8-18.2,20.7-27.3l3-3.9c1-1.3.2-3.4-1.1-4.1-1.5-.9-3.1-.2-4.1,1.1h0Z"/>
            <path class="cls-2" d="M45.5,133c-11.3,1.6-22.6,3.1-33.9,4.6-1.6.2-3.2.4-4.9.7s-2.5,2.3-2.1,3.7c.5,1.7,2.1,2.3,3.7,2.1,11.3-1.6,22.6-3.1,33.9-4.6,1.6-.2,3.2-.4,4.9-.7s2.5-2.3,2.1-3.7c-.5-1.7-2.1-2.3-3.7-2.1h0Z"/>
            <path class="cls-2" d="M162.2,77.5c-9.8-7.4-21.7-11.5-33.9-11.9-12.2-.3-23.8,2.9-33.7,9.4-10.6,6.8-18.7,16.9-23.3,28.6-4.6,11.7-5.1,23.6-2.4,35.2s9.3,22.6,18.4,30.6c9.4,8.2,21,13.3,33.4,14.6,11.8,1.3,24-1.3,34.4-6.9,10.8-5.9,19.8-15.3,25.1-26.4,5.2-11,7-23.3,5.1-35.3s-7.5-23.1-15.9-31.7c-2.2-2.3-4.6-4.3-7.1-6.2-1.3-1-3.4-.2-4.1,1.1-.9,1.5-.2,3.1,1.1,4.1,17.7,13.5,24.9,37.3,18.3,58.4-3.3,10.4-10.2,20.2-18.9,26.7-4.4,3.2-9.2,5.8-14.1,7.5-5.3,1.9-10.4,2.8-15.8,3-11,.4-21.7-2.5-31.1-8.6-9.2-6-16.6-15-20.5-25s-4.8-21.2-2.4-31.6c2.5-11,8.4-20.8,16.9-28.4,16.5-14.6,41.3-17.2,60.6-6.7,2.5,1.4,4.9,2.9,7.1,4.6,1.3,1,3.4.2,4.1-1.1.9-1.5.2-3.1-1.1-4.1h0Z"/>
            <path d="M146.9,271.9h197.8c20.9,0,37.8-16.9,37.8-37.8s-27-50.5-27-51.8c0-27.4-45-58.1-47.6-57.7-8.9-37.5-45.8-60.2-86-60.2s-105,51.9-105,98.9,0,1.1,0,1.6c-23.6,5.9-31.7,36.7-31.7,62.1s25.7,59.6,55.7,59.6l12.9-14.8"/>
            <path d="M307.2,277.3h64c20.9,0,37.8-16.9,37.8-37.8s-16.9-37.8-37.8-37.8h-2.4c0-1.2.2-2.5.2-3.7,0-27.4-22.2-49.7-49.7-49.7s-5.4.2-8,.6c-8.9-37.5-42.6-65.3-82.8-65.3s-85.1,38.1-85.1,85.1,0,1.1,0,1.6c-23.6,5.9-41,27.2-41,52.7s24.3,54.3,54.3,54.3h26.6"/>
            <path d="M371.2,277.3c20.9,0,37.8-16.9,37.8-37.8s-16.9-37.8-37.8-37.8h-2.4c0-1.2.2-2.5.2-3.7,0-27.4-22.2-49.7-49.7-49.7s-5.4.2-8,.6c-8.9-37.5-42.6-65.3-82.8-65.3s-85.1,38.1-85.1,85.1,0,1.1,0,1.6c-23.6,5.9-41,27.2-41,52.7s24.3,54.3,54.3,54.3h214.6Z"/>
            <path class="cls-1" d="M371.2,280.3c17.7-.1,33.6-11.7,39-28.6,5.4-17-1.4-35.9-16.1-45.9-7.6-5.2-16.2-7-25.3-7l3,3c.9-12.2-2.6-24.7-9.8-34.6-7-9.6-17.1-16.7-28.5-19.9-7.5-2.1-15.3-2.4-23-1.2l3.7,2.1c-4-16.4-12.7-31.6-25-43.3s-27.9-19.8-44.6-22.8-34.4-1.3-50.2,5.4c-15.1,6.3-28.1,16.8-37.6,30.1s-15.2,29.5-16.2,46c-.1,2.3-.2,4.5-.1,6.8l2.2-2.9c-19.8,5.1-35.9,20.7-41.2,40.5s.3,40.9,14.5,55.3c10.9,11.1,25.9,17.1,41.4,17.1h214c3.9,0,3.9-6,0-6h-214.5c-7.7,0-15.4-1.7-22.3-5-16.6-8.1-28-24.8-29-43.2-1.1-19.3,9-37.9,25.8-47.6,4.1-2.3,8.4-4.1,13-5.2,1.2-.3,2.2-1.6,2.2-2.9-.6-15.6,4-31.5,12.2-44.8s19.4-23.4,32.9-30.2c14.1-7.2,30.3-9.9,46-8.3,15.7,1.7,30.9,8.1,43.1,18.2,12.2,10.1,21.4,23.6,26.2,38.7.6,1.9,1.1,3.8,1.6,5.8.4,1.7,2.1,2.3,3.7,2.1,11.4-1.8,23.1.8,32.7,7,8.6,5.6,15.3,14.1,18.6,23.8,2.1,6.1,2.9,12.6,2.4,19-.1,1.6,1.5,3,3,3,3,0,6,0,9,.6,3.6.7,7.1,2,10.4,3.8,6.4,3.6,11.5,9.1,14.7,15.8,6.5,13.8,2.7,30.6-8.6,40.7-6.3,5.6-14.6,8.6-23,8.7-3.9,0-3.9,6,0,6h0Z"/>
          </g>
        </g>
      </g>
    </g>
  </g>
</svg>