<?xml version="1.0" encoding="UTF-8"?>
<svg xmlns="http://www.w3.org/2000/svg" version="1.1" viewBox="0 0 480 345">
  <defs>
    <style>
      .cls-1 {
        fill: #fff;
      }

      .cls-2 {
        fill: #ffbf1f;
      }
    </style>
  </defs>
  <!-- Generator: Adobe Illustrator 28.7.2, SVG Export Plug-In . SVG Version: 1.2.0 Build 154)  -->
  <g>
    <g id="Livello_2">
      <g id="night">
        <path class="cls-2" d="M300.23,158.02c-.04-14.14-4.39-28.24-12.61-39.76-8.22-11.52-19.67-20.29-32.96-25.17s-28.51-5.4-42.26-1.52c-13.74,3.88-25.45,11.61-34.24,22.28-9.16,11.12-14.67,24.67-15.79,39.04-1.11,14.14,2.36,28.6,9.69,40.74,7.11,11.76,17.8,21.44,30.34,27.11,13.41,6.07,28.35,7.79,42.8,4.87,13.59-2.74,26.3-9.84,35.87-19.86,9.6-10.06,16.19-23.06,18.29-36.83.55-3.62.88-7.26.89-10.91,0-2.15-1.89-4.21-4.11-4.11s-4.1,1.81-4.11,4.11c0,1.71-.06,3.42-.2,5.12-.06.84-.15,1.68-.25,2.52-.02.16-.04.31-.05.47-.06.6.11-.76.03-.16-.06.47-.14.93-.21,1.4-.53,3.26-1.31,6.48-2.32,9.61-.5,1.55-1.08,3.07-1.68,4.59-.07.19-.27.73.06-.14-.07.19-.16.37-.24.56-.15.32-.28.65-.44.97-.36.78-.73,1.55-1.11,2.32-1.45,2.86-3.12,5.62-4.98,8.24-.44.61-.89,1.21-1.33,1.81-.34.46.47-.56.09-.12-.1.11-.18.24-.28.36-.31.39-.63.78-.95,1.16-1.02,1.22-2.09,2.41-3.21,3.56s-2.27,2.26-3.45,3.32c-.56.5-1.12.99-1.7,1.46-.27.22-.54.45-.81.67-.16.13-.31.25-.47.37-.77.62.47-.35,0,0-2.59,1.91-5.23,3.7-8.05,5.25-1.42.78-2.85,1.51-4.32,2.17-.37.16-.74.33-1.11.49-.14.06-.27.13-.42.18.88-.32.34-.14.14-.06-.8.32-1.6.64-2.41.93-3.09,1.12-6.26,2.01-9.49,2.65-.77.16-1.54.29-2.3.41-.41.06-.82.13-1.24.19-.23.04-.76.18.16-.02-.26.05-.52.06-.79.09-1.63.18-3.27.31-4.91.37-3.41.14-6.83,0-10.21-.39-.2-.03-.43-.04-.62-.07.92.2.38.05.16.02-.41-.06-.82-.12-1.24-.19-.82-.14-1.64-.28-2.46-.45-1.62-.33-3.23-.71-4.81-1.16s-3.13-.95-4.66-1.52c-.76-.28-1.52-.58-2.28-.89-.19-.07-.73-.26.14.06-.14-.05-.28-.12-.42-.18-.42-.18-.83-.37-1.24-.56-2.92-1.34-5.75-2.92-8.43-4.68-1.33-.88-2.64-1.81-3.91-2.78.73.56-.09-.07-.35-.28-.27-.22-.54-.44-.81-.67-.65-.54-1.3-1.1-1.93-1.66-2.38-2.14-4.59-4.45-6.63-6.91-.22-.27-.45-.54-.66-.81-.13-.16-.25-.32-.37-.47-.37-.44.44.58.09.12-.5-.69-1.01-1.36-1.51-2.06-.92-1.31-1.8-2.66-2.62-4.03s-1.6-2.8-2.32-4.23c-.34-.68-.67-1.36-.98-2.05-.15-.32-.29-.65-.44-.97-.08-.18-.17-.37-.24-.56.35.92.08.2,0,0-1.22-3.04-2.24-6.15-3-9.33-.38-1.62-.71-3.24-.97-4.88-.06-.41-.13-.82-.18-1.24-.07-.49.05.31.05.31,0,0-.06-.55-.07-.62-.1-.89-.19-1.78-.26-2.68-.26-3.41-.25-6.84.03-10.24.06-.79.14-1.57.23-2.36.03-.2.04-.43.07-.62-.03.12-.14.92-.02.16.06-.47.14-.93.21-1.4.27-1.64.6-3.26,1-4.87.77-3.13,1.78-6.19,2.99-9.18.28-.69-.02.03-.06.14.07-.19.16-.37.24-.56.16-.37.33-.74.49-1.11.34-.73.69-1.46,1.05-2.18.73-1.43,1.51-2.84,2.34-4.22s1.71-2.71,2.64-4.02c.47-.65.94-1.3,1.43-1.93-.5.66-.04.05.19-.23.28-.35.57-.69.85-1.04,2.05-2.45,4.28-4.75,6.66-6.87.56-.5,1.12-.99,1.7-1.46.31-.26.61-.51.93-.76.16-.13.32-.25.47-.37.39-.32-.62.47,0,0,1.28-.96,2.59-1.89,3.93-2.76,2.7-1.75,5.53-3.31,8.46-4.64.32-.15.65-.29.97-.43.13-.05.74-.31.21-.09s.08-.03.21-.08c.8-.32,1.61-.64,2.42-.93,1.54-.56,3.1-1.05,4.67-1.49s3.2-.82,4.82-1.14c.77-.15,1.54-.28,2.3-.41.37-.05.72-.11,1.09-.16.88-.13-.16.04-.16.02,0,0,.69-.08.79-.09,3.39-.39,6.81-.51,10.22-.37,1.69.07,3.38.2,5.06.41,1.07.13-.6-.09.47.05.37.05.72.11,1.09.16.87.14,1.75.3,2.6.48,3.22.66,6.39,1.56,9.47,2.7.71.27,1.43.55,2.13.83s-.03-.02-.14-.06c.19.07.37.16.56.24.42.18.83.37,1.24.56,1.46.68,2.9,1.41,4.3,2.19,2.76,1.54,5.39,3.29,7.9,5.2-.83-.63.14.11.35.28.31.25.62.5.92.76.61.51,1.22,1.03,1.81,1.57,1.19,1.07,2.33,2.17,3.44,3.34s2.17,2.35,3.19,3.57c.26.31.5.62.76.93.13.16.25.31.37.47-.07-.09-.54-.71-.09-.12.48.64.96,1.28,1.42,1.94,1.85,2.62,3.5,5.39,4.94,8.26.37.72.71,1.45,1.04,2.18.15.32.29.65.43.97.05.13.31.74.09.21-.24-.58.09.24.15.35.61,1.51,1.17,3.04,1.66,4.6,1.01,3.14,1.76,6.37,2.28,9.63.04.23.03,1.09.18,1.24-.02,0-.1-.8-.05-.31.02.21.05.42.07.62.09.79.16,1.57.23,2.37.14,1.7.19,3.41.2,5.12,0,2.15,1.89,4.21,4.11,4.11s4.12-1.81,4.11-4.11h0Z"/>
        <path class="cls-2" d="M204.65,158.02c0-51.99,56.38-54.01,26.55-54.01s-54.01,24.18-54.01,54.01,24.18,54.01,54.01,54.01-26.55-2.02-26.55-54.01Z"/>
        <circle class="cls-2" cx="256.76" cy="122.2" r="5.1"/>
        <circle class="cls-2" cx="268.37" cy="145.41" r="10.9"/>
        <circle class="cls-2" cx="225.64" cy="151.04" r="6.15"/>
        <circle class="cls-2" cx="244.81" cy="189.72" r="8.26"/>
        <circle cx="206.65" cy="173.89" r="7.04"/>
        <circle cx="194.58" cy="149.18" r="3.77"/>
        <circle cx="198.96" cy="191.72" r="3.77"/>
        <circle cx="219.09" cy="119.21" r="7.09"/>
        <circle class="cls-2" cx="265.03" cy="174.6" r="3.69"/>
      </g>
      <g id="Livello_1">
        <g id="partialy-cloud">
          <path d="M250.45,296.75h180.96c19.09,0,34.57-15.48,34.57-34.57s-24.72-46.23-24.72-47.39c0-25.1-41.18-53.15-43.58-52.76-8.15-34.27-41.65-40.66-77.68-48.03-44-9-97.02,40.43-97.02,83.44,0,.49.03,1,.05,1.49-21.56,5.42-40.02,33.84-40.02,57.07,0,27.43,34.55,54.27,61.98,54.27l11.83-13.51"/>
          <path d="M385.12,302.46h58.06c19.4,0,35.41-15.77,35.02-35.16-.37-18.71-15.66-33.76-34.45-33.76h-2.67c.08-1.14.15-2.26.15-3.41,0-25.02-20.28-45.28-45.28-45.28-2.49,0-4.92.2-7.32.59-8.12-34.16-38.82-59.57-75.48-59.57-42.87,0-77.61,34.75-77.61,77.61,0,.49.03.99.05,1.49-21.49,5.4-37.41,24.84-37.41,48.01,0,27.34,22.15,49.49,49.49,49.49h24.37"/>
          <path d="M443.35,302.45c18.79,0,34.07-15.05,34.45-33.75s-15.62-35.15-35.02-35.15h-1.64c.08-1.14.15-2.26.15-3.41,0-25.02-20.28-45.28-45.28-45.28-2.49,0-4.92.2-7.32.59-8.12-34.16-38.82-59.57-75.48-59.57-42.87,0-77.61,34.75-77.61,77.61,0,.49.03.99.05,1.49-21.49,5.4-37.41,24.84-37.41,48.01,0,27.34,22.15,49.49,49.49,49.49h195.63Z"/>
          <path class="cls-1" d="M442.7,305.41c16.17.07,30.76-10.57,35.63-26.02,4.91-15.6-1.32-32.84-14.73-42.02-6.93-4.75-14.84-6.41-23.12-6.41l2.74,2.74c.8-11.19-2.35-22.58-9-31.65-6.43-8.76-15.61-15.29-26.11-18.2-6.85-1.9-13.99-2.16-21-1.06l3.38,1.92c-3.61-15.04-11.61-28.92-22.82-39.58-11.21-10.66-25.54-18.08-40.81-20.86-15.27-2.78-31.48-1.16-45.94,4.93-13.78,5.81-25.69,15.39-34.43,27.52-8.74,12.13-13.95,27.02-14.85,42.1-.12,2.07-.17,4.13-.1,6.2l2.01-2.64c-18.12,4.63-32.81,18.97-37.71,37.05s.28,37.39,13.26,50.56c9.99,10.14,23.69,15.61,37.86,15.44h195.72c3.53.17,3.54-5.32,0-5.3h-196.19c-7.03-.04-14.05-1.54-20.4-4.62-15.18-7.38-25.6-22.65-26.53-39.56-.97-17.68,8.2-34.69,23.58-43.5,3.73-2.14,7.7-3.7,11.86-4.77,1.13-.29,2.06-1.46,2.01-2.64-.51-14.32,3.63-28.78,11.13-40.93,7.5-12.16,17.79-21.4,30.14-27.66,12.94-6.57,27.69-9.1,42.1-7.57,14.34,1.52,28.29,7.43,39.4,16.63,11.15,9.24,19.59,21.58,23.94,35.41.55,1.74,1.02,3.5,1.45,5.28.38,1.56,1.95,2.14,3.38,1.92,10.39-1.63,21.13.71,29.94,6.43,7.87,5.1,13.99,12.9,17.03,21.78,1.93,5.63,2.63,11.49,2.2,17.42-.11,1.48,1.34,2.74,2.74,2.74,2.76,0,5.5.02,8.21.56,3.32.66,6.51,1.79,9.47,3.45,5.89,3.29,10.57,8.37,13.44,14.47,5.95,12.63,2.46,28.03-7.88,37.22-5.77,5.14-13.34,7.89-21.04,7.94-3.53.02-3.54,5.51,0,5.32h0Z"/>
        </g>
      </g>
    </g>
  </g>
</svg>