<?xml version="1.0" encoding="UTF-8"?>
<svg xmlns="http://www.w3.org/2000/svg" version="1.1" viewBox="0 0 416.4 308">
  <defs>
    <style>
      .cls-1 {
        fill: #fff;
      }

      .cls-2 {
          fill: none;
          stroke: #22d5ff;
          stroke-linecap: round;
          stroke-linejoin: round;
          stroke-width: 7px;
        }

        /* --- Rain animation --- */
        .rain-drop {
          /* “nasconde” il tratto e lo fa scorrere */
          stroke-dasharray: 140;          /* valore “alto” per coprire la linea */
          stroke-dashoffset: 140;
          animation: rainFall 1.2s infinite linear;
          opacity: 1;
        }

        /* sfalsamenti (non simultanei) */
        .rain-1 { animation-delay: 0s; }
        .rain-2 { animation-delay: .25s; }
        .rain-3 { animation-delay: .5s; }

        @keyframes rainFall {
          0%   { stroke-dashoffset: 140; opacity: 0; }
          10%  { opacity: 1; }
          60%  { stroke-dashoffset: 0;   opacity: 1; }  /* tratto “compare” */
          100% { stroke-dashoffset: -140; opacity: 0; } /* tratto “sparisce” */
        }

      .cls-3 {
        display: none;
      }
    </style>
  </defs>
  <!-- Generator: Adobe Illustrator 28.7.3, SVG Export Plug-In . SVG Version: 1.2.0 Build 164)  -->
  <g>
    <g id="Livello_1">
      <g id="rainy">
        <g id="Livello_1-2" data-name="Livello_1">
          <g id="partialy-cloud">
            <g class="cls-3">
              <path d="M146.9,212.1h197.8c20.9,0,37.8-16.9,37.8-37.8s-27-50.5-27-51.8c0-27.4-45-58.1-47.6-57.7-8.9-37.5-45.8-60.2-86-60.2s-105,51.8-105,98.9,0,1.1,0,1.6c-23.6,5.9-31.7,36.7-31.7,62.1s25.7,59.6,55.7,59.6l12.9-14.8"/>
            </g>
            <g class="cls-3">
              <path d="M307.2,217.5h64c20.9,0,37.8-16.9,37.8-37.8s-16.9-37.8-37.8-37.8h-2.4c0-1.2.2-2.5.2-3.7,0-27.4-22.2-49.7-49.7-49.7s-5.4.2-8,.7c-8.9-37.5-42.6-65.3-82.8-65.3s-85.1,38.1-85.1,85.1,0,1.1,0,1.6c-23.6,5.9-41,27.2-41,52.7s24.3,54.3,54.3,54.3h26.6"/>
            </g>
            <g class="cls-3">
              <path d="M371.2,217.5c20.9,0,37.8-16.9,37.8-37.8s-16.9-37.8-37.8-37.8h-2.4c0-1.2.2-2.5.2-3.7,0-27.4-22.2-49.7-49.7-49.7s-5.4.2-8,.7c-8.9-37.5-42.6-65.3-82.8-65.3s-85.1,38.1-85.1,85.1,0,1.1,0,1.6c-23.6,5.9-41,27.2-41,52.7s24.3,54.3,54.3,54.3h214.6Z"/>
            </g>
            <path class="cls-1" d="M349.4,220.5c3.9,0,3.9-6,0-6s-3.9,6,0,6h0Z"/>
            <path class="cls-1" d="M349.4,220.5h18.8c3.5,0,6.9,0,10.4-.7,5.6-1,11-3.2,15.7-6.4,9.7-6.7,16-17.1,17.5-28.8,1.5-11.7-2.4-23.6-10.3-32.3-4.3-4.8-9.8-8.4-15.8-10.7-5.4-2.1-11.1-2.7-16.9-2.7l3,3c.9-12.2-2.6-24.7-9.8-34.6s-17.1-16.7-28.5-19.9c-7.5-2.1-15.3-2.4-23-1.2l3.7,2.1c-4-16.4-12.7-31.6-25-43.3s-27.9-19.8-44.6-22.8-34.4-1.3-50.2,5.4-28.1,16.8-37.6,30.1-15.2,29.5-16.2,46c-.1,2.3-.2,4.5-.1,6.8l2.2-2.9c-14,3.6-26.2,12.4-34.1,24.5s-10.8,27.6-8.1,42,10.5,26.2,21.6,34.7c10.1,7.8,22.5,11.7,35.2,11.7h24.7c3.9,0,3.9-6,0-6h-22c-3.8,0-7.6,0-11.4-.6-6.4-1.1-12.5-3.2-18-6.5-10.8-6.4-19.1-16.8-22.8-28.8s-2.9-26.6,3.1-38.3c6.7-13.3,19-23.1,33.4-26.8,1.2-.3,2.2-1.6,2.2-2.9-.6-15.7,4-31.5,12.2-44.8s19.4-23.4,33-30.2c14.1-7.2,30.3-10,46-8.3s30.9,8.1,43.1,18.2c12.2,10.1,21.4,23.6,26.2,38.7.6,1.9,1.1,3.8,1.6,5.8.4,1.7,2.1,2.3,3.7,2.1,11.4-1.8,23.1.8,32.7,7,8.6,5.6,15.3,14.1,18.6,23.8,2.1,6.1,2.9,12.6,2.4,19-.1,1.6,1.5,3,3,3,4.5,0,8.8.3,13.2,1.7,4.8,1.5,9.2,4.1,12.8,7.5,7.5,7,11.6,17,11.2,27.3s-5.6,19.8-13.6,25.9c-4,3.1-8.6,5.2-13.6,6.3-3.2.7-6.4.8-9.6.8h-19.9c-3.9,0-3.9,6,0,6h0Z"/>
          </g>
          <line class="cls-2 rain-drop rain-1" x1="244" y1="182" x2="185" y2="285"/>
          <line class="cls-2 rain-drop rain-2" x1="293" y1="154.6" x2="239" y2="248.9"/>
          <line class="cls-2 rain-drop rain-3" x1="320" y1="215.7" x2="301" y2="248.9"/>

        </g>
      </g>
    </g>
  </g>
</svg>