<?xml version="1.0" encoding="UTF-8"?>
<svg xmlns="http://www.w3.org/2000/svg" version="1.1" viewBox="0 0 416.4 308">
  <defs>
    <style>
      .cls-1 {
        fill: #fff;
      }

      .cls-2 {
        stroke-width: 7px;
      }

      .cls-2, .cls-3, .cls-4 {
        fill: none;
        stroke: #22d5ff;
        stroke-linecap: round;
        stroke-miterlimit: 10;
      }

      .cls-3 {
        stroke-width: 5px;
      }

      .cls-5 {
        display: none;
      }

      .cls-4 {
        stroke-width: 9px;
      }
    </style>
  </defs>
  <!-- Generator: Adobe Illustrator 28.7.3, SVG Export Plug-In . SVG Version: 1.2.0 Build 164)  -->
  <g>
    <g id="Livello_1">
      <g id="snowy">
        <g id="Livello_1-2" data-name="Livello_1">
          <g id="partialy-cloud">
            <g class="cls-5">
              <path d="M146.9,207.8h197.8c20.9,0,37.8-16.9,37.8-37.8s-27-50.5-27-51.8c0-27.4-45-58.1-47.6-57.7C298.9,23.1,262,.4,221.8.4s-105,51.8-105,98.9,0,1.1,0,1.6c-23.6,5.9-31.7,36.7-31.7,62.1s25.7,59.6,55.7,59.6l12.9-14.8"/>
            </g>
            <g class="cls-5">
              <path d="M307.2,213.2h64c20.9,0,37.8-16.9,37.8-37.8s-16.9-37.8-37.8-37.8h-2.4c0-1.2.2-2.5.2-3.7,0-27.4-22.2-49.7-49.7-49.7s-5.4.2-8,.7c-8.9-37.5-42.6-65.3-82.8-65.3s-85.1,38.1-85.1,85.1,0,1.1,0,1.6c-23.6,5.9-41,27.2-41,52.7s24.3,54.3,54.3,54.3h26.6"/>
            </g>
            <g class="cls-5">
              <path d="M371.2,213.2c20.9,0,37.8-16.9,37.8-37.8s-16.9-37.8-37.8-37.8h-2.4c0-1.2.2-2.5.2-3.7,0-27.4-22.2-49.7-49.7-49.7s-5.4.2-8,.7c-8.9-37.5-42.6-65.3-82.8-65.3s-85.1,38.1-85.1,85.1,0,1.1,0,1.6c-23.6,5.9-41,27.2-41,52.7s24.3,54.3,54.3,54.3h214.6Z"/>
            </g>
            <path class="cls-1" d="M349.4,216.2c3.9,0,3.9-6,0-6s-3.9,6,0,6h0Z"/>
            <path class="cls-1" d="M349.4,216.2h18.8c3.5,0,6.9,0,10.4-.7,5.6-1,11-3.2,15.7-6.4,9.7-6.7,16-17.1,17.5-28.8,1.5-11.7-2.4-23.6-10.3-32.3-4.3-4.8-9.8-8.4-15.8-10.7-5.4-2.1-11.1-2.7-16.9-2.7l3,3c.9-12.2-2.6-24.7-9.8-34.6s-17.1-16.7-28.5-19.9c-7.5-2.1-15.3-2.4-23-1.2l3.7,2.1c-4-16.4-12.7-31.6-25-43.3s-27.9-19.8-44.6-22.8-34.4-1.3-50.2,5.4-28.1,16.8-37.6,30.1-15.2,29.5-16.2,46c-.1,2.3-.2,4.5-.1,6.8l2.2-2.9c-14,3.6-26.2,12.4-34.1,24.5s-10.8,27.6-8.1,42,10.5,26.2,21.6,34.7c10.1,7.8,22.5,11.7,35.2,11.7h24.7c3.9,0,3.9-6,0-6h-22c-3.8,0-7.6,0-11.4-.6-6.4-1.1-12.5-3.2-18-6.5-10.8-6.4-19.1-16.8-22.8-28.8s-2.9-26.6,3.1-38.3c6.7-13.3,19-23.1,33.4-26.8,1.2-.3,2.2-1.6,2.2-2.9-.6-15.7,4-31.5,12.2-44.8s19.4-23.4,33-30.2c14.1-7.2,30.3-10,46-8.3s30.9,8.1,43.1,18.2c12.2,10.1,21.4,23.6,26.2,38.7.6,1.9,1.1,3.8,1.6,5.8.4,1.7,2.1,2.3,3.7,2.1,11.4-1.8,23.1.8,32.7,7,8.6,5.6,15.3,14.1,18.6,23.8,2.1,6.1,2.9,12.6,2.4,19-.1,1.6,1.5,3,3,3,4.5,0,8.8.3,13.2,1.7,4.8,1.5,9.2,4.1,12.8,7.5,7.5,7,11.6,17,11.2,27.3s-5.6,19.8-13.6,25.9c-4,3.1-8.6,5.2-13.6,6.3-3.2.7-6.4.8-9.6.8h-19.9c-3.9,0-3.9,6,0,6h0Z"/>
          </g>
          <g>
            <line class="cls-4" x1="263.5" y1="250.2" x2="185.5" y2="250.2"/>
            <line class="cls-4" x1="252.1" y1="222.6" x2="196.9" y2="277.8"/>
            <line class="cls-4" x1="224.5" y1="211.2" x2="224.5" y2="289.2"/>
            <line class="cls-4" x1="196.9" y1="222.6" x2="252.1" y2="277.8"/>
            <line class="cls-4" x1="224.5" y1="243.2" x2="224.5" y2="278.2"/>
          </g>
          <g>
            <line class="cls-3" x1="269" y1="174.2" x2="232" y2="174.2"/>
            <line class="cls-3" x1="263.6" y1="161.1" x2="237.4" y2="187.3"/>
            <line class="cls-3" x1="250.5" y1="155.7" x2="250.5" y2="192.7"/>
            <line class="cls-3" x1="237.4" y1="161.1" x2="263.6" y2="187.3"/>
            <line class="cls-3" x1="250.5" y1="170.9" x2="250.5" y2="187.5"/>
          </g>
          <g>
            <line class="cls-2" x1="327" y1="217.2" x2="272" y2="217.2"/>
            <line class="cls-2" x1="319" y1="197.8" x2="280.1" y2="236.7"/>
            <line class="cls-2" x1="299.5" y1="189.7" x2="299.5" y2="244.7"/>
            <line class="cls-2" x1="280.1" y1="197.8" x2="319" y2="236.7"/>
            <line class="cls-2" x1="299.5" y1="212.3" x2="299.5" y2="237"/>
          </g>
        </g>
      </g>
    </g>
  </g>
</svg>