<?xml version="1.0" encoding="UTF-8"?>
<svg xmlns="http://www.w3.org/2000/svg" version="1.1" viewBox="0 0 480 345">
  <defs>
    <style>
      .cls-1 {
        stroke-width: 5px;
      }

      .cls-1, .cls-2 {
        fill: #22d5ff;
        stroke-miterlimit: 10;
      }

      .cls-1, .cls-2, .cls-3 {
        stroke: #22d5ff;
        stroke-linecap: round;
      }

      .cls-2, .cls-3 {
        stroke-width: 7px;
      }

      .cls-4 {
        fill: #fff;
      }

      .cls-3 {
        fill: none;
        stroke-linejoin: round;
      }

      .cls-5 {
        display: none;
      }
    </style>
  </defs>
  <!-- Generator: Adobe Illustrator 28.7.2, SVG Export Plug-In . SVG Version: 1.2.0 Build 154)  -->
  <g>
    <g id="Livello_1">
      <g id="partialy-cloud">
        <g class="cls-5">
          <path d="M214.84,226.11h197.81c20.87,0,37.79-16.92,37.79-37.79s-27.02-50.54-27.02-51.81c0-27.44-45.02-58.1-47.64-57.68-8.91-37.47-45.76-60.16-85.97-60.16-47.02,0-105.02,51.85-105.02,98.87,0,.54.03,1.09.05,1.63-23.57,5.92-31.69,36.73-31.69,62.13,0,29.99,25.71,59.59,55.69,59.59l12.93-14.77"/>
        </g>
        <g class="cls-5">
          <path d="M375.2,231.5h64c20.87,0,37.79-16.92,37.79-37.79s-16.92-37.79-37.79-37.79h-2.42c.09-1.25.16-2.48.16-3.74,0-27.44-22.24-49.67-49.67-49.67-2.73,0-5.4.22-8.03.65-8.91-37.47-42.58-65.34-82.79-65.34-47.02,0-85.12,38.11-85.12,85.12,0,.54.03,1.09.05,1.63-23.57,5.92-41.03,27.25-41.03,52.66,0,29.99,24.3,54.28,54.28,54.28h26.63"/>
        </g>
        <g class="cls-5">
          <path d="M439.21,231.5c20.87,0,37.79-16.92,37.79-37.79s-16.92-37.79-37.79-37.79h-2.42c.09-1.25.16-2.48.16-3.74,0-27.44-22.24-49.67-49.67-49.67-2.73,0-5.4.22-8.03.65-8.91-37.47-42.58-65.34-82.79-65.34-47.02,0-85.12,38.11-85.12,85.12,0,.54.03,1.09.05,1.63-23.57,5.92-41.03,27.25-41.03,52.66,0,29.99,24.3,54.28,54.28,54.28h214.56Z"/>
        </g>
        <path class="cls-4" d="M417.34,234.5c3.86,0,3.87-6,0-6s-3.87,6,0,6h0Z"/>
        <path class="cls-4" d="M417.34,234.5h18.84c3.48,0,6.91-.07,10.36-.67,5.58-.97,11.02-3.22,15.68-6.45,9.66-6.7,15.99-17.13,17.46-28.79,1.47-11.67-2.41-23.56-10.26-32.28-4.31-4.79-9.76-8.42-15.75-10.74-5.44-2.11-11.1-2.66-16.89-2.66l3,3c.88-12.23-2.57-24.69-9.84-34.6s-17.06-16.71-28.54-19.9c-7.49-2.08-15.29-2.36-22.96-1.16l3.69,2.1c-3.95-16.44-12.69-31.62-24.95-43.27s-27.92-19.76-44.61-22.8-34.42-1.27-50.22,5.39-28.09,16.82-37.64,30.08-15.25,29.54-16.23,46.02c-.13,2.26-.19,4.52-.11,6.78l2.2-2.89c-13.96,3.57-26.2,12.39-34.06,24.46s-10.84,27.57-8.12,42.01,10.5,26.19,21.6,34.68c10.12,7.75,22.54,11.67,35.25,11.68,7.99,0,15.97,0,23.96,0h.72c3.86,0,3.87-6,0-6h-22c-3.81,0-7.61,0-11.38-.62-6.37-1.05-12.48-3.23-18.03-6.52-10.81-6.41-19.1-16.78-22.83-28.8s-2.88-26.55,3.09-38.34c6.74-13.29,18.97-23.09,33.4-26.77,1.24-.32,2.25-1.6,2.2-2.89-.56-15.65,3.97-31.46,12.17-44.75s19.45-23.39,32.95-30.24c14.15-7.18,30.27-9.95,46.03-8.28s30.93,8.12,43.07,18.18c12.19,10.1,21.42,23.59,26.17,38.71.6,1.9,1.12,3.83,1.59,5.77.41,1.7,2.13,2.34,3.69,2.1,11.36-1.78,23.1.78,32.73,7.03,8.6,5.58,15.29,14.1,18.62,23.81,2.11,6.15,2.87,12.56,2.4,19.04-.12,1.62,1.47,3,3,3,4.52,0,8.83.3,13.17,1.69,4.75,1.53,9.18,4.13,12.83,7.53,7.55,7.01,11.62,17,11.16,27.29s-5.56,19.8-13.61,25.94c-4.01,3.06-8.65,5.19-13.56,6.31-3.17.72-6.35.82-9.59.82h-19.86c-3.86,0-3.87,6,0,6h0Z"/>
      </g>
      <g>
        <line class="cls-1" x1="349" y1="284.5" x2="312" y2="284.5"/>
        <line class="cls-1" x1="343.58" y1="271.42" x2="317.42" y2="297.58"/>
        <line class="cls-1" x1="330.5" y1="266" x2="330.5" y2="303"/>
        <line class="cls-1" x1="317.42" y1="271.42" x2="343.58" y2="297.58"/>
        <line class="cls-1" x1="330.5" y1="281.18" x2="330.5" y2="297.78"/>
      </g>
      <g>
        <line class="cls-2" x1="395" y1="235.5" x2="340" y2="235.5"/>
        <line class="cls-2" x1="386.95" y1="216.05" x2="348.05" y2="254.95"/>
        <line class="cls-2" x1="367.5" y1="208" x2="367.5" y2="263"/>
        <line class="cls-2" x1="348.05" y1="216.05" x2="386.95" y2="254.95"/>
        <line class="cls-2" x1="367.5" y1="230.56" x2="367.5" y2="255.24"/>
      </g>
      <g>
        <line class="cls-3" x1="291.57" y1="200.84" x2="232.57" y2="303.84"/>
        <line class="cls-3" x1="340.57" y1="173.43" x2="286.54" y2="267.76"/>
      </g>
    </g>
  </g>
</svg>