<?xml version="1.0" encoding="UTF-8"?>
<svg xmlns="http://www.w3.org/2000/svg" version="1.1" viewBox="0 0 416.4 308">
  <defs>
    <style>
      .cls-1 {
        fill: #fff;
      }
    </style>
  </defs>
  <!-- Generator: Adobe Illustrator 28.7.3, SVG Export Plug-In . SVG Version: 1.2.0 Build 164)  -->
  <g>
    <g id="Livello_1">
      <g id="windy-variant">
        <g id="Livello_2">
          <g id="night">
            <path class="cls-1" d="M404.8,236h-156.3c-2.4,0-4.8,0-7.2,0-12.5.1-23.4,7.7-27.8,19.4-1.2,3.2-1.8,6.7-1.8,10.1,0,3.8,3.3,7.4,7.2,7.2s7.1-3.2,7.2-7.2c0-.5-.2-1.7.1-2.2-.5.8-.2,1.1,0,.3,0-.4.1-.7.2-1.1.2-.7.3-1.4.6-2,0-.2.2-.9.4-1-.5.5-.5,1,0,0,.3-.6.6-1.2,1-1.8.2-.3.4-.6.6-.9.1-.2.7-1.2.2-.3s0,0,.2-.3c.2-.3.5-.5.7-.8.5-.6,1.1-1.1,1.7-1.6.2-.2.5-.5.8-.7-.2.1-1.3.9-.2.2.6-.4,1.2-.8,1.8-1.1s1.2-.7,1.9-.9c-1.7.5.5-.1,1-.3.7-.2,1.4-.4,2.1-.5,1.8-.3-1.1,0,.8,0,.5,0,1,0,1.4,0,2,0,4.1,0,6.1,0h133.6c7.9,0,15.8.2,23.6,0h.3c3.8,0,7.4-3.3,7.2-7.2s-3.2-7.2-7.2-7.2h0s0,0,0,0Z"/>
            <path class="cls-1" d="M378.8,186.8h-84.6c-3.8,0-7.4,3.3-7.2,7.2s3.2,7.2,7.2,7.2h84.6c3.8,0,7.4-3.3,7.2-7.2s-3.2-7.2-7.2-7.2h0Z"/>
            <path class="cls-1" d="M392.8,132.7h-65.7c-3.8,0-7.4,3.3-7.2,7.2s3.2,7.2,7.2,7.2h65.7c3.8,0,7.4-3.3,7.2-7.2s-3.2-7.2-7.2-7.2h0Z"/>
            <path class="cls-1" d="M268,186.8h-11.1c-1.8,0-3.8.8-5.1,2.1s-2.2,3.3-2.1,5.1.7,3.8,2.1,5.1,3.1,2.1,5.1,2.1h11.1c1.8,0,3.8-.8,5.1-2.1s2.2-3.3,2.1-5.1-.7-3.8-2.1-5.1-3.1-2.1-5.1-2.1h0Z"/>
            <path class="cls-1" d="M334.5,139.9c-.1-25.7-17.8-49.1-42.8-55.6-8.1-2.1-16.4-2.3-24.7-1l8.9,5c-8.5-35.1-37.8-63.4-73.4-69.8-18.4-3.3-37.2-1.3-54.4,6.1-15.9,6.8-29.4,18.1-39.4,32.1-11.2,15.8-17.6,35.8-16.9,55.3l5.3-6.9c-19.7,5.1-35.5,19.6-42.9,38.5-7.3,18.9-4.6,39.7,6.2,55.9,10.8,16.3,28.6,26.6,48.1,28,4.2.3,8.4.1,12.6.1h136.5c14.5,0,29.1.2,43.6,0h.6c3.8,0,7.4-3.3,7.2-7.2s-3.2-7.2-7.2-7.2H112.4c-.8,0-1.5,0-2.3,0-1.1,0-2.2-.1-3.3-.2-.4,0-2.2-.2-.3,0-.7,0-1.4-.2-2.1-.4-1.9-.4-3.9-.8-5.8-1.4-1-.3-2-.6-3-1-.5-.2-1-.4-1.5-.6-.7-.3-.7-.3.3.1-.3-.1-.6-.3-1-.4-1.9-.9-3.8-1.8-5.6-2.9-.8-.5-1.6-1-2.4-1.5-.4-.2-.7-.5-1.1-.7-.3-.2-2.2-1.6-.6-.4-3.4-2.7-6.5-5.8-9.2-9.1-.2-.3-.7-1.1.2.2-.3-.4-.6-.9-.9-1.3-.6-.9-1.2-1.7-1.7-2.6-1.2-1.9-2.3-3.9-3.2-6-.2-.5-.5-1-.6-1.4.7,1.8,0,0,0-.2-.3-.8-.6-1.7-.9-2.5-.7-2.2-1.3-4.5-1.7-6.8,0-.5-.2-1.1-.3-1.6,0-.4-.6-2.1,0-.3-.3-1-.2-2.3-.3-3.3-.1-2.3-.1-4.6,0-6.8,0-1.1.2-2.3.3-3.4-.2,1.9,0,0,0-.3,0-.6.2-1.1.3-1.7.4-2.3,1.1-4.5,1.8-6.7.3-1,.7-1.9,1.1-2.9.7-1.7-.7,1.4.1-.3.2-.5.4-1,.7-1.5,1-2.1,2.2-4.2,3.5-6.2.6-.9,1.2-1.8,1.9-2.7.8-1.1,0,0-.1.2.3-.4.7-.9,1-1.3,1.5-1.8,3.1-3.5,4.9-5.1.8-.7,1.6-1.4,2.4-2.1.2-.2,1.7-1.3.3-.2.4-.3.9-.7,1.3-1,1.8-1.3,3.6-2.4,5.5-3.5,1-.5,1.9-1,2.9-1.5.5-.2,1-.4,1.5-.7-1.7.8,0,0,.3-.1,2.1-.8,4.2-1.5,6.4-2,3-.8,5.4-3.8,5.3-6.9-.1-4.2.2-8.3.6-12.5.1-1.2-.3,1.8,0,0,0-.5.2-1.1.3-1.6.1-.9.3-1.8.5-2.7.4-2.1.9-4.2,1.5-6.3.5-1.7,1-3.4,1.6-5.1.4-1,.7-2,1.1-3,.1-.3.3-.7.4-1,.3-.7.3-.7-.1.3.1-.3.3-.7.4-1,1.6-3.5,3.4-7,5.4-10.3,1-1.6,2-3.1,3-4.6.6-.8,1.1-1.6,1.7-2.3-1,1.4-.3.3,0,0,.4-.5.8-1,1.1-1.4,2.4-3,5.1-5.7,7.9-8.3,1.4-1.3,2.9-2.6,4.4-3.8.3-.2.5-.4.8-.7,1.4-1.1-1.2.9.2-.1.9-.6,1.7-1.2,2.5-1.8,3.2-2.2,6.5-4.2,9.9-5.9,1.7-.9,3.5-1.8,5.3-2.5-1.9.7.8-.3,1.2-.5,1.1-.4,2.2-.8,3.3-1.2,3.8-1.3,7.8-2.3,11.7-3.1.9-.2,1.8-.3,2.7-.5.4,0,2.2-.4.3,0,.4,0,.7,0,1.1-.1,2.2-.3,4.4-.4,6.6-.5,4.2-.2,8.4,0,12.6.4.5,0,.9.1,1.4.2,1.2.1-1.8-.3,0,0,1,.2,2.1.3,3.1.5,2.1.4,4.2.9,6.3,1.4,2,.5,3.9,1.1,5.9,1.8.9.3,1.7.6,2.6.9.5.2,1,.4,1.5.6.4.1,1.9.8.3.1,3.7,1.6,7.2,3.4,10.7,5.5,1.7,1,3.4,2.1,5,3.3.7.5,1.5,1.1,2.2,1.6,1.5,1.1-1.2-1,.3.2.4.3.9.7,1.3,1,3.5,2.9,6.7,6,9.7,9.4.7.8,1.4,1.6,2.1,2.5.3.4.7.8,1,1.3.9,1.1-.8-1,.4.5,1.3,1.8,2.6,3.7,3.8,5.6s2.3,3.7,3.3,5.7c.6,1.1,1.1,2.1,1.6,3.2.2.4.4.8.6,1.2.1.3,1.1,2.6.4.8,1.8,4.3,3.2,8.7,4.3,13.2,1,4.1,5.1,5.6,8.9,5,.2,0,1.4-.2.3,0,.4,0,.7,0,1.1-.1.9,0,1.7-.1,2.6-.2,1.7,0,3.4,0,5,0,.6,0,1.3,0,1.9.1.7,0,2,0,.5,0,1.3,0,2.7.4,4,.7,2.6.6,5.1,1.5,7.6,2.4.8.3-.5-.2-.5-.2.3,0,.7.3,1,.4.6.3,1.1.5,1.7.8,1.2.6,2.3,1.2,3.4,1.9s2.2,1.4,3.3,2.2c.4.3,1.8,1.5.4.3.5.4,1.1.9,1.6,1.3,2,1.7,3.8,3.6,5.5,5.6.2.2,1.4,1.7.8.9-.6-.7.5.7.7.9.8,1.1,1.5,2.2,2.2,3.3.6,1.1,1.2,2.1,1.8,3.2.3.5.5,1.1.8,1.7.1.3.4.7.4,1-.2-.8-.3-.9,0,0,1,2.8,1.9,5.6,2.5,8.5.1.7.3,1.4.4,2.1.2,1.1-.1-.2,0-.3,0,0,.1,1,.1,1.1.2,1.7.2,3.3.2,5,0,3.8,3.3,7.4,7.2,7.2s7.2-3.2,7.2-7.2h0s0,0,0,0Z"/>
            <path class="cls-1" d="M360,161.9h-129.8c-3.8,0-7.4,3.3-7.2,7.2s3.2,7.2,7.2,7.2h129.8c3.8,0,7.4-3.3,7.2-7.2s-3.2-7.2-7.2-7.2h0Z"/>
            <path class="cls-1" d="M243.5,161.9h-13.3c-.5,0-1,0-1.5,0-1.7,0,1.6.4-.1,0-.5-.1-1-.2-1.5-.3-.8-.2-1.5-.4-2.2-.7-.5-.1-1.6-.4,0,0-.3,0-.7-.3-1-.4-1.6-.8-3.1-1.8-4.6-2.8s.8.7,0,0c-.3-.3-.7-.6-1.1-.9-.6-.6-1.2-1.1-1.8-1.7s-1.2-1.2-1.7-1.9c-.4-.4-.7-.9-1.1-1.3.8.9.1.2-.2-.3-1-1.4-1.9-2.8-2.7-4.3-.5-.8-.8-1.6-1.2-2.5-.2-.3-.5-1.3,0,.2-.2-.5-.4-1-.6-1.5-.6-1.6-.9-3.2-1.3-4.8-.2-.8-.6-1,0,.1-.1-.2,0-.8-.1-1,0-1-.1-2.1,0-3.1,0-.1,0-1.1,0-1.1.1,0-.3,1.5,0,0,.2-.8.4-1.6.6-2.4.1-.4,1.2-3.1.4-1.4.4-.9.8-1.7,1.3-2.5s1-1.6,1.5-2.4c.2-.3.5-.6.7-.9-.9,1.2-.1.2.1-.1,1.3-1.6,2.8-2.9,4.3-4.2.2-.2,1.1-.8-.1,0,.4-.3.8-.6,1.2-.8.7-.5,1.4-.9,2.2-1.4.8-.5,1.7-.9,2.5-1.3.3-.2,1.3-.5-.2,0,.5-.2,1-.4,1.6-.6.9-.3,1.8-.6,2.7-.8.4,0,.7-.2,1.1-.2.1,0,1.9-.3.7-.1s.5,0,.7,0c.4,0,.7,0,1.1,0,1,0,2,0,3,.1.1,0,1,.1,1,.1,0,.1-1.6-.3-.5,0,.8.1,1.5.3,2.3.5s1.5.4,2.2.7c.2,0,.7.3.9.3-1-.4-1.2-.5-.5-.2l.4.2c.7.3,1.3.7,1.9,1.1.3.2,2.1,1.4,1.1.7-1-.6.6.6.9.9.2.2,1.6,2,1.8,1.9-.1,0-1-1.5-.3-.4.2.3.4.5.5.8.4.7.8,1.3,1.2,2,.1.3.3.6.4.9.8,1.5-.5-1.5,0,0,.3.8.6,1.6.8,2.4s.5,1.7.6,2.6c0,.4.1.7.2,1.1.3,1.8,0-1.1,0,0,.1,1.9.2,3.8.2,5.7,0,1.2.4-1.7,0,.1-.1.6-.4,1.2-.5,1.9-.3,1.1.2-.7.3-.7,0,0-.5.9-.5,1-.1.2-.3.4-.4.6-.6,1.1-.2,0,.3-.3-.5.4-1,1.1-1.5,1.6-.2.2-.4.3-.5.5-.9.9,1.4-.9.3-.3-.6.3-1.1.7-1.7,1-.3.1-.5.3-.8.4-1.2.6,1.7-.6.4-.2s-2.6.8-3.9,1c-1.1.2.8-.1.8-.1-.3,0-.8,0-1.1.1-.7,0-1.5,0-2.2,0-.5,0-1.3-.3-1.8-.1,1.1-.4,1.6.3.5,0-.3,0-.7-.1-1-.2-.6-.1-1.1-.3-1.7-.5-.2,0-1.4-.5-.1,0s-.1,0-.4-.2c-.5-.3-.9-.6-1.4-.9-1.1-.6,1.1,1,.6.4-.2-.2-.5-.4-.7-.7-.2-.2-.4-.4-.5-.6-.8-.8.9,1.5.3.4-.3-.6-1.3-2.7-.3-.3-1.4-3.5-4.9-6.3-8.9-5-3.3,1.1-6.6,5.1-5,8.9,2.8,6.8,8.4,11.3,15.7,12.6,6.8,1.2,14.3.3,20.2-3.6,6.7-4.4,10.2-11.5,10-19.5-.2-8.9-3-18-9.4-24.4-5.9-5.9-14.3-8.8-22.6-8.7-9.6,0-18.8,4.5-25.7,11.1s-11.9,16.1-11.5,25.8,4.6,18.2,10.5,25.5c6.4,7.9,16,13.8,26.4,14.1,4.5.1,9,0,13.5,0s7.4-3.3,7.2-7.2-3.2-7.2-7.2-7.2h0c0,0,0,0,0,0Z"/>
          </g>
        </g>
      </g>
    </g>
  </g>
</svg>