<?xml version="1.0" encoding="UTF-8"?>
<svg xmlns="http://www.w3.org/2000/svg" version="1.1" viewBox="0 0 480 345">
  <defs>
    <style>
      .cls-1 {
        fill: #fff;
      }
    </style>
  </defs>
  <!-- Generator: Adobe Illustrator 28.7.2, SVG Export Plug-In . SVG Version: 1.2.0 Build 154)  -->
  <g>
    <g id="Livello_2">
      <g id="night">
        <path class="cls-1" d="M183.48,226.02h235.45c.49,0,.98,0,1.49.04.17,0,1.23-.02,1.47.11-1.34-.21-1.47-.21-.4-.04l.7.13c1.04.21,2.08.47,3.08.79.45.15.87.36,1.34.45,1.34.3-2-1.04-.02-.02.83.43,1.66.83,2.47,1.3.6.36,3.59,2.17,1.49.85,1.49.94,2.83,2.49,3.98,3.81.13.13,1.34,1.91.55.64-.7-1.13.09.15.26.43.62.98,1.21,1.96,1.74,2.98.26.51.57,1.04.74,1.57-.09-.26-.7-1.98-.19-.34.28.89.6,1.79.81,2.7s.53,1.89.55,2.81c-.04-2.34-.13-.64-.09,0s.04,1.23.06,1.85c.06,5,4.36,9.81,9.57,9.57s9.63-4.21,9.57-9.57c-.26-21.46-17.65-38.92-39.16-39.16-2.55-.02-5.13,0-7.68,0h-192.87c-11.46,0-22.95-.28-34.41,0h-.51c-5,0-9.81,4.4-9.57,9.57s4.21,9.57,9.57,9.57h0v-.02Z"/>
        <path class="cls-1" d="M238.7,195.96h92.14c5,0,9.81-4.4,9.57-9.57s-4.21-9.57-9.57-9.57h-92.14c-5,0-9.81,4.4-9.57,9.57s4.21,9.57,9.57,9.57h0Z"/>
        <path class="cls-1" d="M183.48,128.65h89.27c5,0,9.81-4.4,9.57-9.57s-4.21-9.57-9.57-9.57h-89.27c-5,0-9.81,4.4-9.57,9.57s4.21,9.57,9.57,9.57h0Z"/>
        <path class="cls-1" d="M365.68,195.96h29.67c5,0,9.81-4.4,9.57-9.57s-4.21-9.57-9.57-9.57h-29.67c-5,0-9.81,4.4-9.57,9.57s4.21,9.57,9.57,9.57h0Z"/>
        <path class="cls-1" d="M301.38,256.88h55.58c5,0,9.81-4.4,9.57-9.57s-4.21-9.57-9.57-9.57h-55.58c-5,0-9.81,4.4-9.57,9.57s4.21,9.57,9.57,9.57h0Z"/>
        <path class="cls-1" d="M212.71,162.29h191.04c8.83,0,17.7.26,26.5,0h.38c5,0,9.81-4.4,9.57-9.57s-4.21-9.57-9.57-9.57h-191.04c-8.83,0-17.7-.26-26.5,0h-.38c-5,0-9.81,4.4-9.57,9.57s4.21,9.57,9.57,9.57h0Z"/>
        <path class="cls-1" d="M430.65,162.29c11.55-.09,22.38-3.57,31.33-10.93,7.42-6.08,12.57-15.23,14.72-24.52,2.59-11.32,1.43-22.74-3.93-33.07s-14.06-18.4-24.29-22.8c-18.16-7.83-42.96-4.4-54.13,13.34-5.47,8.7-7.19,20.35-5.53,30.39,1.45,8.81,7.25,16.16,14.44,21.1,7.83,5.38,17.93,7.27,27.18,5.36,10.42-2.17,17.93-10.42,21.01-20.31,1.49-4.79-1.77-10.66-6.68-11.78-5.21-1.19-10.17,1.57-11.78,6.68l-.38,1.15c-.45,1.53.17-.49.32-.66-.47.53-.77,1.57-1.13,2.21-.19.32-1.66,2.36-.57.98s-.6.6-.91.91c-.28.28-.64.53-.91.83-.77.85,1.79-1.17.79-.6-.55.32-1.06.72-1.62,1.02-.34.19-2.49,1.17-.77.45s-.85.23-1.32.36c-.62.17-1.25.23-1.87.4-1.13.32,2.3-.17,1.13-.15-.32,0-.64.06-.96.09-.72.04-1.47.06-2.19.04-.49,0-3-.32-1.17-.02,1.91.3-.55-.13-.94-.21-.72-.15-1.47-.34-2.17-.55-.64-.19-1.25-.45-1.89-.66-1-.32-.04-.6.89.38-.23-.26-.83-.38-1.15-.53-1.3-.66-2.45-1.47-3.68-2.21s1.68,1.57-.04-.06c-.62-.57-1.23-1.13-1.83-1.74-.17-.19-1.38-1.28-1.32-1.53.02-.11,1.43,2.13.6.72-.17-.3-.38-.55-.55-.85-.36-.57-.66-1.17-1-1.77-1.21-2.15.49,1.83-.23-.55-.19-.66-.4-1.32-.57-2-.09-.34-.13-.7-.21-1.04-.38-1.49.17.77.13.96.15-.62-.11-1.57-.11-2.19,0-1.32.04-2.64.13-3.96.04-.51.09-1,.13-1.51.17-1.87-.09.15-.06.38-.11-.79.34-1.96.51-2.72.19-.85.43-1.7.68-2.55.13-.4.26-.81.4-1.21.72-2.06.45-.15-.06,0,.51-.17,1.85-3.47,2.25-4.06,1.45-2.15-1.11,1.08.38-.49.57-.6,1.11-1.19,1.72-1.77.28-.26.55-.47.81-.72,1.13-1.04-.49.45-.66.49.66-.21,1.45-1,2.04-1.36.64-.38,1.28-.7,1.94-1.04.38-.19,1.53-.55.13-.11-1.55.51.09-.02.43-.15,1.55-.57,3.15-1.02,4.76-1.36.79-.17,1.6-.28,2.38-.45,1.25-.26-2,.15-.7.09.64-.02,1.25-.13,1.89-.17,1.79-.13,3.57-.19,5.34-.13.49,0,.98.04,1.47.09.94.09,1.83-.36,0-.02.85-.17,2.42.49,3.25.7.96.26,1.91.55,2.83.89.3.11,1.79.7.6.21-1.4-.57.85.43.91.45,1.94.96,3.79,2.06,5.53,3.3.23.17,1.53,1.15.57.38-1.15-.91.79.68.81.7.77.66,1.53,1.36,2.25,2.08s1.43,1.47,2.11,2.25c.34.38.66.79.98,1.17-1.06-1.23-.13-.15.34.51,1.17,1.68,2.21,3.42,3.11,5.25.23.45.43.91.64,1.38-.15-.32-.68-1.85-.11-.17.43,1.19.83,2.38,1.15,3.62.26.98.4,1.98.62,2.96-.47-2.13.02.43.06,1.21.11,2.04-.04,4.06-.19,6.1-.11,1.53.11-.6.11-.62.13.09-.3,1.79-.34,1.91-.19.96-.4,1.89-.66,2.83s-.53,1.85-.85,2.74c-.15.4-.3.79-.45,1.19-.68,1.94.83-1.64-.02.04-.91,1.79-1.83,3.55-2.96,5.21-.19.28-.64,1.19-.91,1.28.53-.17,1.25-1.49.11-.21-.64.7-1.25,1.43-1.94,2.08-.4.4-1.83,2.15-2.38,2.15.4,0,1.51-1.06.4-.32-.53.36-1.06.74-1.62,1.11-.83.53-1.7,1.04-2.57,1.49-.4.21-.81.4-1.21.6-1.91.98.53-.11-.23.11-2.19.62-4.28,1.43-6.55,1.87-.49.09-1,.17-1.49.26,2.38-.47-.06,0-.51.02-1.34.11-2.68.15-4.02.17-5,.04-9.81,4.38-9.57,9.57s4.21,9.61,9.57,9.57h0l.04.06Z"/>
      </g>
    </g>
  </g>
</svg>